P2
# Generated from pacman_ntable.dmp by nesnt2pgm https://github.com/felipe-m/img_rom
32 30
255
32 32 32 32 32 32 32 32 32 32 32 32 32 32 32 32 32 32 32 32 32 32 32 32 32 32 32 32 32 32 32 32
32 32 32 32 32 32 32 32 32 32 32 32 32 32 32 32 32 32 32 32 32 32 32 32 32 32 32 32 32 32 32 32
45 31 16 16 16 16 16 16 16 16 16 19 16 16 16 16 16 16 16 16 16 29 32 32 32 32 32 32 32 32 32 32
45 17 3 3 3 3 3 3 3 3 3 17 3 3 3 3 3 3 3 3 3 17 180 181 182 183 184 185 186 187 32 32
45 17 3 31 16 29 3 31 16 29 3 17 3 31 16 29 3 31 16 29 3 17 32 32 32 32 32 32 32 32 32 32
45 17 1 17 32 17 3 17 32 17 3 17 3 17 32 17 3 17 32 17 1 17 32 32 49 48 48 48 48 32 32 32
45 17 3 30 16 28 3 30 16 28 3 26 3 30 16 28 3 30 16 28 3 17 32 32 32 32 32 32 32 32 32 32
45 17 3 3 3 3 3 3 3 3 3 3 3 3 3 3 3 3 3 3 3 17 32 32 32 32 32 32 32 32 32 32
45 17 3 31 16 29 3 27 3 31 16 16 16 29 3 27 3 31 16 29 3 17 32 32 32 32 32 32 32 32 32 32
45 17 3 30 16 28 3 17 3 30 16 19 16 28 3 17 3 30 16 28 3 17 32 32 32 32 32 48 48 32 32 32
45 17 3 3 3 3 3 17 3 3 3 17 3 3 3 17 3 3 3 3 3 17 32 32 32 32 32 32 32 32 32 32
45 30 16 16 16 29 3 21 16 24 8 26 8 25 16 20 3 31 16 16 16 28 32 32 32 32 32 32 32 32 32 32
45 32 32 32 32 17 3 17 0 0 0 0 0 0 0 17 3 17 32 32 32 32 32 32 32 32 32 32 32 32 32 32
45 32 32 32 32 17 3 17 0 31 23 44 22 29 0 17 3 17 32 32 32 32 32 32 32 32 32 32 32 32 32 32
45 34 16 16 16 28 3 26 0 17 0 0 0 17 0 26 3 30 16 16 16 33 45 45 45 45 45 45 45 45 32 32
4 6 0 0 0 0 3 0 0 17 0 0 0 17 0 0 3 0 0 0 0 5 4 4 4 4 4 4 4 4 32 32
45 34 16 16 16 29 3 27 0 30 16 16 16 28 0 27 3 31 16 16 16 33 45 45 45 45 45 45 45 45 32 32
45 32 32 32 32 17 3 17 0 0 0 0 0 0 0 17 3 17 32 32 32 32 32 32 32 32 32 32 32 32 32 32
45 32 32 32 32 17 3 17 0 31 16 16 16 29 0 17 3 17 32 32 32 32 96 97 32 32 32 32 45 45 32 32
45 31 16 16 16 28 3 26 0 30 16 19 16 28 0 26 3 30 16 16 16 29 98 99 32 32 32 32 45 45 32 32
45 17 3 3 3 3 3 3 3 3 3 17 3 3 3 3 3 3 3 3 3 17 32 32 32 32 32 32 45 45 32 32
45 17 3 25 16 29 3 25 16 24 9 26 9 25 16 24 3 31 16 24 3 17 32 32 32 32 32 32 45 45 32 32
45 17 1 3 3 17 3 3 3 3 3 0 3 3 3 3 3 17 3 3 1 17 32 32 32 32 32 32 45 45 32 32
45 21 16 29 3 17 3 27 3 31 16 16 16 29 3 27 3 17 3 31 16 20 32 32 32 32 32 32 45 45 32 32
45 21 16 28 3 26 3 17 3 30 16 19 16 28 3 17 3 26 3 30 16 20 32 60 61 60 61 45 45 45 32 32
45 17 3 3 3 3 3 17 3 3 3 17 3 3 3 17 3 3 3 3 3 17 32 62 63 62 63 45 45 45 32 32
45 17 3 25 16 16 16 18 16 24 3 26 3 25 16 18 16 16 16 24 3 17 32 32 32 32 32 32 45 45 32 32
45 17 3 3 3 3 3 3 3 3 3 3 3 3 3 3 3 3 3 3 3 17 32 32 32 32 32 32 45 45 32 32
45 30 16 16 16 16 16 16 16 16 16 16 16 16 16 16 16 16 16 16 16 28 32 32 32 32 32 32 32 32 32 32
32 32 32 32 32 32 32 32 32 32 32 32 32 32 32 32 32 32 32 32 32 32 32 32 32 32 32 32 32 32 32 32
