P2
# Generated from smario_traspas_nt.dmp by nesnt2pgm https://github.com/felipe-m/img_rom
32 64
255
36 36 36 36 36 36 36 36 36 36 36 36 36 36 36 36 36 36 36 36 36 36 36 36 36 36 36 36 36 36 36 36
36 36 36 36 36 36 36 36 36 36 36 36 36 36 36 36 36 36 36 36 36 36 36 36 36 36 36 36 36 36 36 36
36 36 36 22 10 27 18 24 36 36 36 36 36 36 36 36 36 36 32 24 27 21 13 36 36 29 18 22 14 36 36 36
36 36 36 0 0 1 7 0 0 36 36 46 41 0 0 36 36 36 36 1 40 1 36 36 36 36 3 2 3 36 36 36
36 36 36 36 36 36 36 36 36 36 36 36 36 36 36 36 36 36 36 36 36 36 36 36 36 36 36 36 36 36 36 36
36 36 36 36 36 36 36 36 36 36 36 36 36 36 36 36 36 36 36 36 36 36 36 36 36 36 36 36 36 36 36 36
36 36 36 36 36 36 36 36 36 36 36 36 36 36 36 36 36 36 54 55 36 36 36 36 36 36 36 36 36 36 36 36
36 36 36 36 36 36 36 36 36 36 36 36 36 36 36 36 36 53 37 37 56 36 36 36 36 36 36 36 36 36 36 36
36 36 36 36 36 36 36 36 36 36 36 36 36 36 36 36 36 57 58 59 60 36 36 36 36 36 36 36 36 36 36 36
36 36 36 36 36 36 36 36 36 36 36 36 36 36 36 36 36 36 36 36 36 36 36 36 36 36 36 36 36 36 36 36
36 36 36 36 36 36 36 36 36 36 36 36 36 36 36 36 36 36 36 36 36 36 36 36 36 36 83 84 36 36 36 36
36 36 36 36 36 36 36 36 36 36 36 36 36 36 36 36 36 36 36 36 36 36 36 36 36 36 85 86 36 36 36 36
36 36 36 36 36 36 36 36 36 36 36 36 36 36 36 36 36 36 36 36 36 36 36 36 36 36 36 36 36 36 36 36
36 36 36 36 36 36 36 36 36 36 36 36 36 36 36 36 36 36 36 36 36 36 36 36 36 36 36 36 36 36 36 36
36 36 36 36 36 36 36 36 36 36 36 36 36 36 36 36 36 36 36 36 36 36 36 36 36 36 36 36 36 36 36 36
36 36 36 36 36 36 36 36 36 36 36 36 36 36 36 36 36 36 36 36 36 36 36 36 36 36 36 36 36 36 36 36
36 36 36 36 36 36 36 36 36 36 36 36 36 36 36 36 36 36 36 36 36 36 36 36 36 36 36 36 36 36 36 36
36 36 36 36 36 36 36 36 36 36 36 36 36 36 36 36 36 36 36 36 36 36 36 36 36 36 36 36 36 36 36 36
36 36 36 36 36 36 36 36 69 69 69 69 36 36 36 36 36 36 36 36 83 84 36 36 36 36 83 84 36 36 36 36
36 36 36 36 36 36 36 36 71 71 71 71 36 36 36 36 36 36 36 36 85 86 36 36 36 36 85 86 36 36 36 36
36 36 36 36 36 36 36 36 36 36 36 36 36 36 36 36 36 36 36 36 36 36 36 36 36 36 36 36 36 36 36 36
36 36 36 36 49 50 36 36 36 36 36 36 36 36 36 36 36 36 36 36 36 36 36 36 36 36 36 36 36 36 36 36
36 36 36 48 38 52 51 36 36 36 36 36 36 36 36 36 36 36 36 36 36 36 36 36 36 36 36 36 36 36 36 36
36 36 48 38 38 38 38 51 36 36 36 36 36 36 36 36 36 36 36 36 36 36 36 36 36 36 36 36 36 36 36 36
36 48 38 52 38 38 52 38 51 36 36 36 36 36 36 36 36 36 36 36 36 36 36 36 54 55 54 55 54 55 36 36
48 38 38 38 38 38 38 38 38 51 36 36 36 36 36 36 36 36 36 36 36 36 36 53 37 37 37 37 37 37 56 36
180 181 180 181 180 181 180 181 180 181 180 181 180 181 180 181 180 181 180 181 180 181 180 181 180 181 180 181 180 181 180 181
182 183 182 183 182 183 182 183 182 183 182 183 182 183 182 183 182 183 182 183 182 183 182 183 182 183 182 183 182 183 182 183
180 181 180 181 180 181 180 181 180 181 180 181 180 181 180 181 180 181 180 181 180 181 180 181 180 181 180 181 180 181 180 181
182 183 182 183 182 183 182 183 182 183 182 183 182 183 182 183 182 183 182 183 182 183 182 183 182 183 182 183 182 183 182 183
170 170 234 170 170 170 170 170 0 0 0 0 160 32 0 0 0 0 0 0 10 2 192 0 0 0 0 0 0 0 0 0
0 0 80 0 0 48 192 0 0 0 0 0 0 0 0 0 80 80 80 80 80 80 80 80 5 5 5 5 5 5 5 5
36 36 36 36 36 36 36 36 36 36 36 36 36 36 36 36 36 36 36 36 36 36 36 36 36 36 36 36 36 36 36 36
36 36 36 36 36 36 36 36 36 36 36 36 36 36 36 36 36 36 36 36 36 36 36 36 36 36 36 36 36 36 36 36
36 36 36 36 36 36 36 36 36 36 36 36 36 36 36 36 36 36 36 36 36 36 36 36 36 36 36 36 36 36 36 36
36 36 36 36 36 36 36 36 36 36 36 36 36 36 36 36 36 36 36 36 36 36 36 36 36 36 36 36 36 36 36 36
36 36 36 36 36 36 36 36 54 55 36 36 36 36 36 36 36 36 36 36 36 36 36 36 36 36 36 36 36 36 36 36
36 36 36 36 36 36 36 53 37 37 56 36 36 36 36 36 36 36 36 36 36 36 36 36 36 36 36 36 36 36 36 36
36 36 36 36 36 36 36 57 58 59 60 36 36 36 36 36 36 36 36 36 36 36 36 36 36 36 36 36 36 36 36 36
36 36 36 36 36 36 36 36 36 36 36 36 36 36 36 36 36 36 36 36 36 36 36 36 36 36 36 36 36 36 36 36
36 36 36 36 36 36 36 36 36 36 36 36 36 36 36 36 36 36 36 36 36 36 36 36 36 36 36 36 36 36 36 36
36 36 36 36 36 36 36 36 36 36 36 36 36 36 36 36 36 36 36 36 36 36 36 36 36 36 36 36 36 36 36 36
36 36 36 36 36 36 36 36 36 36 36 36 36 36 36 36 36 36 36 36 36 36 69 69 69 69 69 69 83 84 36 36
36 36 36 36 36 36 36 36 36 36 36 36 36 36 36 36 36 36 36 36 36 36 71 71 71 71 71 71 85 86 36 36
36 36 36 36 36 36 36 36 36 36 36 36 36 36 36 36 36 36 36 36 36 36 36 36 36 36 36 36 36 36 36 36
36 36 36 36 36 36 36 36 36 36 36 36 36 36 36 36 36 36 36 36 36 36 36 36 36 36 36 36 36 36 36 36
36 36 36 36 36 36 36 36 36 36 36 36 36 36 36 36 36 36 36 36 36 36 36 36 36 36 36 36 36 36 36 36
36 36 36 36 36 36 36 36 36 36 36 36 36 36 36 36 36 36 36 36 36 36 36 36 36 36 36 36 36 36 36 36
36 36 36 36 36 36 36 36 36 36 36 36 36 36 36 36 36 36 36 36 36 36 36 36 36 36 36 36 36 36 36 36
36 36 36 36 36 36 36 36 36 36 36 36 36 36 36 36 36 36 36 36 36 36 36 36 36 36 36 36 36 36 36 36
83 84 36 36 36 36 36 36 36 36 36 36 69 69 36 36 36 36 36 36 36 36 36 36 36 36 36 36 69 69 36 36
85 86 36 36 36 36 36 36 36 36 36 36 71 71 36 36 36 36 36 36 36 36 36 36 36 36 36 36 71 71 36 36
36 36 36 36 36 36 36 36 36 36 36 36 36 36 36 36 36 36 36 36 36 36 36 36 36 36 36 36 36 36 36 36
36 36 36 36 36 36 36 36 36 36 36 36 36 36 36 36 36 36 36 36 36 36 36 36 36 36 36 36 36 36 36 36
36 36 36 36 36 36 36 36 36 36 36 36 36 36 36 36 36 36 36 36 36 36 36 36 36 36 36 36 36 36 36 36
36 36 49 50 36 36 36 36 36 36 36 36 36 36 36 36 36 36 36 36 36 36 36 36 36 36 36 36 36 36 36 36
36 48 38 52 51 36 36 36 36 36 36 36 36 36 36 36 36 36 36 36 54 55 54 55 36 36 36 36 36 36 36 36
48 38 38 38 38 51 36 36 36 36 36 36 36 36 36 53 36 36 36 53 37 37 37 37 56 36 36 36 36 36 36 36
180 181 180 181 180 181 180 181 180 181 180 181 180 181 180 181 36 36 180 181 180 181 180 181 180 181 180 181 180 181 180 181
182 183 182 183 182 183 182 183 182 183 182 183 182 183 182 183 36 36 182 183 182 183 182 183 182 183 182 183 182 183 182 183
180 181 180 181 180 181 180 181 180 181 180 181 180 181 180 181 36 36 180 181 180 181 180 181 180 181 180 181 180 181 180 181
182 183 182 183 182 183 182 183 182 183 182 183 182 183 182 183 36 36 182 183 182 183 182 183 182 183 182 183 182 183 182 183
0 0 0 0 0 0 0 0 0 136 170 0 0 0 0 0 0 0 0 0 0 64 80 48 0 0 0 0 0 0 0 0
48 0 0 16 0 0 0 16 0 0 0 0 0 0 0 0 80 80 80 80 64 80 80 80 5 5 5 5 4 5 5 5
