P2
# Generated from nova_ntable.dmp by nesnt2pgm https://github.com/felipe-m/img_rom
32 60
255
48 63 48 63 48 63 48 63 48 63 48 63 48 63 48 63 48 63 48 63 112 113 113 113 113 113 113 113 113 113 113 113
63 48 63 48 63 48 63 48 63 48 63 48 63 48 63 48 63 48 63 48 96 119 119 119 119 119 119 119 119 119 119 119
48 63 48 63 48 63 48 63 48 63 48 63 48 63 48 63 48 63 48 63 57 57 57 57 57 57 57 57 57 57 57 57
63 48 63 48 63 48 63 48 63 48 63 48 63 48 63 48 63 48 63 48 63 63 63 63 63 63 63 63 63 63 63 63
63 63 63 63 63 63 63 63 63 63 63 63 63 63 63 63 63 63 63 63 63 63 63 63 63 63 4 6 63 63 20 22
63 63 63 63 63 63 63 63 63 63 63 63 63 63 63 63 63 63 63 63 63 63 63 63 63 63 5 7 63 63 21 23
63 63 63 63 63 63 63 63 63 63 63 63 63 63 63 63 63 63 63 63 63 63 63 63 63 63 63 63 63 63 63 63
63 63 63 63 63 63 63 63 63 63 63 63 63 63 63 63 63 63 63 63 63 63 63 63 63 63 63 63 63 63 63 63
63 63 63 63 63 63 63 63 63 63 63 63 63 63 63 63 63 63 63 63 12 14 63 63 63 63 63 63 63 63 63 63
63 63 63 63 63 63 63 63 63 63 63 63 63 63 63 63 63 63 63 63 13 15 63 63 63 63 63 63 63 63 63 63
63 63 63 63 63 63 63 63 63 63 63 63 63 63 63 63 63 63 63 63 87 88 88 88 88 88 88 88 88 88 88 88
63 63 63 63 63 63 63 63 63 63 63 63 63 63 63 63 63 63 63 63 63 63 63 63 63 63 63 63 63 63 63 63
63 63 63 63 63 63 63 63 63 63 63 63 63 63 63 63 63 63 63 63 63 63 63 63 63 63 63 63 63 63 63 63
63 63 63 63 63 63 63 63 63 63 63 63 63 63 63 63 63 63 63 63 63 63 63 63 63 63 63 63 63 63 63 63
63 63 63 63 63 63 63 63 63 63 63 63 63 63 63 63 63 63 63 63 63 63 63 63 63 63 63 63 63 63 63 63
63 63 63 63 63 63 63 63 63 63 63 63 63 63 63 63 63 63 63 63 63 63 63 63 63 63 63 63 63 63 63 63
63 63 63 63 63 63 63 63 63 63 63 63 63 63 63 63 63 63 63 63 63 63 63 63 63 63 63 63 63 63 63 63
63 63 63 63 63 63 63 63 63 63 63 63 63 63 63 63 63 63 63 63 63 63 63 63 63 63 63 63 63 63 63 63
63 63 63 63 63 63 63 63 63 63 63 63 63 63 63 63 0 2 0 2 0 2 4 6 0 2 0 2 4 6 0 2
63 63 63 63 63 63 63 63 63 63 63 63 63 63 63 63 1 3 1 3 1 3 5 7 1 3 1 3 5 7 1 3
63 63 63 63 63 63 63 63 63 63 63 63 63 63 63 63 63 63 63 63 63 63 63 63 63 63 63 63 63 63 63 63
63 63 63 63 63 63 63 63 63 63 63 63 63 63 63 63 63 63 63 63 63 63 63 63 63 63 63 63 63 63 63 63
63 63 63 63 63 63 63 63 63 63 63 63 63 63 63 63 63 63 63 63 63 63 63 63 63 63 63 63 63 63 63 63
63 63 63 63 63 63 63 63 63 63 63 63 63 63 63 63 197 214 197 214 197 214 197 214 197 214 197 214 197 214 197 214
63 63 63 63 28 30 63 63 63 63 63 63 63 63 63 63 199 201 199 201 199 201 199 201 199 201 199 201 199 201 199 201
63 63 63 63 29 31 63 63 63 63 63 63 63 63 63 63 215 217 215 217 215 217 215 217 215 217 215 217 215 217 215 217
112 113 113 113 113 113 113 113 113 113 113 113 113 113 113 113 113 113 113 113 113 113 113 113 113 113 113 113 113 113 113 113
96 119 119 119 119 119 119 119 119 119 119 119 119 119 119 119 119 119 119 119 119 119 119 119 119 119 119 119 119 119 119 119
96 115 115 115 115 115 115 115 115 115 115 115 115 115 115 115 115 115 115 115 115 115 115 115 115 115 115 115 115 115 115 115
96 115 115 115 115 115 115 115 115 115 115 115 115 115 115 115 115 115 115 115 115 115 115 115 115 115 115 115 115 115 115 115
113 113 113 113 113 113 113 113 113 114 16 17 12 14 48 63 48 63 48 63 48 63 48 63 48 63 48 63 48 63 48 63
119 119 119 119 119 119 119 119 119 97 16 17 13 15 63 48 63 48 63 48 63 48 63 48 63 48 63 48 63 48 63 48
57 57 57 57 57 57 57 57 57 57 16 17 12 14 48 63 48 63 48 63 48 63 48 63 48 63 48 63 48 63 48 63
63 63 63 63 63 63 63 63 63 63 16 17 13 15 63 48 63 48 63 48 63 48 63 48 63 48 63 48 63 48 63 48
20 22 20 22 20 22 63 63 63 63 16 17 12 14 63 63 63 63 63 63 63 63 63 63 63 63 63 63 63 63 63 63
21 23 21 23 21 23 63 63 63 63 16 17 13 15 63 63 63 63 63 63 63 63 63 63 63 63 63 63 63 63 63 63
63 63 63 63 63 63 63 63 63 63 16 17 12 14 63 63 63 63 63 63 63 63 63 63 63 63 63 63 63 63 63 63
63 63 63 63 63 63 63 63 63 63 16 17 13 15 63 63 63 63 63 63 63 63 63 63 63 63 63 63 63 63 63 63
63 63 12 14 12 14 12 14 12 14 12 14 12 14 63 63 63 63 63 63 63 63 63 63 63 63 63 63 63 63 63 63
63 63 13 15 13 15 13 15 13 15 13 15 13 15 63 63 63 63 63 63 63 63 63 63 63 63 63 63 63 63 63 63
88 88 88 89 63 63 63 63 63 63 63 63 63 63 63 63 63 63 63 63 63 63 63 63 63 63 20 22 20 22 20 22
63 63 63 63 63 63 63 63 63 63 63 63 63 63 63 63 63 63 63 63 63 63 63 63 63 63 21 23 21 23 21 23
63 63 63 63 63 63 63 63 63 63 63 63 63 63 63 63 63 63 63 63 63 63 63 63 63 63 63 63 63 63 63 63
63 63 63 63 63 63 63 63 63 63 63 63 63 63 63 63 63 63 63 63 63 63 63 63 63 63 63 63 63 63 63 63
63 63 63 63 63 63 63 63 63 63 63 63 63 63 63 63 63 63 63 63 63 63 63 63 87 88 88 88 88 88 88 88
63 63 63 63 63 63 63 63 63 63 63 63 63 63 63 63 63 63 63 63 63 63 63 63 63 63 63 63 63 63 63 63
63 63 63 63 63 63 63 63 63 63 63 63 63 63 63 63 63 63 63 63 63 63 63 63 63 63 63 63 63 63 63 63
63 63 63 63 63 63 63 63 63 63 63 63 63 63 63 63 63 63 63 63 63 63 63 63 63 63 63 63 63 63 63 63
63 63 63 63 63 63 63 63 63 63 63 63 220 221 204 205 63 63 63 63 63 63 63 63 63 63 63 63 63 63 63 63
63 63 63 63 63 63 63 63 63 63 63 63 218 219 218 219 63 63 24 25 63 63 63 63 63 63 63 63 63 63 63 63
63 63 63 63 63 63 63 63 63 63 112 113 113 113 113 113 113 113 113 113 113 114 63 63 63 63 63 63 63 63 63 63
63 63 63 63 63 63 63 63 63 63 96 119 119 119 119 119 119 119 119 119 119 97 63 63 63 63 63 63 63 63 63 63
63 63 63 63 63 63 63 63 63 63 96 115 115 115 115 115 115 115 115 115 115 97 63 63 63 63 63 63 63 63 63 63
197 214 63 63 63 63 63 63 63 63 96 115 115 115 115 115 115 115 115 115 115 97 63 63 63 63 63 63 63 63 63 63
199 201 63 63 63 63 63 63 63 63 96 115 115 115 115 115 115 115 115 115 115 97 63 63 63 63 63 63 63 63 63 63
215 217 63 63 63 63 63 63 24 25 96 115 115 115 115 115 115 115 115 115 115 97 63 63 63 63 63 63 63 63 63 63
113 113 113 113 113 113 113 113 113 113 96 115 115 115 115 115 115 115 115 115 115 97 63 63 63 63 63 63 63 63 63 63
119 119 119 119 119 119 119 119 119 119 115 115 115 115 115 115 115 115 115 115 115 97 63 63 63 63 63 63 63 63 63 63
115 115 115 115 115 115 115 115 115 115 115 115 115 115 115 115 115 115 115 115 115 97 63 63 63 63 63 63 63 63 63 63
115 115 115 115 115 115 115 115 115 115 115 115 115 115 115 115 115 115 115 115 115 97 63 63 63 63 63 63 63 63 63 63
