P2
# Generated from sprilo_racet1.bin by nesnt2pgm https://github.com/felipe-m/img_rom
32 30
255
250 250 250 234 250 250 250 250 250 250 250 250 250 250 234 250 250 250 250 250 250 250 250 250 250 250 250 250 250 250 250 250
250 231 251 251 251 251 251 251 251 251 251 251 251 251 251 251 251 251 251 251 251 251 232 250 250 233 249 233 250 250 233 250
234 252 255 255 255 255 255 255 255 255 255 255 255 255 255 255 255 255 255 255 255 255 236 250 250 250 250 250 250 233 250 250
250 252 255 255 255 255 253 255 253 255 253 255 253 255 253 255 253 255 253 255 255 255 236 250 250 250 250 250 250 250 250 250
233 252 255 255 255 255 253 255 253 255 253 255 253 255 253 255 253 255 253 255 255 255 236 233 250 250 234 250 249 250 250 250
250 252 255 255 255 255 255 255 255 255 255 255 255 255 255 255 255 255 255 255 255 255 245 251 251 251 251 251 251 251 232 250
250 252 255 255 255 255 229 235 235 235 235 235 235 235 235 235 235 230 255 254 254 255 255 255 255 255 255 255 255 255 236 250
250 252 255 254 254 255 236 250 250 249 250 250 250 250 250 250 250 252 255 255 255 255 253 255 253 255 253 255 255 255 236 250
250 252 255 255 255 255 236 250 250 250 250 250 250 250 250 250 250 252 255 255 255 255 253 255 253 255 253 255 255 255 236 250
250 252 255 254 254 255 236 250 250 233 250 233 250 250 233 250 250 252 255 255 255 255 255 255 255 255 255 255 255 255 236 250
250 252 255 255 255 255 236 250 250 250 250 233 250 250 250 250 250 247 235 235 235 235 235 235 235 230 255 255 255 255 236 250
250 252 255 254 254 255 236 250 250 250 250 250 250 250 250 250 250 250 250 250 250 250 250 233 250 252 255 254 254 255 236 250
233 252 255 255 255 255 236 250 250 250 250 250 250 250 250 233 250 233 250 250 250 250 250 250 250 252 255 255 255 255 236 250
250 252 255 254 254 255 236 250 249 250 250 233 250 250 250 250 250 250 250 231 251 251 251 251 251 246 255 254 254 255 236 233
250 252 255 255 255 255 236 250 250 250 233 250 250 250 250 250 233 250 250 252 255 255 255 255 255 255 255 255 255 255 236 250
234 252 255 254 254 255 245 251 251 251 251 251 232 250 250 250 233 250 250 252 255 255 255 255 253 255 253 255 255 255 236 250
250 252 255 255 255 255 255 255 255 255 255 255 236 250 250 250 250 250 250 252 255 255 255 255 253 255 253 255 255 255 236 234
250 252 255 255 255 255 253 255 253 255 255 255 236 250 250 250 250 250 250 252 255 254 254 255 255 255 255 255 255 255 236 250
250 252 255 255 255 255 253 255 253 255 255 255 236 250 250 233 250 250 250 252 255 255 255 255 229 235 235 235 235 235 248 250
250 252 255 255 255 255 255 255 255 255 255 255 236 250 250 250 250 250 250 252 255 254 254 255 245 251 251 251 251 251 232 250
250 247 235 235 235 235 235 230 255 255 255 255 236 250 250 233 250 250 250 252 255 255 255 255 255 255 255 255 255 255 236 250
250 250 234 233 250 250 250 252 255 254 254 255 236 250 250 250 250 233 250 252 255 255 255 255 255 255 255 255 255 255 236 250
250 250 250 250 250 250 233 252 255 255 255 255 236 250 250 250 250 250 250 247 235 235 235 235 235 230 255 255 255 255 236 250
250 250 233 250 250 250 250 252 255 254 254 255 245 251 251 251 251 251 251 251 251 251 251 251 251 246 255 254 254 255 236 250
250 250 250 250 250 250 250 252 255 255 255 255 255 255 255 255 255 255 239 255 255 255 255 255 255 255 255 255 255 255 236 233
234 250 250 233 233 250 250 252 255 255 255 255 253 255 253 255 253 255 239 255 253 255 253 255 253 255 255 255 255 255 236 250
250 250 250 250 250 250 250 252 255 255 255 255 253 255 253 255 253 255 239 255 253 255 253 255 253 255 255 255 255 255 236 250
250 250 250 234 250 250 250 252 255 255 255 255 255 255 255 255 255 255 239 255 255 255 255 255 255 255 255 255 255 255 236 250
250 250 249 250 250 234 250 247 235 235 235 235 235 235 235 235 235 235 235 235 235 235 235 235 235 235 235 235 235 235 248 250
250 249 250 250 250 250 250 250 250 250 250 250 250 250 250 250 250 250 250 250 250 233 250 250 250 250 250 250 234 250 250 250
