P3
# Created by IrfanView
16 256
255
255 255 255 255 255 255 255 255 255 255 255 255 255 255 255 
255 0 0 255 0 0 255 0 0 255 0 0 255 0 0 
255 255 255 255 255 255 255 255 255 255 255 255 255 255 255 
255 255 255 255 255 255 255 255 255 255 255 255 255 255 255 
255 0 0 255 0 0 255 0 0 255 0 0 255 0 0 
255 0 0 255 0 0 255 0 0 255 0 0 255 255 255 
255 255 255 255 255 255 255 255 255 255 255 255 255 255 255 
255 255 255 0 0 0 0 0 0 0 0 0 255 255 0 
255 255 0 0 0 0 255 255 0 255 255 255 255 255 255 
255 255 255 255 255 255 255 255 255 255 255 255 255 255 255 
255 255 255 0 0 0 255 255 0 0 0 0 255 255 0 
255 255 0 255 255 0 0 0 0 255 255 0 255 255 0 
255 255 0 255 255 255 255 255 255 255 255 255 255 255 255 
255 255 255 255 255 255 0 0 0 255 255 0 0 0 0 
0 0 0 255 255 0 255 255 0 255 255 0 0 0 0 
255 255 0 255 255 0 255 255 0 255 255 255 255 255 255 
255 255 255 255 255 255 255 255 255 0 0 0 0 0 0 
255 255 0 255 255 0 255 255 0 255 255 0 0 0 0 
0 0 0 0 0 0 0 0 0 255 255 255 255 255 255 
255 255 255 255 255 255 255 255 255 255 255 255 255 255 255 
255 255 255 255 255 0 255 255 0 255 255 0 255 255 0 
255 255 0 255 255 0 255 255 0 255 255 0 255 255 255 
255 255 255 255 255 255 255 255 255 255 255 255 255 255 255 
255 255 255 0 0 255 0 0 255 255 0 0 0 0 255 
0 0 255 0 0 255 255 255 255 255 255 255 255 255 255 
255 255 255 255 255 255 255 255 255 255 255 255 255 255 255 
255 255 255 0 0 255 0 0 255 0 0 255 255 0 0 
0 0 255 0 0 255 255 0 0 0 0 255 0 0 255 
0 0 255 255 255 255 255 255 255 255 255 255 255 255 255 
255 255 255 0 0 255 0 0 255 0 0 255 0 0 255 
255 0 0 255 0 0 255 0 0 255 0 0 0 0 255 
0 0 255 0 0 255 0 0 255 255 255 255 255 255 255 
255 255 255 255 255 255 255 255 0 255 255 0 0 0 255 
255 0 0 0 255 255 255 0 0 255 0 0 0 255 255 
255 0 0 0 0 255 255 255 0 255 255 0 255 255 255 
255 255 255 255 255 255 255 255 255 255 255 0 255 255 0 
255 255 0 255 0 0 255 0 0 255 0 0 255 0 0 
255 0 0 255 0 0 255 255 0 255 255 0 255 255 0 
255 255 255 255 255 255 255 255 255 255 255 255 255 255 0 
255 255 0 255 0 0 255 0 0 255 0 0 255 0 0 
255 0 0 255 0 0 255 0 0 255 0 0 255 255 0 
255 255 0 255 255 255 255 255 255 255 255 255 255 255 255 
255 255 255 255 255 255 255 0 0 255 0 0 255 0 0 
255 255 255 255 255 255 255 0 0 255 0 0 255 0 0 
255 255 255 255 255 255 255 255 255 255 255 255 255 255 255 
255 255 255 255 255 255 0 255 0 0 255 0 0 255 0 
255 255 255 255 255 255 255 255 255 255 255 255 0 255 0 
0 255 0 0 255 0 255 255 255 255 255 255 255 255 255 
255 255 255 255 255 255 0 255 0 0 255 0 0 255 0 
0 255 0 255 255 255 255 255 255 255 255 255 255 255 255 
0 255 0 0 255 0 0 255 0 0 255 0 255 255 255 
255 255 255 255 255 255 255 255 255 255 255 255 255 255 255 
255 255 255 255 0 0 255 0 0 255 0 0 255 0 0 
255 0 0 255 255 255 255 255 255 255 255 0 255 255 0 
255 255 0 255 255 255 255 255 255 255 255 255 255 255 255 
255 255 255 255 0 0 255 0 0 255 0 0 255 0 0 
255 0 0 255 0 0 255 0 0 255 0 0 255 0 0 
255 255 0 255 255 0 255 255 255 255 255 255 255 255 255 
255 255 255 255 255 255 0 0 0 0 0 0 0 0 0 
255 255 0 255 255 0 0 0 0 255 255 0 255 255 255 
0 0 255 0 0 255 0 0 255 255 255 255 255 255 255 
255 255 255 255 255 255 0 0 0 255 255 0 0 0 0 
255 255 0 255 255 0 255 255 0 0 0 0 255 255 0 
255 255 0 255 255 0 0 0 255 0 0 255 255 255 255 
255 255 255 255 255 255 255 255 255 0 0 0 255 255 0 
0 0 0 0 0 0 255 255 0 255 255 0 255 255 0 
0 0 0 255 255 0 255 255 0 255 255 0 0 0 255 
255 255 255 255 255 255 255 255 255 255 255 255 0 0 0 
0 0 0 255 255 0 255 255 0 255 255 0 255 255 0 
0 0 0 0 0 0 0 0 0 0 0 0 0 0 255 
255 255 255 255 255 255 255 255 255 255 255 255 255 255 255 
255 255 255 255 255 255 255 255 0 255 255 0 255 255 0 
255 255 0 255 255 0 255 255 0 255 255 0 0 0 255 
0 0 255 255 255 255 255 255 255 255 255 255 255 255 255 
0 0 255 0 0 255 0 0 255 0 0 255 255 0 0 
0 0 255 0 0 255 0 0 255 255 0 0 0 0 255 
0 0 255 255 255 255 255 255 255 0 255 0 255 255 0 
255 255 0 0 0 255 0 0 255 0 0 255 0 0 255 
0 0 255 255 0 0 0 0 255 0 0 255 0 0 255 
255 0 0 255 255 255 255 255 255 0 255 0 0 255 0 
255 255 0 255 255 0 255 255 0 0 0 255 0 0 255 
0 0 255 0 0 255 255 0 0 255 0 0 255 0 0 
255 0 0 0 255 255 255 0 0 255 0 0 0 255 0 
0 255 0 255 255 255 255 255 0 255 255 255 255 255 255 
255 0 0 0 0 255 255 0 0 255 0 0 0 255 255 
255 0 0 255 0 0 255 0 0 255 0 0 255 0 0 
0 255 0 0 255 0 255 255 255 255 255 255 0 255 0 
0 255 0 0 255 0 255 0 0 255 0 0 255 0 0 
255 0 0 255 0 0 255 0 0 255 0 0 255 0 0 
255 0 0 0 255 0 0 255 0 255 255 255 0 255 0 
0 255 0 0 255 0 255 0 0 255 0 0 255 0 0 
255 0 0 255 0 0 255 0 0 255 0 0 255 255 255 
255 255 255 255 255 255 255 255 255 255 255 255 255 255 255 
0 255 0 0 255 0 255 255 255 255 255 255 255 255 255 
255 255 255 255 255 255 255 255 255 255 255 255 255 255 255 
255 255 255 255 255 255 255 255 255 255 255 255 255 255 255 
255 255 255 255 255 255 255 255 255 255 255 255 255 255 255 
255 255 255 255 255 255 255 255 255 255 255 255 255 255 255 
255 255 255 255 255 255 255 255 255 255 255 255 255 255 255 
255 255 255 255 255 255 255 255 255 255 255 255 255 255 255 
255 255 255 255 255 255 255 255 255 255 255 255 255 255 255 
255 255 255 255 255 255 255 255 255 255 255 255 255 255 255 
255 255 255 255 255 255 255 255 255 255 255 0 255 255 0 
255 255 0 255 255 255 255 255 255 255 255 255 255 255 255 
255 255 255 255 255 255 255 255 255 255 255 255 255 255 0 
255 255 0 255 255 0 255 255 255 255 255 255 255 255 0 
255 255 0 255 255 0 255 255 255 255 0 0 255 0 0 
255 0 0 255 0 0 255 0 0 255 0 0 255 255 255 
255 255 0 255 255 0 255 255 0 255 255 255 255 255 255 
255 255 0 255 255 0 255 255 0 255 255 0 255 0 0 
255 0 0 255 0 0 255 0 0 255 0 0 255 0 0 
255 255 0 255 255 0 255 255 0 255 255 0 255 255 255 
255 255 255 0 0 255 0 0 255 0 0 255 0 0 0 
255 255 0 0 0 0 255 255 0 255 255 0 0 0 0 
255 255 0 0 0 0 0 0 255 0 0 255 0 0 255 
255 255 255 255 255 255 0 0 255 0 0 255 0 0 255 
255 255 0 255 255 0 0 0 0 255 255 0 255 255 0 
0 0 0 255 255 0 255 255 0 0 0 255 0 0 255 
0 0 255 255 255 255 255 255 255 255 255 255 0 0 255 
0 0 255 0 0 255 0 0 0 255 255 0 255 255 0 
255 255 0 255 255 0 0 0 0 0 0 0 0 0 255 
0 0 255 255 255 255 255 255 255 255 255 255 255 255 255 
0 0 255 0 0 255 0 0 255 0 0 0 0 0 0 
255 255 0 255 255 0 0 0 0 0 0 0 0 0 255 
0 0 255 0 0 255 255 255 255 255 255 255 255 255 255 
255 255 255 0 0 255 0 0 255 0 0 255 255 255 0 
0 0 0 0 0 0 0 0 0 0 0 0 255 255 0 
0 0 255 0 0 255 0 0 255 255 255 255 255 255 255 
255 255 255 255 255 255 255 255 255 0 0 255 0 0 255 
255 255 0 255 255 0 255 255 0 255 255 0 255 255 0 
255 255 0 0 0 255 0 0 255 255 255 255 255 255 255 
255 255 255 0 255 0 255 255 255 255 255 255 0 0 255 
0 0 255 0 0 255 255 0 0 0 0 255 0 0 255 
255 0 0 0 0 255 0 0 255 0 0 255 255 255 255 
255 255 255 0 255 0 0 255 0 0 255 0 255 255 255 
255 255 255 0 0 255 0 0 255 255 0 0 0 0 255 
0 0 255 255 0 0 0 0 255 0 0 255 255 255 255 
255 255 255 0 255 0 0 255 0 0 255 0 0 255 0 
255 0 0 255 0 0 0 0 255 0 0 255 255 0 0 
255 0 0 255 0 0 255 0 0 0 0 255 0 0 255 
255 0 0 255 0 0 0 255 0 0 255 0 0 255 0 
0 255 0 255 0 0 255 0 0 255 0 0 255 0 0 
0 255 255 255 0 0 255 0 0 0 255 255 255 0 0 
255 0 0 255 0 0 255 0 0 0 255 0 0 255 0 
0 255 0 0 255 0 255 0 0 255 0 0 255 0 0 
255 0 0 255 0 0 255 0 0 255 0 0 255 0 0 
255 0 0 255 0 0 255 0 0 255 0 0 0 255 0 
0 255 0 255 255 255 255 255 255 255 255 255 255 255 255 
255 255 255 255 255 255 255 255 255 255 255 255 255 255 255 
255 255 255 255 255 255 255 255 255 255 255 255 255 255 255 
255 255 255 255 255 255 255 255 255 255 255 255 255 255 255 
255 255 255 255 255 255 255 255 255 255 255 255 255 255 255 
255 255 255 255 255 255 255 255 255 255 255 255 255 255 255 
255 255 255 255 255 255 255 255 255 255 255 255 255 255 255 
255 255 255 255 255 255 255 255 255 255 255 255 255 255 255 
255 255 255 255 255 255 255 255 255 255 255 255 255 255 255 
255 255 255 255 255 255 255 255 255 255 255 255 255 255 255 
255 255 255 255 255 255 255 255 255 255 255 255 255 255 255 
255 255 255 255 255 255 255 255 255 255 255 255 255 255 255 
255 255 255 255 255 255 255 255 255 255 255 255 255 255 255 
255 255 255 255 255 255 255 255 255 255 255 255 255 255 255 
255 255 255 255 255 0 255 255 0 255 255 0 255 255 0 
255 255 0 255 255 255 255 255 255 255 255 255 255 255 255 
255 255 255 255 255 255 255 255 255 255 255 255 255 255 255 
255 255 0 255 255 0 255 255 0 255 255 0 255 255 0 
255 255 0 255 255 0 255 255 0 255 255 0 255 255 255 
255 255 255 255 255 255 255 255 255 255 255 255 255 255 255 
255 255 0 255 255 0 255 255 0 255 255 0 255 255 255 
255 255 0 255 255 0 255 255 0 255 255 0 255 255 0 
255 255 0 255 255 255 255 255 255 255 255 255 255 255 255 
255 255 255 255 255 0 255 255 0 255 255 0 255 255 0 
255 255 0 255 255 0 255 255 0 255 255 0 255 255 0 
255 255 0 255 255 0 255 255 255 255 255 255 255 255 255 
255 255 255 255 255 0 255 255 0 255 255 0 255 255 0 
255 255 0 255 255 0 255 255 0 255 255 0 255 255 0 
255 255 0 255 255 255 255 255 255 255 255 255 255 255 255 
255 255 255 255 255 255 255 255 0 255 255 0 255 255 0 
255 255 0 255 255 0 255 255 0 255 255 0 255 255 255 
255 255 255 255 255 255 255 255 255 255 255 255 255 255 255 
255 255 255 255 255 255 255 255 255 255 255 0 255 255 0 
255 255 0 255 255 0 255 255 255 255 255 255 255 255 255 
255 255 255 255 255 255 255 255 255 255 255 255 255 255 255 
255 255 255 255 255 255 255 255 255 255 255 255 255 255 0 
255 255 0 255 255 0 255 255 0 255 255 0 255 255 0 
255 255 0 255 255 255 255 255 255 255 255 255 255 255 255 
255 255 255 255 255 255 255 255 255 255 255 255 255 255 255 
255 255 0 255 255 0 255 255 0 255 255 0 255 255 0 
255 255 0 255 255 0 255 255 0 255 255 0 255 255 0 
255 255 255 255 255 255 255 255 255 255 255 255 255 255 255 
255 255 255 255 255 255 255 255 0 255 255 0 255 255 0 
255 255 0 255 255 0 255 255 0 255 255 0 255 255 0 
255 255 0 255 255 0 255 255 0 255 255 255 255 255 255 
255 255 255 255 255 255 255 255 255 255 255 0 255 255 0 
255 255 0 255 255 0 255 255 0 255 255 0 255 255 0 
255 255 0 255 255 0 255 255 0 255 255 0 255 255 255 
255 255 255 255 255 255 255 255 255 255 255 255 255 255 255 
255 255 0 255 255 0 255 255 0 255 255 0 255 255 0 
255 255 0 255 255 0 255 255 0 255 255 0 255 255 255 
255 255 255 255 255 255 255 255 255 255 255 255 255 255 255 
255 255 255 255 255 255 255 255 255 255 255 0 255 255 0 
255 255 0 255 255 0 255 255 0 255 255 255 255 255 255 
255 255 255 255 255 255 255 255 255 255 255 255 255 255 255 
255 255 255 255 255 255 255 255 255 255 255 255 255 255 255 
255 255 255 255 255 255 255 255 255 255 255 255 255 255 255 
255 255 255 255 255 255 255 255 255 255 255 255 238 238 238 
238 238 238 238 238 238 238 238 238 238 238 238 238 238 238 
238 238 238 238 238 238 238 238 238 238 238 238 238 238 238 
238 238 238 238 238 238 238 238 238 238 238 238 238 238 238 
238 238 238 238 238 238 238 238 238 238 238 238 238 238 238 
238 238 238 255 0 0 255 0 0 255 0 0 255 0 0 
238 238 238 238 238 238 238 238 238 238 238 238 238 238 238 
238 238 238 238 238 238 238 238 238 238 238 238 238 238 238 
255 0 0 255 0 0 255 0 0 255 0 0 255 0 0 
255 0 0 255 0 0 255 0 0 238 238 238 238 238 238 
238 238 238 238 238 238 238 238 238 238 238 238 238 238 238 
255 0 0 255 0 0 255 0 0 255 0 0 255 0 0 
255 0 0 255 0 0 255 0 0 255 0 0 255 0 0 
238 238 238 238 238 238 238 238 238 238 238 238 238 238 238 
255 0 0 255 255 255 255 255 255 255 0 0 255 0 0 
255 0 0 255 0 0 255 255 255 255 255 255 255 0 0 
255 0 0 255 0 0 238 238 238 238 238 238 238 238 238 
238 238 238 255 255 255 255 255 255 255 255 255 255 255 255 
255 0 0 255 0 0 255 255 255 255 255 255 255 255 255 
255 255 255 255 0 0 255 0 0 238 238 238 238 238 238 
238 238 238 238 238 238 0 0 255 0 0 255 255 255 255 
255 255 255 255 0 0 255 0 0 0 0 255 0 0 255 
255 255 255 255 255 255 255 0 0 255 0 0 238 238 238 
238 238 238 238 238 238 255 0 0 0 0 255 0 0 255 
255 255 255 255 255 255 255 0 0 255 0 0 0 0 255 
0 0 255 255 255 255 255 255 255 255 0 0 255 0 0 
255 0 0 238 238 238 238 238 238 255 0 0 255 0 0 
255 255 255 255 255 255 255 0 0 255 0 0 255 0 0 
255 0 0 255 255 255 255 255 255 255 0 0 255 0 0 
255 0 0 255 0 0 238 238 238 238 238 238 255 0 0 
255 0 0 255 0 0 255 0 0 255 0 0 255 0 0 
255 0 0 255 0 0 255 0 0 255 0 0 255 0 0 
255 0 0 255 0 0 255 0 0 238 238 238 238 238 238 
255 0 0 255 0 0 255 0 0 255 0 0 255 0 0 
255 0 0 255 0 0 255 0 0 255 0 0 255 0 0 
255 0 0 255 0 0 255 0 0 255 0 0 238 238 238 
238 238 238 255 0 0 255 0 0 255 0 0 255 0 0 
255 0 0 255 0 0 255 0 0 255 0 0 255 0 0 
255 0 0 255 0 0 255 0 0 255 0 0 255 0 0 
238 238 238 238 238 238 255 0 0 255 0 0 255 0 0 
255 0 0 255 0 0 255 0 0 255 0 0 255 0 0 
255 0 0 255 0 0 255 0 0 255 0 0 255 0 0 
255 0 0 238 238 238 238 238 238 255 0 0 255 0 0 
238 238 238 255 0 0 255 0 0 255 0 0 238 238 238 
238 238 238 255 0 0 255 0 0 255 0 0 238 238 238 
255 0 0 255 0 0 238 238 238 238 238 238 255 0 0 
238 238 238 238 238 238 238 238 238 255 0 0 255 0 0 
238 238 238 238 238 238 255 0 0 255 0 0 238 238 238 
238 238 238 238 238 238 255 0 0 238 238 238 238 238 238 
238 238 238 238 238 238 238 238 238 238 238 238 238 238 238 
238 238 238 238 238 238 238 238 238 238 238 238 238 238 238 
238 238 238 238 238 238 238 238 238 238 238 238 238 238 238 
238 238 238 238 238 238 238 238 238 238 238 238 238 238 238 
238 238 238 238 238 238 238 238 238 238 238 238 238 238 238 
238 238 238 238 238 238 238 238 238 238 238 238 238 238 238 
238 238 238 238 238 238 238 238 238 238 238 238 238 238 238 
238 238 238 238 238 238 0 0 255 0 0 255 0 0 255 
0 0 255 238 238 238 238 238 238 238 238 238 238 238 238 
238 238 238 238 238 238 238 238 238 238 238 238 238 238 238 
238 238 238 0 0 255 0 0 255 0 0 255 0 0 255 
0 0 255 0 0 255 0 0 255 0 0 255 238 238 238 
238 238 238 238 238 238 238 238 238 238 238 238 238 238 238 
238 238 238 0 0 255 0 0 255 0 0 255 0 0 255 
0 0 255 0 0 255 0 0 255 0 0 255 0 0 255 
0 0 255 238 238 238 238 238 238 238 238 238 238 238 238 
238 238 238 0 0 255 0 0 255 0 0 255 0 0 255 
0 0 255 0 0 255 0 0 255 0 0 255 0 0 255 
0 0 255 0 0 255 0 0 255 238 238 238 238 238 238 
238 238 238 238 238 238 0 0 255 0 0 255 0 0 255 
0 0 255 0 0 255 0 0 255 0 0 255 0 0 255 
0 0 255 0 0 255 0 0 255 0 0 255 238 238 238 
238 238 238 238 238 238 238 238 238 0 0 255 0 0 255 
0 0 255 255 255 255 255 255 255 0 0 255 0 0 255 
255 255 255 255 255 255 0 0 255 0 0 255 0 0 255 
238 238 238 238 238 238 238 238 238 0 0 255 0 0 255 
0 0 255 0 0 255 255 255 255 255 255 255 0 0 255 
0 0 255 255 255 255 255 255 255 0 0 255 0 0 255 
0 0 255 0 0 255 238 238 238 238 238 238 0 0 255 
0 0 255 0 0 255 0 0 255 0 0 255 0 0 255 
0 0 255 0 0 255 0 0 255 0 0 255 0 0 255 
0 0 255 0 0 255 0 0 255 238 238 238 238 238 238 
0 0 255 0 0 255 0 0 255 0 0 255 0 0 255 
0 0 255 0 0 255 0 0 255 0 0 255 0 0 255 
0 0 255 0 0 255 0 0 255 0 0 255 238 238 238 
238 238 238 0 0 255 0 0 255 255 255 255 255 255 255 
0 0 255 0 0 255 255 255 255 255 255 255 0 0 255 
0 0 255 255 255 255 255 255 255 0 0 255 0 0 255 
238 238 238 238 238 238 0 0 255 255 255 255 0 0 255 
0 0 255 255 255 255 255 255 255 0 0 255 0 0 255 
255 255 255 255 255 255 0 0 255 0 0 255 255 255 255 
0 0 255 238 238 238 238 238 238 0 0 255 0 0 255 
0 0 255 0 0 255 0 0 255 0 0 255 0 0 255 
0 0 255 0 0 255 0 0 255 0 0 255 0 0 255 
0 0 255 0 0 255 238 238 238 238 238 238 0 0 255 
0 0 255 238 238 238 0 0 255 0 0 255 0 0 255 
238 238 238 238 238 238 0 0 255 0 0 255 0 0 255 
238 238 238 0 0 255 0 0 255 238 238 238 238 238 238 
0 0 255 238 238 238 238 238 238 238 238 238 0 0 255 
0 0 255 238 238 238 238 238 238 0 0 255 0 0 255 
238 238 238 238 238 238 238 238 238 0 0 255 238 238 238 
238 238 238 238 238 238 238 238 238 238 238 238 238 238 238 
238 238 238 238 238 238 238 238 238 238 238 238 238 238 238 
238 238 238 238 238 238 238 238 238 238 238 238 238 238 238 
238 238 238 255 255 255 255 255 255 255 255 255 255 255 255 
255 255 255 255 255 255 0 255 0 0 255 0 0 255 0 
255 255 255 0 255 0 0 255 0 255 255 255 255 255 255 
255 255 255 255 255 255 255 255 255 255 255 255 255 255 255 
255 255 255 255 255 255 0 255 0 0 255 0 0 255 0 
0 255 0 0 255 0 0 255 0 0 255 0 0 255 0 
0 255 0 255 255 255 255 255 255 255 255 255 255 255 255 
255 255 255 255 255 255 0 255 0 0 255 0 0 255 0 
255 255 255 255 255 255 255 0 255 255 0 255 255 0 255 
0 255 0 0 255 0 0 255 0 255 255 255 255 255 255 
255 255 255 255 255 255 0 255 0 0 255 0 0 255 0 
255 255 255 255 255 255 255 0 255 255 255 255 255 255 255 
255 0 255 255 255 255 0 255 0 0 255 0 0 255 0 
255 255 255 255 255 255 255 255 255 255 255 255 255 255 255 
255 255 255 255 255 255 255 0 255 255 255 255 255 255 255 
255 255 255 255 0 255 255 255 255 255 255 255 0 255 0 
0 255 0 255 255 255 255 255 255 255 255 255 255 255 255 
255 255 255 255 255 255 255 0 255 255 255 255 255 255 255 
255 255 255 255 0 255 255 255 255 255 255 255 255 255 255 
0 255 0 255 255 255 255 255 255 255 255 255 255 255 255 
255 0 0 255 0 0 255 0 255 255 0 0 255 255 255 
255 255 255 255 255 255 255 0 255 255 255 255 255 255 255 
255 255 255 255 255 255 255 255 255 255 255 255 255 255 255 
255 0 0 255 0 0 255 0 0 255 0 255 255 0 0 
255 0 0 255 255 255 255 0 0 255 0 255 255 0 0 
255 0 0 255 255 255 255 255 255 255 255 255 255 255 255 
255 0 0 255 0 0 255 0 0 255 0 0 255 0 0 
255 0 0 255 255 255 255 0 0 255 0 0 255 0 255 
255 0 0 255 0 0 255 0 0 255 255 255 255 255 255 
255 255 255 255 0 0 255 0 0 255 0 0 255 0 0 
255 0 0 255 255 255 255 0 0 255 0 0 255 0 0 
255 0 0 255 0 0 255 0 0 255 0 0 255 0 0 
255 255 255 255 255 255 255 0 0 255 0 0 255 255 255 
255 0 0 255 0 0 255 255 255 255 0 0 255 0 0 
255 0 0 255 0 0 255 0 0 255 0 0 255 0 0 
255 0 0 255 255 255 255 255 255 255 0 0 255 0 0 
255 0 0 255 255 255 255 0 0 255 255 255 255 0 0 
255 0 0 255 255 255 255 0 0 255 0 0 255 0 0 
255 0 0 255 0 0 255 255 255 255 255 255 255 255 255 
255 0 0 255 0 0 255 0 0 255 0 0 255 255 255 
255 0 0 255 0 0 255 0 0 255 255 255 255 0 0 
255 0 0 255 0 0 255 0 0 255 255 255 255 255 255 
255 255 255 255 255 255 255 0 0 255 0 0 255 0 0 
255 0 0 255 255 255 255 0 0 255 0 0 255 0 0 
255 0 0 255 0 0 255 0 0 255 255 255 255 255 255 
255 255 255 255 255 255 255 255 255 255 255 255 255 255 255 
255 255 255 255 255 255 255 255 255 255 255 255 255 0 0 
255 0 0 255 0 0 255 0 0 255 255 255 255 255 255 
255 255 255 255 255 255 255 255 255 255 255 255 255 255 255 
255 255 255 255 255 255 255 255 255 255 255 255 255 255 255 
255 255 255 255 255 255 255 255 255 255 255 255 255 255 255 
255 255 255 255 255 255 255 255 255 255 255 255 255 255 255 
255 255 255 255 255 255 255 255 255 255 255 255 255 255 255 
255 0 255 255 255 255 255 255 255 255 255 255 255 255 255 
255 255 255 255 255 255 255 255 255 255 255 255 255 255 255 
255 255 255 255 255 255 0 255 0 0 255 0 0 255 0 
0 255 0 255 0 255 0 255 0 0 255 0 0 255 0 
0 255 0 255 255 255 255 255 255 255 255 255 255 255 255 
255 255 255 255 255 255 255 0 0 255 0 0 255 0 0 
0 255 0 0 255 0 0 255 0 0 255 0 0 255 0 
0 255 0 255 0 0 255 0 0 255 255 255 255 255 255 
255 255 255 255 255 255 255 0 0 255 0 0 255 0 0 
255 0 0 255 0 0 255 0 0 0 255 0 255 0 0 
255 0 0 255 0 0 255 255 0 255 0 0 255 255 255 
255 255 255 255 255 255 255 0 0 255 0 0 255 0 0 
255 0 0 255 0 0 255 255 0 255 0 0 255 0 0 
255 0 0 255 0 0 255 0 0 255 0 0 255 0 0 
255 0 0 255 255 255 255 255 255 255 0 0 255 0 0 
255 0 0 255 255 0 255 0 0 255 0 0 255 0 0 
255 0 0 255 0 0 255 0 0 255 255 0 255 0 0 
255 0 0 255 0 0 255 255 255 255 255 255 255 0 0 
255 0 0 255 0 0 255 0 0 255 0 0 255 0 0 
255 0 0 255 0 0 255 0 0 255 0 0 255 0 0 
255 0 0 255 0 0 255 0 0 255 255 255 255 255 255 
255 0 0 255 0 0 255 0 0 255 0 0 255 255 0 
255 0 0 255 0 0 255 255 0 255 0 0 255 0 0 
255 255 0 255 0 0 255 0 0 255 0 0 255 255 255 
255 255 255 255 255 255 255 0 0 255 0 0 255 0 0 
255 0 0 255 0 0 255 0 0 255 0 0 255 0 0 
255 0 0 255 0 0 255 0 0 255 0 0 255 255 255 
255 255 255 255 255 255 255 255 255 255 0 0 255 0 0 
255 0 0 255 255 0 255 0 0 255 0 0 255 0 0 
255 0 0 255 0 0 255 0 0 255 0 0 255 0 0 
255 255 255 255 255 255 255 255 255 255 255 255 255 255 255 
255 0 0 255 0 0 255 0 0 255 0 0 255 0 0 
255 0 0 255 255 0 255 0 0 255 0 0 255 0 0 
255 255 255 255 255 255 255 255 255 255 255 255 255 255 255 
255 255 255 255 255 255 255 0 0 255 0 0 255 0 0 
255 255 0 255 0 0 255 0 0 255 0 0 255 0 0 
255 0 0 255 255 255 255 255 255 255 255 255 255 255 255 
255 255 255 255 255 255 255 255 255 255 255 255 255 0 0 
255 0 0 255 0 0 255 0 0 255 0 0 255 0 0 
255 0 0 255 255 255 255 255 255 255 255 255 255 255 255 
255 255 255 255 255 255 255 255 255 255 255 255 255 255 255 
255 255 255 255 0 0 255 0 0 255 0 0 255 0 0 
255 0 0 255 255 255 255 255 255 255 255 255 255 255 255 
255 255 255 255 255 255 255 255 255 255 255 255 255 255 255 
255 255 255 255 255 255 255 255 255 255 0 0 255 0 0 
255 0 0 255 255 255 255 255 255 255 255 255 255 255 255 
255 255 255 255 255 255 255 255 255 255 255 255 255 255 255 
255 255 255 255 255 255 255 255 255 255 255 255 255 255 255 
255 255 255 255 255 255 255 255 255 255 255 255 255 255 255 
255 255 255 255 255 255 255 255 255 255 255 255 255 255 255 
255 255 255 255 255 255 0 0 0 0 0 0 0 0 0 
0 0 0 0 0 0 0 0 0 0 0 0 0 0 0 
0 255 0 255 255 255 255 255 255 255 255 255 255 255 255 
255 255 255 255 255 255 0 0 0 0 0 0 0 0 0 
0 0 0 0 0 0 0 0 0 0 0 0 0 0 0 
0 0 0 0 0 0 0 255 0 255 255 255 255 255 255 
255 255 255 255 255 255 0 0 0 0 0 0 0 0 0 
0 0 0 0 0 0 0 0 0 0 0 0 0 0 0 
0 0 0 0 0 0 0 0 0 0 0 0 0 255 0 
255 255 255 255 255 255 255 255 255 0 0 0 0 0 0 
0 0 0 0 0 0 0 255 0 255 255 255 255 255 255 
0 0 0 0 0 0 0 0 0 0 0 0 0 0 0 
0 255 0 255 255 255 255 255 255 255 255 255 0 0 0 
0 0 0 0 0 0 0 255 0 255 255 255 255 255 255 
255 255 255 0 0 0 0 0 0 0 0 0 0 0 0 
0 0 0 0 255 0 255 255 255 255 255 255 255 255 255 
0 0 0 0 0 0 0 0 0 0 255 0 255 255 255 
255 255 255 255 255 255 0 0 0 0 255 0 0 0 0 
0 0 0 0 0 0 0 255 0 255 255 255 255 255 255 
255 255 255 0 0 0 0 0 0 0 0 0 0 255 0 
255 255 255 255 255 255 0 0 0 0 0 0 0 255 0 
0 0 0 0 0 0 0 0 0 0 255 0 255 255 255 
255 255 255 255 255 255 0 0 0 0 0 0 0 0 0 
0 255 0 255 255 255 255 255 255 0 0 0 0 255 0 
255 255 255 0 0 0 0 0 0 0 0 0 0 255 0 
255 255 255 255 255 255 255 255 255 0 0 0 0 0 0 
0 0 0 0 255 0 255 255 255 0 0 0 0 0 0 
0 255 0 255 255 255 0 0 0 0 0 0 0 0 0 
0 255 0 255 255 255 255 255 255 255 255 255 0 0 0 
0 0 0 0 0 0 0 255 0 255 255 255 0 0 0 
0 255 0 255 255 255 255 255 255 0 0 0 0 0 0 
0 0 0 0 255 0 255 255 255 255 255 255 255 255 255 
0 0 0 0 0 0 0 0 0 0 255 0 0 0 0 
0 0 0 0 255 0 255 255 255 255 255 255 0 0 0 
0 0 0 0 0 0 0 255 0 255 255 255 255 255 255 
255 255 255 0 0 0 0 0 0 0 0 0 0 0 0 
0 0 0 0 255 0 255 255 255 255 255 255 255 255 255 
0 0 0 0 0 0 0 0 0 0 255 0 255 255 255 
255 255 255 255 255 255 0 0 0 0 0 0 0 0 0 
0 0 0 0 0 0 0 255 0 255 255 255 255 255 255 
0 0 0 0 0 0 0 0 0 0 0 0 0 255 0 
255 255 255 255 255 255 255 255 255 0 0 0 0 0 0 
0 0 0 0 0 0 0 0 0 0 0 0 0 0 0 
0 0 0 0 0 0 0 0 0 0 0 0 0 0 0 
0 255 0 255 255 255 255 255 255 255 255 255 255 255 255 
0 0 0 0 0 0 0 0 0 0 0 0 0 0 0 
0 0 0 0 0 0 0 0 0 0 0 0 0 0 0 
0 255 0 255 255 255 255 255 255 255 255 255 255 255 255 
255 255 255 255 255 255 0 0 0 0 0 0 0 0 0 
0 0 0 0 0 0 0 0 0 0 0 0 0 0 0 
0 255 0 255 255 255 255 255 255 255 255 255 255 255 255 
255 255 255 255 255 255 255 255 255 255 255 255 255 255 255 
0 0 0 0 0 0 0 0 0 0 0 0 0 255 0 
0 255 0 255 255 255 255 255 255 255 255 255 255 255 255 
255 255 255 255 255 255 255 255 255 255 255 255 255 255 255 
255 255 255 0 0 0 0 0 0 0 0 0 0 0 0 
0 255 0 0 255 0 255 255 255 255 255 255 255 255 255 
255 255 255 255 255 255 255 255 255 255 255 255 255 255 255 
0 0 0 0 0 0 0 0 0 0 0 0 0 0 0 
0 0 0 0 255 0 0 255 0 255 255 255 255 255 255 
255 255 255 255 255 255 255 255 255 255 255 255 255 255 255 
255 255 255 0 0 0 0 0 0 0 0 0 0 0 0 
0 0 0 0 0 0 0 255 0 0 255 0 255 255 255 
255 255 255 255 255 255 255 255 255 255 255 255 255 255 255 
0 0 0 0 0 0 0 0 0 0 0 0 0 0 0 
0 0 0 0 0 0 0 0 0 0 255 0 0 255 0 
255 255 255 255 255 255 255 255 255 255 255 255 255 255 255 
255 255 255 0 0 0 0 0 0 0 0 0 0 0 0 
0 0 0 0 0 0 0 0 0 0 0 0 0 255 0 
0 255 0 255 255 255 255 255 255 255 255 255 255 255 255 
255 255 255 255 255 255 255 255 255 255 255 255 255 255 255 
255 255 255 0 0 0 0 0 0 0 0 0 0 0 0 
0 255 0 0 255 0 255 255 255 255 255 255 255 255 255 
255 255 255 255 255 255 255 255 255 255 255 255 255 255 255 
255 255 255 255 255 255 0 0 0 0 0 0 0 0 0 
0 0 0 0 255 0 0 255 0 255 255 255 255 255 255 
255 255 255 255 255 255 255 255 255 255 255 255 255 255 255 
255 255 255 255 255 255 255 255 255 0 0 0 0 0 0 
0 0 0 0 0 0 0 255 0 0 255 0 255 255 255 
255 255 255 255 255 255 255 255 255 255 255 255 255 255 255 
255 255 255 255 255 255 255 255 255 255 255 255 0 0 0 
0 0 0 0 0 0 0 0 0 0 255 0 0 255 0 
255 255 255 255 255 255 255 255 255 255 255 255 255 255 255 
255 255 255 255 255 255 255 255 255 255 255 255 255 255 255 
0 0 0 0 0 0 0 0 0 0 0 0 0 255 0 
0 255 0 255 255 255 255 255 255 255 255 255 255 255 255 
255 255 255 255 255 255 255 255 255 255 255 255 255 255 255 
255 255 255 0 0 0 0 0 0 0 0 0 0 0 0 
0 255 0 0 255 0 255 255 255 255 255 255 255 255 255 
255 255 255 255 255 255 255 255 255 0 0 0 0 0 0 
0 0 0 0 0 0 0 0 0 0 0 0 0 0 0 
0 0 0 0 0 0 0 0 0 0 0 0 0 0 0 
0 255 0 0 255 0 255 255 255 255 255 255 0 0 0 
0 0 0 0 0 0 0 0 0 0 0 0 0 0 0 
0 0 0 0 0 0 0 0 0 0 0 0 0 0 0 
0 0 0 0 255 0 0 255 0 255 255 255 255 255 255 
0 0 0 0 0 0 0 0 0 0 0 0 0 0 0 
0 0 0 0 0 0 0 0 0 0 0 0 0 0 0 
0 0 0 0 0 0 0 255 0 0 255 0 255 255 255 
255 255 255 0 0 0 0 0 0 0 0 0 0 0 0 
0 0 0 0 0 0 0 0 0 0 0 0 0 0 0 
0 0 0 0 0 0 0 0 0 0 255 0 0 255 0 
255 255 255 255 255 255 255 255 255 255 255 255 0 0 0 
0 0 0 0 0 0 0 0 0 0 0 0 0 0 0 
0 0 0 0 0 0 0 255 0 0 255 0 255 255 255 
255 255 255 255 255 255 255 255 255 255 255 255 255 255 255 
0 0 0 0 0 0 0 0 0 0 0 0 0 0 0 
0 0 0 0 0 0 0 0 0 0 255 0 0 255 0 
255 255 255 255 255 255 255 255 255 255 255 255 0 0 0 
0 0 0 0 0 0 0 0 0 0 0 0 0 0 0 
0 0 0 0 0 0 0 0 0 0 0 0 0 0 0 
0 0 0 0 255 0 0 255 0 255 255 255 255 255 255 
0 0 0 0 0 0 0 0 0 0 0 0 0 0 0 
0 0 0 0 0 0 0 0 0 0 0 0 0 0 0 
0 0 0 0 0 0 0 255 0 0 255 0 255 255 255 
255 255 255 255 255 255 255 255 255 255 255 255 255 255 255 
255 255 255 255 255 255 255 255 255 255 255 255 0 0 0 
0 0 0 0 0 0 0 0 0 0 255 0 0 255 0 
255 255 255 255 255 255 255 255 255 255 255 255 255 255 255 
255 255 255 255 255 255 255 255 255 255 255 255 255 255 255 
0 0 0 0 0 0 0 0 0 0 0 0 0 255 0 
0 255 0 255 255 255 255 255 255 255 255 255 255 255 255 
0 0 0 0 0 0 0 0 0 0 0 0 0 0 0 
0 0 0 0 0 0 0 0 0 0 0 0 0 0 0 
0 255 0 0 255 0 255 255 255 255 255 255 255 255 255 
255 255 255 0 0 0 0 0 0 0 0 0 0 0 0 
0 0 0 0 0 0 0 0 0 0 0 0 0 0 0 
0 0 0 0 255 0 0 255 0 255 255 255 255 255 255 
0 0 0 0 0 0 0 0 0 0 0 0 0 0 0 
0 0 0 0 0 0 0 0 0 0 0 0 0 0 0 
0 0 0 0 0 0 0 255 0 0 255 0 255 255 255 
255 255 255 0 0 0 0 0 0 0 0 0 0 0 0 
0 0 0 0 0 0 0 0 0 0 0 0 0 0 0 
0 0 0 0 0 0 0 0 0 0 255 0 0 255 0 
255 255 255 255 255 255 0 0 0 0 0 0 0 0 0 
0 0 0 0 255 0 0 255 0 255 255 255 255 255 255 
255 255 255 255 255 255 255 255 255 255 255 255 255 255 255 
255 255 255 255 255 255 255 255 255 0 0 0 0 0 0 
0 0 0 0 0 0 0 255 0 0 255 0 255 255 255 
255 255 255 255 255 255 255 255 255 255 255 255 255 255 255 
255 255 255 255 255 255 255 255 255 255 255 255 0 0 0 
0 0 0 0 0 0 0 0 0 0 0 0 0 0 0 
0 0 0 0 0 0 0 0 0 0 0 0 0 0 0 
0 0 0 0 255 0 0 255 0 255 255 255 255 255 255 
0 0 0 0 0 0 0 0 0 0 0 0 0 0 0 
0 0 0 0 0 0 0 0 0 0 0 0 0 0 0 
0 0 0 0 0 0 0 255 0 0 255 0 255 255 255 
255 255 255 0 0 0 0 0 0 0 0 0 0 0 0 
0 0 0 0 0 0 0 0 0 0 0 0 0 0 0 
0 0 0 0 0 0 0 0 0 0 255 0 0 255 0 
255 255 255 255 255 255 0 0 0 0 0 0 0 0 0 
0 0 0 0 0 0 0 0 0 0 0 0 0 0 0 
0 0 0 0 0 0 0 0 0 0 0 0 0 255 0 
0 255 0 255 255 255 255 255 255 255 255 255 255 255 255 
0 0 0 0 0 0 0 0 0 0 0 0 0 0 0 
0 0 0 0 0 0 0 0 0 0 255 0 0 255 0 
255 255 255 255 255 255 255 255 255 255 255 255 255 255 255 
255 255 255 0 0 0 0 0 0 0 0 0 0 0 0 
0 0 0 0 0 0 0 0 0 0 0 0 0 255 0 
0 255 0 255 255 255 255 255 255 255 255 255 255 255 255 
0 0 0 0 0 0 0 0 0 0 0 0 0 0 0 
0 0 0 0 0 0 0 0 0 0 0 0 0 0 0 
0 0 0 0 0 0 0 255 0 0 255 0 255 255 255 
255 255 255 0 0 0 0 0 0 0 0 0 0 0 0 
0 0 0 0 0 0 0 0 0 0 0 0 0 0 0 
0 0 0 0 0 0 0 0 0 0 255 0 0 255 0 
255 255 255 255 255 255 255 255 255 255 255 255 255 255 255 
255 255 255 255 255 255 255 255 255 255 255 255 255 255 255 
0 0 0 0 0 0 0 0 0 0 0 0 0 255 0 
0 255 0 255 255 255 255 255 255 255 255 255 255 255 255 
255 255 255 255 255 255 255 255 255 255 255 255 255 255 255 
255 255 255 0 0 0 0 0 0 0 0 0 0 0 0 
0 255 0 0 255 0 255 255 255 255 255 255 255 255 255 
255 255 255 255 255 255 255 255 255 0 0 0 0 0 0 
0 0 0 0 0 0 0 0 0 0 0 0 0 0 0 
0 0 0 0 255 0 0 255 0 255 255 255 255 255 255 
255 255 255 255 255 255 255 255 255 255 255 255 0 0 0 
0 0 0 0 0 0 0 0 0 0 0 0 0 0 0 
0 0 0 0 0 0 0 255 0 0 255 0 255 255 255 
255 255 255 255 255 255 255 255 255 255 255 255 255 255 255 
0 0 0 0 0 0 0 0 0 0 0 0 0 0 0 
0 0 0 0 0 0 0 0 0 0 255 0 0 255 0 
255 255 255 255 255 255 255 255 255 255 255 255 255 255 255 
255 255 255 0 0 0 0 0 0 0 0 0 0 0 0 
0 0 0 0 0 0 0 0 0 0 0 0 0 255 0 
0 255 0 255 255 255 255 255 255 255 255 255 255 255 255 
255 255 255 255 255 255 255 255 255 255 255 255 255 255 255 
255 255 255 0 0 0 0 0 0 0 0 0 0 0 0 
0 255 0 0 255 0 255 255 255 255 255 255 255 255 255 
255 255 255 255 255 255 255 255 255 255 255 255 255 255 255 
255 255 255 255 255 255 0 0 0 0 0 0 0 0 0 
0 0 0 0 255 0 0 255 0 255 255 255 255 255 255 
0 0 0 0 0 0 0 0 0 0 0 0 0 0 0 
0 0 0 0 0 0 0 0 0 0 0 0 0 0 0 
0 0 0 0 0 0 0 255 0 0 255 0 255 255 255 
255 255 255 0 0 0 0 0 0 0 0 0 0 0 0 
0 0 0 0 0 0 0 0 0 0 0 0 0 0 0 
0 0 0 0 0 0 0 0 0 0 255 0 0 255 0 
255 255 255 255 255 255 255 255 255 255 255 255 0 0 0 
0 0 0 0 0 0 0 0 0 0 0 0 0 0 0 
0 0 0 0 0 0 0 255 0 0 255 0 255 255 255 
255 255 255 255 255 255 255 255 255 255 255 255 255 255 255 
0 0 0 0 0 0 0 0 0 0 0 0 0 0 0 
0 0 0 0 0 0 0 0 0 0 255 0 0 255 0 
255 255 255 255 255 255 255 255 255 255 255 255 255 255 255 
255 255 255 0 0 0 0 0 0 0 255 0 0 255 0 
255 255 255 255 255 255 255 255 255 255 255 255 255 255 255 
255 255 255 255 255 255 255 255 255 255 255 255 255 255 255 
255 255 255 255 255 255 0 0 0 0 0 0 0 255 0 
0 255 0 255 255 255 255 255 255 255 255 255 255 255 255 
255 255 255 255 255 255 255 255 255 255 255 255 255 255 255 
255 255 255 0 0 0 0 0 0 0 0 0 0 0 0 
0 255 0 0 255 0 255 255 255 255 255 255 255 255 255 
255 255 255 255 255 255 255 255 255 255 255 255 255 255 255 
255 255 255 255 255 255 0 0 0 0 0 0 0 0 0 
0 0 0 0 255 0 0 255 0 255 255 255 255 255 255 
255 255 255 255 255 255 255 255 255 255 255 255 255 255 255 
255 255 255 255 255 255 255 255 255 0 0 0 0 0 0 
0 0 0 0 0 0 0 255 0 0 255 0 255 255 255 
255 255 255 0 0 0 0 0 0 0 0 0 0 0 0 
0 255 0 0 255 0 255 255 255 255 255 255 0 0 0 
0 0 0 0 0 0 0 0 0 0 255 0 0 255 0 
255 255 255 255 255 255 0 0 0 0 0 0 0 0 0 
0 0 0 0 255 0 0 255 0 255 255 255 255 255 255 
0 0 0 0 0 0 0 0 0 0 0 0 0 255 0 
0 255 0 255 255 255 255 255 255 0 0 0 0 0 0 
0 0 0 0 0 0 0 255 0 0 255 0 255 255 255 
255 255 255 0 0 0 0 0 0 0 0 0 0 0 0 
0 255 0 0 255 0 255 255 255 255 255 255 0 0 0 
0 0 0 0 0 0 0 0 0 0 255 0 0 255 0 
255 255 255 255 255 255 0 0 0 0 0 0 0 0 0 
0 0 0 0 0 0 0 0 0 0 0 0 0 0 0 
0 0 0 0 0 0 0 0 0 0 0 0 0 0 0 
0 0 0 255 255 255 255 255 255 0 0 0 0 0 0 
0 0 0 0 0 0 0 0 0 0 0 0 0 0 0 
0 0 0 0 0 0 0 0 0 0 0 0 0 0 0 
0 0 0 0 0 0 255 255 255 255 255 255 0 0 0 
0 0 0 0 0 0 0 0 0 0 0 0 0 0 0 
0 0 0 0 0 0 0 0 0 0 0 0 0 0 0 
0 0 0 0 0 0 0 0 0 255 255 255 255 255 255 
0 0 0 0 0 0 0 0 0 0 0 0 0 0 0 
0 0 0 0 0 0 0 0 0 0 0 0 0 0 0 
0 0 0 0 0 0 0 0 0 0 0 0 255 255 255 
255 255 255 255 255 255 255 255 255 255 255 255 255 255 255 
255 255 255 255 255 255 255 255 255 255 255 255 0 0 0 
0 0 0 0 0 0 0 0 0 0 255 0 0 255 0 
255 255 255 255 255 255 255 255 255 255 255 255 255 255 255 
255 255 255 255 255 255 255 255 255 255 255 255 255 255 255 
0 0 0 0 0 0 0 0 0 0 0 0 0 255 0 
0 255 0 255 255 255 255 255 255 255 255 255 255 255 255 
255 255 255 255 255 255 255 255 255 255 255 255 255 255 255 
255 255 255 0 0 0 0 0 0 0 0 0 0 0 0 
0 255 0 0 255 0 255 255 255 255 255 255 255 255 255 
255 255 255 255 255 255 255 255 255 255 255 255 255 255 255 
255 255 255 255 255 255 0 0 0 0 0 0 0 0 0 
0 0 0 0 255 0 0 255 0 255 255 255 255 255 255 
0 0 0 0 0 0 0 0 0 0 0 0 0 0 0 
0 0 0 0 0 0 0 0 0 0 0 0 0 0 0 
0 0 0 0 0 0 0 255 0 0 255 0 255 255 255 
255 255 255 0 0 0 0 0 0 0 0 0 0 0 0 
0 0 0 0 0 0 0 0 0 0 0 0 0 0 0 
0 0 0 0 0 0 0 0 0 0 255 0 0 255 0 
255 255 255 255 255 255 0 0 0 0 0 0 0 0 0 
0 0 0 0 0 0 0 0 0 0 0 0 0 0 0 
0 0 0 0 0 0 0 0 0 0 0 0 0 255 0 
0 255 0 255 255 255 255 255 255 0 0 0 0 0 0 
0 0 0 0 0 0 0 0 0 0 0 0 0 0 0 
0 0 0 0 0 0 0 0 0 0 0 0 0 0 0 
0 255 0 0 255 0 255 255 255 255 255 255 0 0 0 
0 0 0 0 0 0 0 0 0 0 255 0 0 255 0 
255 255 255 255 255 255 255 255 255 255 255 255 255 255 255 
255 255 255 255 255 255 255 255 255 255 255 255 255 255 255 
0 0 0 0 0 0 0 0 0 0 0 0 0 255 0 
0 255 0 255 255 255 255 255 255 255 255 255 255 255 255 
255 255 255 255 255 255 255 255 255 255 255 255 255 255 255 
255 255 255 0 0 0 0 0 0 0 0 0 0 0 0 
0 0 0 0 0 0 0 0 0 0 0 0 0 0 0 
0 0 0 0 255 0 0 255 0 255 255 255 255 255 255 
255 255 255 255 255 255 0 0 0 0 0 0 0 0 0 
0 0 0 0 0 0 0 0 0 0 0 0 0 0 0 
0 0 0 0 0 0 0 255 0 0 255 0 255 255 255 
255 255 255 255 255 255 255 255 255 0 0 0 0 0 0 
0 0 0 0 0 0 0 0 0 0 0 0 0 0 0 
0 0 0 0 0 0 0 0 0 0 0 0 0 0 0 
0 255 0 0 255 0 255 255 255 255 255 255 0 0 0 
0 0 0 0 0 0 0 0 0 0 0 0 0 0 0 
0 0 0 0 0 0 0 0 0 0 0 0 0 0 0 
0 0 0 0 255 0 0 255 0 255 255 255 255 255 255 
255 255 255 255 255 255 255 255 255 255 255 255 255 255 255 
255 255 255 255 255 255 255 255 255 0 0 0 0 0 0 
0 0 0 0 0 0 0 255 0 0 255 0 255 255 255 
255 255 255 255 255 255 255 255 255 255 255 255 255 255 255 
255 255 255 255 255 255 255 255 255 255 255 255 0 0 0 
0 0 0 0 0 0 0 0 0 0 255 0 0 255 0 
255 255 255 255 255 255 0 0 0 0 0 0 0 0 0 
0 0 0 0 0 0 0 0 0 0 0 0 0 0 0 
0 0 0 0 0 0 0 0 0 0 0 0 0 255 0 
0 255 0 255 255 255 255 255 255 0 0 0 0 0 0 
0 0 0 0 0 0 0 0 0 0 0 0 0 0 0 
0 0 0 0 0 0 0 0 0 0 0 0 0 0 0 
0 255 0 0 255 0 255 255 255 255 255 255 255 255 255 
255 255 255 0 0 0 0 0 0 0 0 0 0 0 0 
0 0 0 0 0 0 0 0 0 0 0 0 0 255 0 
0 255 0 255 255 255 255 255 255 255 255 255 255 255 255 
255 255 255 255 255 255 0 0 0 0 0 0 0 0 0 
0 0 0 0 0 0 0 0 0 0 0 0 0 0 0 
0 255 0 0 255 0 255 255 255 255 255 255 255 255 255 
255 255 255 255 255 255 255 255 255 255 255 255 255 255 255 
255 255 255 255 255 255 255 255 255 255 255 255 255 255 255 
255 255 255 255 255 255 255 255 255 255 255 255 255 255 255 
255 255 255 255 255 255 255 255 255 255 255 255 255 255 255 
255 255 255 255 255 255 255 255 255 255 255 255 255 255 255 
255 255 255 255 255 255 255 255 255 255 255 255 255 255 255 
255 255 255 255 255 255 255 255 255 255 255 255 0 0 255 
0 0 255 255 255 255 255 255 255 255 255 255 255 255 255 
255 255 255 255 255 255 0 0 255 0 0 255 255 255 255 
255 255 255 255 255 255 255 255 255 255 255 255 255 255 255 
0 0 255 0 0 255 0 0 0 0 0 0 0 0 0 
0 0 0 0 0 0 0 0 0 0 0 255 0 0 255 
255 255 255 255 255 255 255 255 255 255 255 255 255 255 255 
255 255 255 0 0 255 0 0 255 0 0 0 0 0 0 
0 0 0 0 0 0 0 0 0 0 0 0 0 0 255 
0 0 255 255 255 255 255 255 255 255 255 255 255 255 255 
255 255 255 255 255 255 0 0 255 0 0 255 255 255 255 
255 255 255 0 0 0 0 0 0 255 255 255 255 255 255 
0 0 255 0 0 255 255 255 255 255 255 255 255 255 255 
255 255 255 255 255 255 255 255 255 255 255 255 255 255 255 
255 255 255 255 255 255 0 0 0 0 0 0 255 255 255 
255 255 255 255 255 255 255 255 255 255 255 255 255 255 255 
255 255 255 255 255 255 255 255 255 255 255 255 255 255 255 
255 255 255 255 255 255 0 0 0 0 0 0 0 0 0 
0 0 0 255 255 255 255 255 255 255 255 255 255 255 255 
255 255 255 255 255 255 255 255 255 255 255 255 255 255 255 
255 255 255 255 255 255 255 255 255 0 0 0 0 0 0 
0 0 0 0 0 0 255 255 255 255 255 255 255 255 255 
255 255 255 255 255 255 255 255 255 255 255 255 255 255 255 
255 255 255 255 255 255 255 255 255 0 0 0 0 0 0 
0 0 0 0 0 0 0 0 0 0 0 0 255 255 255 
255 255 255 255 255 255 255 255 255 255 255 255 255 255 255 
255 255 255 0 0 255 0 0 255 255 255 255 0 0 0 
0 0 0 0 0 0 0 0 0 0 0 0 0 0 0 
255 255 255 0 0 255 0 0 255 255 255 255 255 255 255 
255 255 255 255 255 255 0 0 255 0 0 255 0 0 0 
0 0 0 0 0 0 0 0 0 0 0 0 0 0 0 
0 0 0 0 0 0 0 0 255 0 0 255 255 255 255 
255 255 255 255 255 255 255 255 255 0 0 255 0 0 255 
0 0 0 0 0 0 0 0 0 0 0 0 0 0 0 
0 0 0 0 0 0 0 0 0 0 0 255 0 0 255 
255 255 255 255 255 255 255 255 255 255 255 255 0 0 255 
0 0 255 255 255 255 255 0 0 255 0 0 0 0 0 
0 0 0 255 0 0 255 0 0 255 255 255 0 0 255 
0 0 255 255 255 255 255 255 255 255 255 255 255 255 255 
255 255 255 255 255 255 255 255 255 255 255 255 255 255 255 
255 255 255 255 255 255 255 255 255 255 255 255 255 255 255 
255 255 255 255 255 255 255 255 255 255 255 255 255 255 255 
255 255 255 255 255 255 255 255 255 255 255 255 255 255 255 
255 255 255 255 255 255 255 255 255 255 255 255 255 255 255 
255 255 255 255 255 255 255 255 255 255 255 255 255 255 255 
255 255 255 255 255 255 255 255 255 255 255 255 255 255 255 
255 255 255 255 255 255 255 255 255 255 255 255 0 0 255 
255 255 255 255 255 255 255 255 255 255 255 255 255 255 255 
255 255 255 255 255 255 255 255 255 255 255 255 255 255 255 
255 255 255 255 255 255 255 255 255 255 255 255 0 0 255 
0 0 255 0 0 255 255 255 255 255 255 255 255 255 255 
255 255 255 255 255 255 255 255 255 255 255 255 255 255 255 
255 255 255 255 255 255 255 255 255 255 255 255 0 0 255 
0 0 255 0 0 255 0 0 0 255 255 255 255 255 255 
255 255 255 255 255 255 255 255 255 255 255 255 255 255 255 
255 255 255 255 255 255 255 255 255 255 255 255 255 255 255 
255 255 255 0 0 255 0 0 0 0 0 0 0 0 0 
255 255 255 255 255 255 255 255 255 255 255 255 255 255 255 
255 255 255 255 255 255 255 255 255 255 255 255 255 255 255 
255 255 255 255 255 255 255 255 255 0 0 0 0 0 0 
0 0 0 0 0 0 255 255 255 255 255 255 255 255 255 
255 255 255 255 255 255 255 255 255 0 0 255 255 255 255 
255 255 255 255 255 255 255 255 255 255 255 255 0 0 0 
0 0 0 0 0 0 0 0 0 0 0 0 0 0 255 
255 255 255 255 255 255 255 255 255 0 0 255 0 0 255 
0 0 255 255 255 255 255 255 255 255 255 255 0 0 0 
0 0 0 0 0 0 0 0 0 0 0 0 0 0 255 
0 0 255 0 0 255 255 255 255 0 0 255 0 0 255 
0 0 255 255 255 255 255 255 255 0 0 0 0 0 0 
0 0 0 0 0 0 255 255 255 255 255 255 0 0 255 
0 0 255 0 0 255 255 255 255 0 0 255 0 0 255 
0 0 255 0 0 0 0 0 0 0 0 0 0 0 0 
0 0 0 0 0 0 255 255 255 255 255 255 255 255 255 
255 255 255 0 0 255 255 255 255 255 255 255 0 0 255 
0 0 255 0 0 0 0 0 0 0 0 0 0 0 0 
0 0 0 0 0 0 0 0 0 255 255 255 255 255 255 
255 255 255 255 255 255 255 255 255 255 255 255 255 255 255 
255 255 255 255 255 255 255 0 0 255 0 0 0 0 0 
0 0 0 0 0 0 0 0 0 255 255 255 255 255 255 
255 255 255 255 255 255 255 255 255 255 255 255 255 255 255 
255 255 255 255 255 255 255 255 255 255 255 255 255 0 0 
0 0 0 0 0 0 0 0 0 0 0 0 255 255 255 
0 0 255 255 255 255 255 255 255 255 255 255 255 255 255 
255 255 255 255 255 255 255 255 255 255 255 255 255 255 255 
255 255 255 255 0 0 255 0 0 0 0 0 0 0 0 
0 0 0 0 0 255 0 0 255 255 255 255 255 255 255 
255 255 255 255 255 255 255 255 255 255 255 255 255 255 255 
255 255 255 255 255 255 255 255 255 255 0 0 0 0 0 
0 0 0 0 0 255 0 0 255 255 255 255 255 255 255 
255 255 255 255 255 255 255 255 255 255 255 255 255 255 255 
255 255 255 255 255 255 255 255 255 255 255 255 255 255 255 
0 0 255 0 0 255 0 0 255 255 255 255 255 255 255 
255 255 255 255 255 255 255 255 255 255 255 255 255 255 255 
255 255 255 255 255 255 255 255 255 255 255 255 255 255 255 
255 255 255 0 0 255 0 0 255 255 255 255 255 255 255 
255 255 255 255 255 255 255 255 255 255 255 255 255 255 255 
255 255 255 