P1
# CREATOR: GIMP PNM Filter Version 1.1
20 15
0000000001100000000001111011111111101110010010100000101010100111111110
1110111010110100001010000010110101111111111101101001001010011001010010
1111101011110111111101001010000001000010011011111111111111100010101000
1001000100011110111011110111100100000010010000001001111111111111111110
00000000011000000000