P3
# Created by IrfanView
20 15
255
255 255 255 255 255 255 255 255 255 255 255 255 255 255 255 
255 255 255 255 255 255 255 255 255 255 255 255 0 0 0 
0 0 0 255 255 255 255 255 255 255 255 255 255 255 255 
255 255 255 255 255 255 255 255 255 255 255 255 255 255 255 
255 255 255 0 0 0 0 0 0 0 0 0 0 0 0 
255 255 255 0 0 0 0 0 0 0 0 0 0 0 0 
0 0 0 0 0 0 0 0 0 0 0 0 0 0 0 
255 255 255 0 0 0 0 0 0 0 0 0 255 255 255 
255 255 255 0 0 0 255 255 255 255 255 255 0 0 0 
255 255 255 0 0 0 255 255 255 255 255 255 255 255 255 
255 255 255 255 255 255 0 0 0 255 255 255 0 0 0 
255 255 255 0 0 0 255 255 255 0 0 0 255 255 255 
255 255 255 0 0 0 0 0 0 0 0 0 0 0 0 
0 0 0 0 0 0 0 0 0 0 0 0 255 255 255 
0 0 0 0 0 0 0 0 0 255 255 255 0 0 0 
0 0 0 0 0 0 255 255 255 0 0 0 255 255 255 
0 0 0 0 0 0 255 255 255 0 0 0 255 255 255 
255 255 255 255 255 255 255 255 255 0 0 0 255 255 255 
0 0 0 255 255 255 255 255 255 255 255 255 255 255 255 
255 255 255 0 0 0 255 255 255 0 0 0 0 0 0 
255 255 255 0 0 0 255 255 255 0 0 0 0 0 0 
0 0 0 0 0 0 0 0 0 0 0 0 0 0 0 
0 0 0 0 0 0 0 0 0 0 0 0 255 255 255 
0 0 0 0 0 0 255 255 255 0 0 0 255 255 255 
255 255 255 0 0 0 255 255 255 255 255 255 0 0 0 
255 255 255 0 0 0 255 255 255 255 255 255 0 0 0 
0 0 0 255 255 255 255 255 255 0 0 0 255 255 255 
0 0 0 255 255 255 255 255 255 0 0 0 255 255 255 
0 0 0 0 0 0 0 0 0 0 0 0 0 0 0 
255 255 255 0 0 0 255 255 255 0 0 0 0 0 0 
0 0 0 0 0 0 255 255 255 0 0 0 0 0 0 
0 0 0 0 0 0 0 0 0 0 0 0 0 0 0 
255 255 255 0 0 0 255 255 255 255 255 255 0 0 0 
255 255 255 0 0 0 255 255 255 255 255 255 255 255 255 
255 255 255 255 255 255 255 255 255 0 0 0 255 255 255 
255 255 255 255 255 255 255 255 255 0 0 0 255 255 255 
255 255 255 0 0 0 0 0 0 255 255 255 0 0 0 
0 0 0 0 0 0 0 0 0 0 0 0 0 0 0 
0 0 0 0 0 0 0 0 0 0 0 0 0 0 0 
0 0 0 0 0 0 0 0 0 0 0 0 255 255 255 
255 255 255 255 255 255 0 0 0 255 255 255 0 0 0 
255 255 255 0 0 0 255 255 255 255 255 255 255 255 255 
0 0 0 255 255 255 255 255 255 0 0 0 255 255 255 
255 255 255 255 255 255 0 0 0 255 255 255 255 255 255 
255 255 255 0 0 0 0 0 0 0 0 0 0 0 0 
255 255 255 0 0 0 0 0 0 0 0 0 255 255 255 
0 0 0 0 0 0 0 0 0 0 0 0 255 255 255 
0 0 0 0 0 0 0 0 0 0 0 0 255 255 255 
255 255 255 0 0 0 255 255 255 255 255 255 255 255 255 
255 255 255 255 255 255 255 255 255 0 0 0 255 255 255 
255 255 255 0 0 0 255 255 255 255 255 255 255 255 255 
255 255 255 255 255 255 255 255 255 0 0 0 255 255 255 
255 255 255 0 0 0 0 0 0 0 0 0 0 0 0 
0 0 0 0 0 0 0 0 0 0 0 0 0 0 0 
0 0 0 0 0 0 0 0 0 0 0 0 0 0 0 
0 0 0 0 0 0 0 0 0 0 0 0 255 255 255 
255 255 255 255 255 255 255 255 255 255 255 255 255 255 255 
255 255 255 255 255 255 255 255 255 255 255 255 0 0 0 
0 0 0 255 255 255 255 255 255 255 255 255 255 255 255 
255 255 255 255 255 255 255 255 255 255 255 255 255 255 255 
