P2
# Created by IrfanView
64 64
255
161 159 157 156 160 171 168 133 95 105 107 107 107 115 123 127 131 
132 131 132 134 134 134 133 135 135 134 132 133 132 135 133 133 
131 131 130 130 128 122 112 122 149 160 152 154 156 153 154 156 
157 179 216 192 108 119 122 123 123 125 123 126 126 121 137 157 158 156 155 163 170 164 128 93 101 106 106 105 114 122 126 129 
131 132 131 133 134 133 133 132 131 132 130 131 130 134 131 132 
131 129 129 129 128 123 114 110 139 158 157 159 159 156 156 154 
153 156 205 216 140 112 120 122 121 123 125 127 129 98 51 157 158 158 158 167 165 159 130 93 101 107 105 104 114 121 126 129 
131 132 131 132 133 133 132 132 132 132 131 131 129 135 133 132 
130 129 128 129 129 125 117 108 127 154 163 162 162 159 157 154 
153 151 172 216 199 113 116 121 124 125 129 133 93 50 49 158 159 160 165 167 161 160 128 90 101 106 105 105 112 122 125 128 
129 129 130 131 131 130 131 134 128 125 127 126 127 130 132 132 
128 128 128 127 128 124 119 110 124 151 161 162 160 159 157 156 
155 152 149 200 220 159 113 122 123 124 130 91 49 48 53 160 162 165 168 165 159 160 128 90 101 106 104 104 113 120 124 127 
128 127 129 130 130 131 130 130 126 124 124 125 123 128 130 132 
128 129 127 127 127 125 119 111 122 145 156 159 159 157 158 157 
157 154 148 161 216 215 123 114 123 129 91 46 54 53 51 162 163 166 159 160 161 160 127 89 101 105 104 103 113 120 123 125 
126 127 129 128 130 130 129 130 128 130 135 140 136 125 125 127 
127 129 128 127 128 124 117 112 120 142 150 155 157 155 155 155 
153 149 146 143 193 223 179 109 119 91 47 51 56 51 47 162 168 156 142 158 163 161 128 88 98 105 104 106 114 121 124 127 
127 129 129 129 129 129 132 144 146 157 168 179 178 182 169 141 
121 127 128 127 126 122 116 111 118 142 146 150 154 153 153 152 
148 144 142 142 155 214 222 143 88 45 48 55 53 48 47 166 165 134 128 162 165 163 128 84 94 100 102 105 113 119 123 125 
125 127 129 132 139 128 134 137 146 152 163 171 178 184 189 195 
171 125 122 123 122 118 113 107 118 142 147 148 150 152 147 146 
145 143 141 142 141 180 225 178 44 47 54 52 51 49 49 172 152 98 123 163 166 161 127 80 91 99 100 103 109 115 118 123 
124 125 133 116 122 123 132 132 136 143 156 172 179 184 190 193 
197 190 136 111 115 115 110 106 117 146 151 146 143 147 146 144 
145 143 142 144 145 151 198 81 44 51 54 49 50 51 44 165 125 83 124 163 168 160 126 79 93 101 101 102 109 116 117 121 
123 128 123 112 117 126 128 134 136 141 150 165 180 187 191 195 
194 196 204 171 105 108 106 104 115 149 156 149 127 127 147 145 
147 143 145 146 149 152 76 45 50 52 48 53 54 57 88 146 94 87 125 163 168 160 124 81 93 100 102 103 109 115 119 122 
123 123 111 117 120 122 124 133 136 139 146 164 182 188 184 191 
203 210 211 218 170 93 100 99 114 147 155 152 118 84 135 147 
146 144 146 146 152 101 43 50 53 48 52 51 67 86 150 112 89 88 124 160 167 161 123 82 95 100 102 103 108 116 119 122 
123 111 113 118 116 119 128 137 140 143 146 160 174 176 197 208 
205 204 208 212 221 134 87 93 112 148 156 153 123 54 106 145 
146 144 146 148 132 51 49 55 49 54 49 61 93 143 148 90 92 90 122 159 167 160 124 81 93 100 100 103 108 117 119 125 
117 114 114 116 119 128 134 139 141 138 142 153 173 198 202 201 
198 204 205 208 211 214 148 78 108 147 155 154 123 53 67 128 
147 143 146 149 65 44 57 52 51 50 55 77 138 148 163 91 93 91 123 158 165 161 125 82 92 99 102 101 108 116 115 140 
104 112 114 117 123 134 139 138 139 129 139 179 192 193 191 195 
204 205 205 206 207 212 219 111 100 144 155 154 124 56 44 85 
138 147 148 101 45 52 55 52 52 53 58 132 142 159 164 92 91 87 119 159 165 161 126 80 89 97 99 103 108 112 119 149 
105 112 113 119 129 136 134 135 122 145 183 182 185 184 195 197 
200 201 203 204 207 209 215 196 90 144 154 154 124 56 42 97 
198 210 206 54 50 56 55 54 54 48 114 145 157 161 160 92 94 92 118 158 168 161 124 76 88 99 101 102 107 114 148 136 
104 112 114 125 126 126 131 119 155 175 170 178 180 190 189 191 
193 199 201 201 203 207 206 216 134 142 156 154 120 48 128 193 
211 216 224 91 49 54 49 49 54 85 148 152 161 160 159 98 100 97 120 159 168 164 127 81 92 101 103 104 110 112 167 125 
103 107 118 121 124 129 121 152 161 165 175 181 182 183 179 185 
192 196 197 198 190 201 203 204 204 158 155 149 122 168 196 210 
206 206 221 95 52 51 48 53 50 139 150 160 158 158 157 101 100 99 124 158 171 168 129 82 93 102 102 101 107 105 176 123 
105 105 112 120 122 123 146 150 149 165 175 171 179 172 178 182 
183 188 190 183 189 197 196 196 194 189 154 177 197 200 207 203 
204 211 221 72 52 49 48 54 104 150 158 160 158 156 155 101 99 100 123 161 174 171 130 81 92 99 100 100 104 100 194 136 
110 107 113 121 122 144 145 140 153 159 169 171 168 175 176 174 
180 184 182 187 190 187 183 185 178 190 193 198 203 203 201 204 
197 208 210 47 51 48 52 78 145 153 161 160 158 157 156 99 98 99 122 163 173 170 130 82 94 100 100 100 103 104 195 151 
128 105 111 117 138 142 134 149 149 150 160 168 170 169 172 168 
167 173 180 183 180 179 172 175 185 193 201 200 199 200 203 197 
168 183 149 48 51 47 57 121 150 160 161 160 159 159 158 97 95 97 125 163 172 169 132 82 94 100 99 99 101 108 190 158 
138 109 111 137 133 129 144 141 145 150 157 159 161 163 163 161 
164 168 169 169 169 164 176 187 196 198 194 197 202 203 208 172 
159 175 87 49 49 51 90 149 155 161 158 159 158 158 158 99 98 102 127 163 174 170 134 80 93 98 98 99 99 111 200 169 
150 121 127 130 126 140 136 135 143 149 135 128 128 142 135 154 
156 154 142 150 161 180 192 197 190 195 199 203 204 207 193 135 
119 180 43 50 54 57 131 150 160 159 157 157 157 157 155 101 99 105 130 164 174 171 135 79 91 99 101 99 99 103 204 181 
139 124 120 119 137 131 130 134 141 131 126 108 90 138 106 92 
88 62 60 128 176 194 196 196 194 199 200 205 197 156 108 101 
172 101 48 48 51 80 148 157 161 160 157 156 155 155 154 104 100 105 130 164 173 171 135 81 92 98 100 100 98 90 198 187 
134 135 112 134 130 128 131 136 124 125 100 80 65 102 87 90 
70 48 126 170 189 194 191 193 194 198 197 164 100 101 133 177 
96 48 50 51 55 122 150 164 162 161 159 158 156 156 154 107 103 103 128 163 172 171 136 80 91 97 100 99 101 95 163 195 
156 127 129 126 124 127 129 124 108 75 66 52 81 72 92 70 
77 132 176 185 184 183 185 191 195 153 105 121 155 167 181 100 
47 55 50 52 70 145 159 166 164 162 160 157 157 156 154 108 104 101 123 164 173 171 137 78 89 97 98 98 102 105 113 201 
176 123 128 123 127 127 124 86 79 61 76 48 68 60 71 93 
119 179 192 182 180 177 184 189 176 85 104 122 156 174 85 45 
53 56 48 54 103 140 167 165 164 164 161 159 158 156 154 108 104 98 118 162 173 173 138 77 87 97 98 99 104 111 102 176 
187 127 117 124 126 121 91 67 81 55 77 61 51 60 76 106 
156 183 179 176 176 177 191 195 196 123 82 108 149 73 45 53 
58 51 49 63 126 147 168 165 164 163 162 161 159 157 154 106 104 97 117 161 174 173 139 79 90 99 101 100 105 114 107 169 
166 114 119 123 124 78 66 48 67 68 65 88 49 60 118 145 
183 184 165 175 169 190 200 201 204 151 60 80 149 56 49 56 
60 48 49 91 136 153 161 165 163 163 163 161 159 158 154 105 103 97 116 161 174 173 140 82 90 102 103 101 111 120 115 139 
152 116 125 115 71 54 63 57 52 59 84 81 49 130 172 160 
179 177 166 163 180 195 202 205 211 179 72 53 141 61 55 59 
59 49 51 124 147 158 152 152 155 157 161 160 157 156 152 104 101 95 115 161 176 173 140 83 93 101 105 104 111 117 118 120 
133 128 127 77 65 48 63 60 56 57 69 62 117 158 181 166 
180 162 161 172 181 196 201 206 212 198 97 45 128 67 57 61 
54 52 71 139 160 163 161 160 154 148 148 149 151 154 152 102 100 96 114 161 175 174 139 82 91 102 104 103 111 118 128 118 
107 132 98 70 74 47 68 48 59 64 58 95 154 170 180 179 
128 135 158 178 178 189 195 199 207 195 96 43 110 85 63 64 
52 51 105 139 162 161 161 164 161 155 151 147 145 144 144 103 103 97 112 161 176 176 141 83 93 103 102 102 108 119 145 109 
93 104 74 71 83 52 59 57 51 68 70 150 183 172 173 131 
132 122 90 124 167 181 192 187 145 108 90 49 93 101 63 59 
52 57 127 148 161 158 157 157 158 155 155 156 151 145 136 100 98 91 107 161 177 175 142 81 89 101 99 96 126 151 152 127 
72 72 89 92 55 69 44 76 52 43 129 177 196 161 74 59 
56 76 79 128 147 176 200 122 74 61 60 48 86 113 64 52 
52 68 138 157 158 155 156 156 156 154 154 154 148 143 138 99 96 85 102 161 178 178 141 84 94 102 102 90 123 165 125 71 
68 66 68 105 48 51 63 48 47 83 158 187 182 106 63 86 
83 196 108 116 137 182 173 78 96 115 49 46 83 122 69 51 
51 100 144 158 156 153 153 154 153 152 149 146 139 133 142 102 97 84 100 161 179 180 144 89 100 110 89 105 146 137 70 80 
67 73 88 113 67 46 50 48 51 138 180 177 125 137 130 122 
142 166 148 125 133 188 173 133 136 90 63 51 78 131 69 49 
57 124 150 156 154 152 155 153 152 147 142 138 147 170 185 99 90 78 94 159 180 182 147 87 99 110 129 127 83 58 67 106 
72 66 94 105 75 48 49 45 99 167 180 107 133 152 157 153 
154 163 156 135 130 181 199 153 133 109 78 51 71 141 61 50 
64 135 156 154 151 153 151 150 147 142 137 167 190 191 190 91 83 71 90 158 179 181 147 87 99 122 132 110 81 69 102 98 
47 61 90 93 99 54 47 66 140 189 88 114 133 152 168 176 
175 174 156 142 130 170 204 164 141 127 85 56 63 151 52 49 
89 142 158 154 152 152 149 146 142 137 167 196 196 191 195 79 76 67 87 158 177 178 146 87 99 112 108 95 84 74 105 68 
50 49 58 52 116 75 39 104 178 115 67 118 132 147 162 176 
177 170 153 142 130 162 208 162 144 129 75 56 56 155 53 54 
114 153 157 154 151 149 147 145 138 151 194 194 196 200 204 78 75 62 85 157 174 175 145 82 114 128 91 106 77 86 115 80 
56 43 74 73 136 88 52 138 169 45 72 114 131 144 156 166 
170 165 145 133 125 151 212 158 143 125 60 62 53 144 70 55 
135 158 156 154 151 148 145 141 137 183 195 196 205 209 204 82 75 57 79 157 176 178 147 84 109 118 84 95 77 86 116 78 
52 46 83 107 72 44 114 155 72 47 82 112 130 140 150 155 
161 158 134 132 131 143 210 155 141 111 48 65 50 132 88 73 
145 158 153 151 151 150 146 138 156 197 196 204 207 207 208 82 77 65 93 158 174 178 148 92 96 110 83 96 81 73 105 115 
52 61 48 85 49 80 177 116 42 51 92 113 127 138 148 152 
157 157 137 123 110 123 181 150 136 76 49 66 54 116 98 102 
151 156 152 151 149 147 144 136 177 197 202 207 208 210 209 78 77 70 114 161 171 179 150 86 95 120 68 77 75 78 105 118 
75 102 51 82 132 117 140 48 59 54 100 118 128 135 144 148 
156 158 152 141 154 172 180 148 122 51 54 75 58 99 108 128 
153 155 152 149 148 147 143 139 189 199 208 207 210 210 210 73 71 68 116 161 172 178 151 84 101 120 78 83 64 72 85 93 
113 78 73 138 154 113 62 51 60 50 101 115 129 135 142 142 
148 151 149 152 190 192 179 142 85 50 58 76 58 80 123 141 
155 154 150 149 146 146 141 143 194 206 209 208 209 212 212 62 67 68 114 163 175 180 151 88 108 114 66 68 65 91 89 81 
107 92 156 177 114 83 59 49 63 52 91 105 129 132 140 142 
120 124 130 127 134 139 131 131 51 52 62 78 63 67 136 146 
156 153 149 149 147 145 140 146 200 210 210 209 212 214 214 57 63 71 119 164 177 180 151 111 102 109 73 51 75 109 87 98 
87 128 161 133 120 52 49 52 60 58 80 93 120 126 134 146 
136 121 126 145 159 154 143 86 49 49 61 81 68 59 150 151 
156 154 152 149 147 146 137 152 209 212 212 212 214 213 211 54 55 72 112 160 179 181 153 79 117 85 87 59 70 123 108 90 
118 132 156 148 59 56 53 54 60 60 75 76 105 117 129 138 
141 133 128 129 135 144 124 50 51 55 62 81 72 61 155 153 
156 154 154 152 147 144 135 154 216 214 216 215 210 208 208 51 50 86 117 155 177 179 151 81 108 78 70 62 56 122 121 107 
107 107 160 71 52 56 52 52 55 60 59 65 81 105 125 136 
140 144 151 164 160 149 75 47 55 58 65 84 74 61 160 152 
156 154 153 152 147 142 131 156 219 216 215 213 212 210 209 50 48 82 119 156 176 179 152 79 91 62 74 64 52 108 80 122 
123 120 90 56 53 62 54 52 51 57 58 62 61 68 105 125 
139 150 165 168 165 136 53 55 60 54 71 86 78 65 161 148 
153 151 150 150 144 139 127 171 219 212 215 213 207 197 163 50 44 67 108 158 174 176 146 115 110 60 66 61 47 121 87 95 
113 140 121 69 50 70 54 51 52 50 60 60 70 80 100 117 
129 144 156 161 159 147 76 57 58 53 73 90 83 73 155 119 
126 133 140 146 142 136 122 193 214 212 210 201 151 72 52 81 56 59 85 151 172 174 163 99 85 46 70 62 68 91 107 108 
105 110 105 130 64 68 59 52 52 51 58 58 66 111 127 130 
137 143 146 147 169 194 199 159 85 46 72 88 80 80 149 130 
123 116 110 111 117 120 114 199 207 209 204 150 63 63 83 134 108 76 66 146 171 175 150 123 66 42 89 68 90 61 98 101 
88 117 128 99 93 60 60 53 53 56 56 67 62 108 123 128 
139 141 142 153 174 190 195 202 206 134 61 80 73 84 148 145 
140 135 125 113 100 115 96 196 210 208 147 67 77 87 88 130 148 111 65 147 175 175 159 139 48 51 60 69 66 70 75 66 
81 109 137 104 109 70 60 56 55 60 62 86 61 110 122 134 
139 141 145 159 169 180 188 197 206 213 149 59 70 88 145 148 
144 142 138 130 122 127 130 209 214 190 78 89 93 103 93 77 154 144 65 149 178 178 157 109 42 56 54 51 83 50 64 80 
83 97 121 136 85 97 54 57 50 61 56 102 67 106 131 136 
140 142 147 156 164 173 182 193 202 210 218 104 55 94 143 147 
145 142 140 135 128 136 166 214 212 146 86 97 108 97 102 48 150 154 57 148 179 179 156 103 47 55 49 61 77 56 60 66 
92 92 120 125 77 106 56 64 51 55 59 105 73 110 131 137 
139 141 148 152 160 170 179 189 201 210 216 192 42 102 146 148 
145 141 136 132 127 177 204 217 201 108 95 109 99 99 103 38 139 157 57 148 179 180 157 89 54 46 46 88 66 58 48 51 
72 96 119 130 130 95 58 61 55 54 80 122 81 113 134 138 
137 139 145 149 158 165 176 187 198 209 213 220 76 111 149 146 
144 140 135 127 145 214 212 216 165 97 100 111 94 104 97 35 132 161 64 146 177 176 157 92 48 48 58 63 64 57 48 54 
68 78 129 101 97 88 86 80 56 57 103 126 80 119 135 141 
138 136 141 146 155 161 171 184 196 205 211 217 130 121 148 144 
141 140 135 127 160 211 213 205 131 103 105 101 98 100 89 37 117 163 73 143 177 178 159 95 48 51 61 54 58 53 53 58 
74 88 116 105 85 56 58 62 51 72 116 125 82 129 140 141 
140 137 140 145 152 159 167 178 192 202 209 214 181 130 145 145 
144 142 136 133 149 190 214 185 115 100 97 90 102 95 94 37 104 163 85 139 176 178 156 107 48 57 49 59 62 56 52 62 
73 75 77 75 121 54 50 46 52 92 122 102 98 136 141 145 
142 139 139 144 150 155 163 173 187 199 209 214 214 127 98 115 
132 139 140 147 141 160 216 160 101 95 83 100 94 97 81 36 96 172 95 134 174 179 160 98 54 47 57 57 58 59 48 55 
76 117 84 86 60 48 46 44 70 112 118 70 123 136 141 143 
143 140 137 140 147 152 160 169 182 195 206 212 216 133 87 83 
79 81 95 138 157 184 205 115 77 86 94 95 96 97 62 74 107 178 112 133 175 180 154 96 49 53 52 53 60 61 48 51 
55 89 125 101 47 45 43 53 94 118 77 95 134 138 140 142 
144 142 139 139 142 149 156 163 176 190 202 209 215 173 100 103 
87 65 44 122 185 200 158 68 75 89 97 85 103 88 60 92 125 177 126 132 175 182 149 94 49 50 52 50 61 63 58 62 
63 68 98 83 46 44 43 77 99 73 86 126 135 139 140 141 
144 144 142 141 140 146 152 161 169 182 196 207 213 207 94 106 
100 87 73 126 202 149 71 67 81 99 78 92 106 82 66 69 107 170 133 130 175 182 157 68 49 55 53 59 69 65 90 65 
62 75 110 78 45 45 49 64 77 108 124 129 133 137 140 142 
144 147 145 143 142 144 150 157 166 179 191 202 211 214 115 98 
106 102 107 121 137 84 78 80 103 79 76 111 102 68 62 57 82 181 160 131 176 184 146 59 50 55 60 61 74 56 103 65 
75 78 81 80 44 49 78 106 116 125 128 131 132 136 139 141 
142 146 147 147 146 146 150 154 164 174 184 196 207 212 144 92 
107 116 118 113 104 108 89 94 79 75 103 115 84 59 57 51 69 192 182 132 175 182 142 56 51 62 68 67 85 66 81 86 
83 63 65 87 69 73 99 115 122 127 128 131 132 136 136 140 
142 146 145 147 150 149 152 156 164 170 181 193 203 209 180 91 
99 116 126 120 128 112 91 85 85 95 126 95 56 58 88 