P2
# Created by IrfanView
64 64
255
133 107 99 109 105 128 141 133 138 131 120 141 143 146 142 144 144 
155 150 146 164 158 160 171 164 165 164 161 169 161 161 160 166 
168 171 172 168 176 174 169 173 166 168 164 174 187 180 189 200 
205 200 195 192 193 194 199 202 201 202 205 208 195 158 173 137 120 108 102 126 141 136 136 125 121 141 144 144 141 134 140 151 
142 148 161 156 157 158 157 151 158 165 166 154 154 166 163 167 
164 168 168 166 163 162 168 162 157 164 185 181 183 195 199 196 
190 192 194 196 196 200 202 203 203 204 208 209 165 166 153 147 128 100 119 138 129 135 126 123 140 138 144 138 128 132 152 140 
142 160 155 144 139 148 153 139 135 121 126 161 164 161 161 161 
165 161 161 162 161 161 151 154 179 183 177 192 199 197 189 186 
190 194 196 197 200 203 203 203 203 207 210 189 160 151 132 153 140 113 125 127 131 124 119 136 143 137 137 125 133 144 136 142 
152 140 111 128 118 106 106 111 153 156 121 129 139 153 149 149 
141 151 138 103 125 150 154 183 174 181 200 199 196 192 192 193 
195 198 199 200 202 204 204 204 206 210 206 165 131 93 94 147 146 114 120 121 121 115 133 139 136 131 124 130 135 134 138 144 
144 126 140 122 111 93 81 82 156 160 133 120 112 87 103 101 
89 69 60 70 53 165 174 163 184 195 198 193 196 195 194 193 
196 200 200 201 202 205 204 205 207 191 146 104 85 95 121 133 124 112 117 119 108 130 138 135 131 127 132 133 132 133 142 138 
115 137 124 113 108 117 101 94 109 127 98 70 73 93 73 74 
48 41 47 62 129 164 169 198 200 195 195 194 196 195 192 195 
197 199 200 199 204 206 205 172 127 96 92 90 98 125 179 133 139 122 116 108 124 138 137 129 122 130 135 131 128 140 134 118 
131 127 115 120 99 80 65 65 86 111 99 98 97 81 62 82 
45 38 57 151 143 172 190 194 196 194 193 192 194 193 192 194 
196 197 201 202 207 182 111 92 89 90 101 114 149 185 184 142 144 131 105 117 134 136 129 121 126 134 129 128 140 137 113 129 
131 106 83 80 79 60 54 73 109 100 62 87 93 85 57 79 
34 74 159 135 169 192 182 185 192 190 190 187 191 191 192 194 
197 198 200 181 133 130 100 95 102 122 149 166 181 189 81 139 141 117 114 135 135 126 115 128 129 127 121 136 135 140 118 126 
84 65 84 66 54 50 51 109 103 57 64 96 84 58 41 93 
87 155 137 184 191 184 181 186 185 186 185 187 189 191 192 195 
198 188 129 91 108 136 143 148 162 166 169 176 191 77 43 161 139 108 129 136 131 111 124 127 125 122 132 126 106 116 113 74 
72 78 59 52 59 42 75 87 61 64 103 103 63 72 46 128 
147 138 184 197 183 179 183 183 180 180 179 186 190 191 194 194 
142 84 74 125 111 126 160 165 169 171 183 195 87 43 45 174 112 126 130 128 111 127 127 120 122 130 134 126 86 77 77 76 
81 66 50 90 42 50 85 55 55 76 71 81 76 81 96 137 
139 188 197 191 185 182 180 181 175 177 179 188 192 191 188 147 
74 77 99 112 123 118 149 164 172 186 173 70 41 44 49 176 125 126 131 119 122 131 132 126 121 132 122 113 98 84 72 89 
54 42 67 94 41 59 78 50 56 53 67 66 101 110 110 129 
190 194 193 185 181 179 182 177 171 182 182 187 185 184 193 173 
99 88 101 99 129 117 141 169 190 147 54 44 44 51 54 168 136 119 116 116 129 124 116 124 128 123 112 77 73 80 91 81 
56 46 75 76 55 64 51 56 72 73 79 71 96 123 130 171 
185 184 186 178 176 177 175 176 175 181 182 189 191 195 199 189 
137 89 88 98 96 134 140 164 113 45 45 46 47 55 56 181 125 125 110 122 121 120 131 132 116 115 102 72 60 55 78 73 
64 54 65 89 78 45 48 48 50 44 58 94 81 120 150 170 
178 183 177 170 173 175 176 174 172 178 194 197 196 198 197 197 
163 102 68 73 82 119 143 144 88 43 42 46 56 55 59 140 112 120 122 119 113 135 134 125 101 68 61 74 47 47 66 74 
84 52 65 74 113 52 48 44 41 43 102 99 130 149 181 181 
187 184 168 163 171 179 164 168 180 194 198 200 197 198 201 198 
174 111 71 46 80 99 141 148 72 48 47 48 54 58 60 110 108 113 116 118 128 117 121 115 97 44 79 49 47 49 51 76 
71 62 71 50 110 78 64 37 38 116 121 148 162 140 182 184 
189 175 163 163 179 170 165 176 188 195 197 202 201 204 208 207 
187 128 79 43 61 81 151 153 56 46 48 50 55 57 62 113 119 110 114 131 124 99 80 70 70 51 84 43 56 55 49 55 
63 60 83 68 86 63 37 35 102 130 152 174 165 145 168 184 
182 170 170 170 161 161 171 183 190 197 199 202 202 207 210 211 
199 147 90 47 44 67 132 159 64 51 53 56 57 59 64 117 113 119 125 128 129 107 77 55 47 46 77 48 60 55 51 52 
58 53 91 92 77 97 32 89 136 149 177 180 174 150 171 191 
183 169 166 155 158 169 174 188 193 197 200 204 203 208 210 212 
204 165 97 54 37 62 113 158 74 54 54 54 60 61 64 122 114 132 130 131 105 68 55 83 41 43 78 58 61 53 53 54 
64 47 72 68 43 102 70 136 137 169 176 188 182 141 174 191 
168 162 157 159 168 173 175 185 195 197 200 204 205 208 210 214 
210 178 113 67 42 48 97 165 81 48 55 58 59 60 59 114 128 136 129 114 66 67 39 79 58 48 46 71 78 44 50 65 
57 56 52 82 32 72 132 130 165 161 170 188 185 155 181 171 
157 159 160 165 172 174 178 183 192 197 198 199 202 205 209 212 
211 191 126 82 44 43 82 167 85 53 56 57 62 64 54 146 124 130 121 102 58 78 38 98 45 48 74 86 56 43 51 69 
45 78 66 53 44 118 109 170 169 165 166 189 187 179 169 142 
153 162 166 170 176 178 178 179 187 195 196 196 199 203 206 211 
210 198 135 77 43 42 66 160 102 60 65 59 62 63 51 101 154 119 104 63 85 59 55 100 42 52 56 56 44 48 53 62 
58 72 66 44 99 116 165 172 185 160 167 192 194 155 97 103 
109 114 133 159 175 181 176 176 181 191 195 191 195 200 203 207 
201 172 113 57 43 40 64 147 120 57 63 61 68 62 49 124 137 90 77 67 87 45 82 97 38 57 64 67 55 47 41 72 
81 63 47 68 132 149 171 185 186 157 181 192 151 135 148 146 
134 97 75 81 117 164 173 172 177 189 193 189 193 195 189 161 
122 98 92 75 47 43 58 133 139 57 63 65 64 53 51 118 111 73 59 92 68 79 65 88 48 62 46 56 84 39 43 46 
71 56 39 127 141 175 179 196 174 171 189 128 116 122 125 104 
142 113 107 97 93 119 158 164 170 187 195 190 189 172 126 102 
103 107 106 86 61 44 58 123 140 66 62 60 65 51 51 57 48 71 86 98 75 95 50 62 63 72 42 43 90 61 43 47 
40 41 94 127 177 174 193 196 181 182 100 80 72 61 57 53 
60 48 78 122 125 126 142 156 164 188 196 197 185 132 92 65 
52 55 60 66 57 42 61 116 142 81 60 63 58 49 50 37 89 77 93 75 84 113 47 62 56 83 49 41 48 102 70 46 
39 52 131 163 172 180 198 193 184 96 63 50 51 50 47 66 
126 69 41 73 131 129 138 149 163 189 205 200 115 57 56 78 
86 49 56 57 48 44 59 107 147 81 65 64 52 48 50 78 65 71 55 62 104 99 47 48 45 63 75 44 45 51 49 55 
49 109 131 179 179 188 202 194 112 80 52 53 80 71 54 80 
194 179 85 94 115 120 134 143 162 193 215 152 60 56 62 113 
153 68 49 51 48 47 64 101 151 89 74 62 51 49 53 68 61 64 68 84 102 112 45 49 49 47 82 47 44 49 40 42 
65 106 159 162 182 199 195 133 117 112 87 58 109 83 75 122 
207 202 140 110 109 118 128 142 167 203 210 115 107 89 85 123 
159 79 46 47 45 44 69 97 161 85 81 58 50 51 55 56 62 77 83 98 93 125 64 48 46 44 52 55 47 49 38 44 
120 140 169 182 198 193 129 122 125 141 133 102 106 128 140 179 
194 185 149 127 127 120 129 137 167 212 203 114 123 127 137 170 
138 69 59 54 49 53 70 88 166 88 82 57 49 47 55 41 78 72 74 93 115 119 99 53 45 45 48 46 51 42 35 86 
116 175 174 193 196 122 115 132 137 143 145 139 135 118 115 134 
128 154 166 148 124 128 128 135 163 209 208 165 145 134 123 111 
76 73 81 56 47 55 71 83 168 96 82 53 50 49 55 56 59 70 97 86 104 125 97 56 46 49 47 49 48 38 46 132 
141 170 184 200 121 100 124 139 149 150 151 148 145 142 138 144 
150 160 157 151 129 135 130 130 160 205 214 175 154 138 132 123 
99 101 89 60 45 53 67 80 171 105 72 52 48 56 47 41 53 78 70 124 98 92 99 49 47 46 44 51 49 42 105 114 
170 185 200 133 88 115 128 138 151 156 164 163 164 161 162 169 
170 168 165 148 137 138 130 130 156 200 216 186 166 154 141 131 
121 115 100 62 49 58 65 73 172 113 70 51 44 52 45 40 52 92 93 94 110 132 91 76 55 50 45 47 45 62 129 141 
182 195 155 67 101 119 127 138 149 156 166 167 175 173 173 171 
172 173 162 148 142 137 131 127 148 196 219 188 173 155 144 136 
128 122 105 63 50 59 64 64 170 124 57 50 46 52 49 45 45 53 79 91 83 43 109 117 62 47 47 46 44 111 118 170 
192 186 55 74 109 122 128 137 148 154 164 172 177 176 178 177 
176 173 163 151 146 141 132 129 143 192 219 191 166 160 146 135 
130 125 107 61 53 63 63 57 165 142 53 46 48 47 59 49 48 51 56 61 64 38 110 129 77 43 41 42 59 132 144 191 
193 83 49 81 114 123 127 135 144 150 159 171 177 179 181 174 
174 169 159 150 148 142 132 130 142 186 221 194 166 160 148 139 
132 127 100 58 52 58 66 50 160 146 53 45 57 47 76 54 49 48 52 61 56 45 107 115 133 49 36 37 107 116 176 199 
139 44 55 80 113 122 130 134 143 149 154 161 170 176 178 174 
171 165 156 144 141 137 127 129 142 174 218 197 165 157 150 140 
131 124 90 52 51 59 63 44 159 150 73 41 59 51 102 54 42 44 51 73 60 67 127 110 114 104 36 49 128 133 202 189 
50 45 62 79 107 121 130 134 141 149 155 159 165 173 172 172 
170 163 153 137 135 134 126 125 136 169 214 206 162 156 147 138 
132 123 78 46 57 63 63 41 145 146 93 43 54 52 124 51 39 44 68 102 64 100 149 153 58 75 29 94 120 168 202 81 
36 47 70 77 107 122 128 132 138 146 153 156 160 163 166 168 
165 161 150 137 131 130 124 123 133 163 206 219 159 153 147 138 
131 114 66 47 56 70 63 40 131 153 101 42 46 68 136 49 48 44 75 77 113 107 81 91 42 42 54 119 130 191 126 36 
39 52 80 79 102 119 128 132 136 143 149 152 154 157 161 163 
162 155 146 129 124 134 127 123 133 158 199 223 162 152 148 137 
128 105 49 47 58 71 62 38 116 154 119 45 40 93 142 59 50 41 71 109 85 119 70 44 39 51 148 136 134 164 85 38 
42 56 90 77 105 120 127 130 136 143 145 151 152 156 157 160 
160 152 144 116 128 139 140 132 127 154 197 220 157 149 143 133 
125 83 43 48 58 71 60 40 95 160 134 49 39 118 146 54 68 37 52 55 66 95 48 41 35 100 175 179 179 111 40 39 
45 55 92 82 105 120 126 129 135 140 144 150 152 153 155 159 
158 154 144 122 132 114 96 117 121 137 183 196 150 147 142 132 
114 52 44 52 59 68 58 46 77 164 134 56 51 133 146 51 72 66 38 47 109 67 51 52 52 129 168 183 134 38 44 45 
47 56 101 89 108 119 125 130 134 140 146 148 149 152 156 157 
158 156 149 133 126 116 111 112 106 125 168 175 156 146 139 131 
87 49 46 52 65 69 59 50 59 162 138 61 79 144 146 47 84 140 37 53 81 58 92 120 138 107 131 172 45 41 64 53 
44 59 109 89 112 121 125 129 131 136 143 145 146 149 154 155 
158 158 154 148 139 131 135 139 142 182 190 170 153 145 135 123 
56 48 48 55 74 74 60 52 48 158 137 74 98 147 147 60 77 104 57 56 62 124 139 173 113 110 175 81 51 54 59 59 
50 62 110 93 113 123 127 129 133 139 142 143 144 150 154 156 
158 158 154 151 148 143 155 186 167 196 192 167 149 142 134 96 
51 48 49 63 78 73 61 59 43 144 138 83 122 146 149 77 103 71 45 60 118 154 177 154 94 126 104 43 49 48 51 65 
50 50 107 97 111 121 127 129 132 137 141 140 142 145 149 151 
152 155 150 149 149 151 170 204 179 201 194 165 146 141 131 59 
49 49 49 64 80 71 64 53 40 124 141 98 134 145 153 123 91 44 83 104 117 161 179 101 103 127 41 58 54 50 53 71 
50 47 100 96 107 120 127 129 132 138 143 140 139 141 143 146 
147 148 147 147 151 156 177 208 185 202 195 161 142 139 103 46 
51 48 52 64 80 72 61 54 40 115 143 109 139 145 155 131 70 67 122 175 179 189 115 100 146 51 41 83 50 49 54 73 
54 47 93 92 98 117 127 130 131 136 138 141 138 140 138 134 
138 141 143 143 147 148 145 158 174 159 158 139 132 138 64 46 
54 50 54 68 80 75 66 59 39 100 142 122 143 145 156 95 90 137 134 190 207 132 101 138 88 45 46 63 47 48 58 66 
59 45 89 87 90 113 125 130 128 132 136 142 144 144 110 95 
103 112 115 115 108 103 107 121 126 97 112 112 141 111 47 47 
51 49 58 66 76 78 56 66 42 85 141 137 147 147 155 77 91 141 132 202 180 101 123 137 48 51 46 55 53 51 59 61 
65 47 82 84 85 108 121 125 125 129 135 138 147 146 135 125 
117 115 120 127 131 137 142 156 163 139 137 141 139 62 46 51 
48 51 63 60 79 79 59 74 45 72 148 146 150 149 157 99 130 147 128 182 114 136 158 60 51 53 46 47 55 47 57 62 
68 49 71 83 74 101 113 120 122 125 129 133 143 146 145 135 
126 126 126 129 145 163 169 169 173 140 145 145 96 44 46 52 
44 51 55 61 82 80 61 77 48 69 156 148 151 151 157 113 147 146 133 167 142 175 74 53 53 57 54 53 53 55 59 61 
69 52 75 78 68 91 107 112 117 123 129 132 138 140 144 139 
133 127 127 126 130 137 143 137 135 145 148 126 57 48 49 51 
51 54 56 65 77 80 69 76 51 68 157 151 153 153 156 114 108 125 145 174 179 93 52 53 54 58 50 54 50 56 60 60 
63 54 67 75 64 78 97 104 110 117 124 129 134 139 142 140 
135 132 131 129 124 122 125 133 149 145 140 79 49 44 48 52 
61 53 54 74 79 82 66 76 57 66 158 152 151 154 155 114 94 117 155 198 126 49 51 49 53 57 52 54 52 52 56 59 
61 58 56 65 62 71 84 97 106 114 125 128 134 138 138 139 
139 140 140 148 154 159 155 156 152 144 110 60 47 46 50 56 
59 53 49 76 80 83 70 76 58 62 159 157 147 155 157 126 123 91 129 157 56 49 53 52 53 60 48 55 50 52 47 56 
57 59 52 61 60 66 62 80 94 106 118 129 133 137 139 143 
145 153 156 157 168 170 164 160 152 148 68 58 46 47 53 60 
59 57 50 83 82 87 70 79 64 59 160 161 146 157 157 129 136 92 101 95 66 51 56 51 58 61 48 58 49 54 47 51 
58 56 55 59 64 61 63 51 69 89 105 122 128 134 139 146 
149 156 169 166 168 165 171 165 150 134 47 60 52 51 55 63 
51 57 52 87 86 87 76 75 70 56 163 160 147 156 157 123 142 109 95 69 54 51 53 51 59 67 49 61 50 55 51 51 
53 57 58 58 62 58 73 54 48 62 85 104 112 125 130 139 
145 149 158 166 170 165 165 158 146 115 46 58 57 56 56 67 
55 53 54 91 86 85 79 80 74 58 160 159 144 145 149 115 149 138 145 119 50 50 52 53 66 71 45 63 51 51 53 50 
48 54 61 61 64 58 68 75 61 64 72 78 90 102 113 125 
134 144 150 157 165 157 154 144 136 101 50 54 57 57 55 64 
55 52 58 89 91 87 80 84 74 67 162 153 126 122 131 106 135 135 80 135 127 49 46 50 66 72 42 64 50 49 54 49 
49 51 58 58 60 54 59 77 86 107 119 129 133 140 136 139 
142 152 157 156 159 162 166 171 182 167 123 74 57 55 54 58 
51 53 58 84 90 90 80 84 72 76 161 144 115 111 114 89 101 124 99 88 150 127 49 53 70 71 47 69 52 52 52 52 
50 53 54 60 59 54 54 80 99 120 129 126 128 133 135 138 
141 148 149 147 146 148 159 174 189 198 200 194 146 85 55 54 
50 49 62 90 90 87 77 86 77 82 162 136 123 125 117 91 103 112 98 133 140 101 102 49 63 65 46 73 50 50 48 55 
50 50 52 62 59 56 52 77 103 121 124 126 126 129 137 137 
140 143 141 142 143 149 163 177 190 197 200 202 203 200 153 76 
43 39 53 83 88 83 75 82 71 87 159 135 135 136 133 107 106 118 117 124 131 70 117 68 62 61 42 72 51 50 47 57 
56 50 54 58 67 61 52 70 101 114 122 124 128 129 135 137 
140 140 140 142 146 155 167 180 189 192 195 199 202 203 207 202 
123 45 53 75 86 78 71 76 70 95 155 141 144 140 140 89 119 124 140 128 86 104 68 117 59 55 47 75 55 53 50 55 
62 54 52 60 66 72 55 70 99 116 119 126 126 128 137 143 
142 139 137 144 149 159 169 179 187 188 192 194 199 203 206 209 
211 156 59 58 79 73 69 76 62 106 149 145 147 146 143 95 99 128 135 148 80 111 96 120 69 47 45 71 55 53 52 55 
64 52 53 66 70 91 54 65 99 116 126 121 124 138 137 140 
141 139 140 146 155 161 166 174 181 184 188 191 196 199 204 208 
211 214 165 60 70 62 70 75 57 113 147 144 150 146 144 86 98 109 138 126 125 99 138 78 115 47 49 74 61 54 52 56 
67 56 55 71 74 106 67 58 102 120 117 122 134 138 139 140 
141 140 143 150 156 161 165 169 175 178 183 187 193 197 202 207 
210 214 217 151 55 49 66 67 56 126 141 146 149 146 142 