P1
# Created by GIMP version 2.10.12 PNM plug-in
32 30
1111111111111111111111111111111111111111111111111111111111111111111111
0000000000111111111111111111110000000000000111111111111111111000000000
0000001111111111111111000000000000000001111111111111110000000001110000
0000000001111111000000011111100000000000001111110000001111111100000000
0000011111000000111111111111111100000111110000011111111111111111100000
1111000001111111111111111100000011110000011111111111110000000000111100
0001111111111110000000000111110000001111111111100000000111111100000000
1111111110001111111111110000000001111111100011111111111110000000001111
1110000000011111111100000000011111100000000011111111100000000011111100
0000000111111111110000001111111111000000111111111110000011111111110000
0011111111111000001111111111000000111111111110000000000000000000001111
1111111000000000000000000000111111111110000000000000000000001111111111
1100000000000000000001111111111111100000000000000000111111111111111111
11111111111111111111111111111111111111111111111111