P3
# Created by IrfanView
80 60
255
16 64 32 16 64 32 16 64 32 16 64 32 16 64 32 
16 64 32 16 64 32 16 64 32 16 64 32 16 64 32 
16 64 32 16 64 32 16 64 32 16 64 32 16 64 32 
16 64 32 16 64 32 16 64 32 16 64 32 16 64 32 
16 64 32 16 64 32 16 64 32 16 64 32 16 64 32 
16 64 32 16 64 32 16 64 32 16 64 32 16 64 32 
16 64 32 16 64 32 16 64 32 16 64 32 16 64 32 
16 64 32 16 64 32 16 64 32 16 64 32 16 64 32 
16 64 32 16 64 32 16 64 32 16 64 32 16 64 32 
16 64 32 16 64 32 16 64 32 16 64 32 16 64 32 
16 64 32 16 64 32 16 64 32 16 64 32 16 64 32 
16 64 32 16 64 32 16 64 32 16 64 32 16 64 32 
16 64 32 16 64 32 16 64 32 16 64 32 16 64 32 
16 64 32 16 64 32 16 64 32 16 64 32 16 64 32 
16 64 32 16 64 32 16 64 32 16 64 32 16 64 32 
16 64 32 16 64 32 16 64 32 16 64 32 16 64 32 
16 64 32 16 64 32 16 64 32 16 64 32 16 64 32 
16 64 32 16 64 32 16 64 32 16 64 32 16 64 32 
16 64 32 16 64 32 16 64 32 16 64 32 16 64 32 
16 64 32 16 64 32 16 64 32 16 64 32 16 64 32 
16 64 32 16 64 32 16 64 32 16 64 32 16 64 32 
16 64 32 16 64 32 16 64 32 16 64 32 16 64 32 
16 64 32 16 64 32 16 64 32 16 64 32 16 64 32 
16 64 32 16 64 32 16 64 32 16 64 32 16 64 32 
16 64 32 16 64 32 16 64 32 16 64 32 16 64 32 
16 64 32 16 64 32 16 64 32 16 64 32 16 64 32 
16 64 32 16 64 32 16 64 32 16 64 32 16 64 32 
16 64 32 16 64 32 16 64 32 16 64 32 16 64 32 
16 64 32 16 64 32 16 64 32 16 64 32 16 64 32 
16 64 32 16 64 32 16 64 32 16 64 32 16 64 32 
16 64 32 16 64 32 16 64 32 16 64 32 16 64 32 
16 64 32 16 64 32 16 64 32 16 64 32 16 64 32 
16 64 32 16 64 32 16 64 32 16 64 32 16 64 32 
16 64 32 16 64 32 16 64 32 16 64 32 16 64 32 
16 64 32 16 64 32 16 64 32 16 64 32 16 64 32 
16 64 32 16 64 32 16 64 32 16 64 32 16 64 32 
16 64 32 16 64 32 16 64 32 16 64 32 16 64 32 
16 64 32 16 64 32 16 64 32 16 64 32 16 64 32 
16 64 32 16 64 32 16 64 32 16 64 32 16 64 32 
16 64 32 16 64 32 16 64 32 16 64 32 16 64 32 
16 64 32 16 64 32 16 64 32 16 64 32 16 64 32 
16 64 32 16 64 32 16 64 32 16 64 32 16 64 32 
16 64 32 16 64 32 16 64 32 16 64 32 16 64 32 
16 64 32 16 64 32 16 64 32 16 64 32 16 64 32 
16 64 32 16 64 32 16 64 32 16 64 32 16 64 32 
16 64 32 16 64 32 16 64 32 16 64 32 16 64 32 
16 64 32 16 64 32 16 64 32 16 64 32 16 64 32 
16 64 32 16 64 32 16 64 32 16 64 32 16 64 32 
16 64 32 16 64 32 16 64 32 16 64 32 16 64 32 
16 64 32 16 64 32 16 64 32 16 64 32 16 64 32 
16 64 32 16 64 32 16 64 32 16 64 32 16 64 32 
16 64 32 16 64 32 16 64 32 16 64 32 16 64 32 
16 64 32 16 64 32 16 64 32 16 64 32 16 64 32 
16 64 32 16 64 32 16 64 32 16 64 32 16 64 32 
16 64 32 16 64 32 16 64 32 16 64 32 16 64 32 
16 64 32 16 64 32 16 64 32 16 64 32 16 64 32 
16 64 32 16 64 32 16 64 32 16 64 32 16 64 32 
16 64 32 16 64 32 16 64 32 16 64 32 16 64 32 
16 64 32 16 64 32 16 64 32 16 64 32 16 64 32 
16 64 32 16 64 32 16 64 32 16 64 32 16 64 32 
16 64 32 16 64 32 16 64 32 16 64 32 16 64 32 
16 64 32 16 64 32 16 64 32 16 64 32 16 64 32 
16 64 32 16 64 32 16 64 32 16 64 32 16 64 32 
16 64 32 16 64 32 16 64 32 16 64 32 16 64 32 
16 64 32 16 64 32 16 64 32 16 64 32 16 64 32 
16 64 32 16 64 32 16 64 32 16 64 32 16 64 32 
16 64 32 16 64 32 16 64 32 16 64 32 16 64 32 
16 64 32 16 64 32 16 64 32 16 64 32 16 64 32 
16 64 32 16 64 32 16 64 32 16 64 32 16 64 32 
16 64 32 16 64 32 16 64 32 16 64 32 16 64 32 
16 64 32 16 64 32 16 64 32 16 64 32 16 64 32 
16 64 32 16 64 32 16 64 32 16 64 32 16 64 32 
16 64 32 16 64 32 16 64 32 16 64 32 16 64 32 
16 64 32 16 64 32 16 64 32 16 64 32 16 64 32 
16 64 32 16 64 32 16 64 32 16 64 32 16 64 32 
16 64 32 16 64 32 16 64 32 16 64 32 16 64 32 
16 64 32 16 64 32 16 64 32 16 64 32 16 64 32 
16 64 32 16 64 32 16 64 32 16 64 32 16 64 32 
16 64 32 16 64 32 16 64 32 16 64 32 16 64 32 
16 64 32 16 64 32 16 64 32 16 64 32 16 64 32 
16 64 32 16 64 32 16 64 32 16 64 32 16 64 32 
16 64 32 16 64 32 16 64 32 16 64 32 16 64 32 
16 64 32 16 64 32 16 64 32 16 64 32 16 64 32 
16 64 32 16 64 32 16 64 32 16 64 32 16 64 32 
16 64 32 16 64 32 16 64 32 16 64 32 16 64 32 
16 64 32 16 64 32 16 64 32 16 64 32 16 64 32 
16 64 32 16 64 32 16 64 32 16 64 32 16 64 32 
16 64 32 16 64 32 16 64 32 16 64 32 16 64 32 
16 64 32 16 64 32 16 64 32 16 64 32 16 64 32 
16 64 32 16 64 32 16 64 32 16 64 32 16 64 32 
16 64 32 16 64 32 16 64 32 16 64 32 16 64 32 
16 64 32 16 64 32 16 64 32 16 64 32 16 64 32 
16 64 32 16 64 32 16 64 32 16 64 32 16 64 32 
16 64 32 16 64 32 16 64 32 16 64 32 16 64 32 
16 64 32 16 64 32 16 64 32 16 64 32 16 64 32 
16 64 32 16 64 32 16 64 32 16 64 32 16 64 32 
16 64 32 16 64 32 16 64 32 16 64 32 16 64 32 
16 64 32 16 64 32 16 64 32 16 64 32 16 64 32 
16 64 32 16 64 32 16 64 32 16 64 32 16 64 32 
16 64 32 16 64 32 16 64 32 16 64 32 16 64 32 
16 64 32 16 64 32 16 64 32 16 64 32 16 64 32 
16 64 32 16 64 32 16 64 32 16 64 32 16 64 32 
16 64 32 16 64 32 16 64 32 16 64 32 16 64 32 
16 64 32 16 64 32 16 64 32 16 64 32 16 64 32 
16 64 32 16 64 32 16 64 32 16 64 32 16 64 32 
16 64 32 16 64 32 16 64 32 16 64 32 16 64 32 
16 64 32 16 64 32 16 64 32 16 64 32 16 64 32 
16 64 32 16 64 32 16 64 32 16 64 32 16 64 32 
16 64 32 16 64 32 16 64 32 16 64 32 16 64 32 
16 64 32 16 64 32 16 64 32 16 64 32 16 64 32 
16 64 32 16 64 32 16 64 32 16 64 32 16 64 32 
16 64 32 16 64 32 16 64 32 16 64 32 16 64 32 
16 64 32 16 64 32 16 64 32 16 64 32 16 64 32 
16 64 32 16 64 32 16 64 32 16 64 32 16 64 32 
16 64 32 16 64 32 16 64 32 16 64 32 16 64 32 
16 64 32 16 64 32 16 64 32 16 64 32 16 64 32 
16 64 32 16 64 32 16 64 32 16 64 32 16 64 32 
16 64 32 16 64 32 16 64 32 16 64 32 16 64 32 
16 64 32 16 64 32 16 64 32 16 64 32 16 64 32 
16 64 32 16 64 32 16 64 32 16 64 32 16 64 32 
16 64 32 16 64 32 16 64 32 16 64 32 16 64 32 
16 64 32 16 64 32 16 64 32 16 64 32 16 64 32 
16 64 32 16 64 32 16 64 32 16 64 32 16 64 32 
16 64 32 16 64 32 16 64 32 16 64 32 16 64 32 
16 64 32 16 64 32 16 64 32 16 64 32 16 64 32 
16 64 32 16 64 32 16 64 32 16 64 32 16 64 32 
16 64 32 16 64 32 16 64 32 16 64 32 16 64 32 
16 64 32 16 64 32 16 64 32 16 64 32 16 64 32 
16 64 32 16 64 32 16 64 32 16 64 32 16 64 32 
16 64 32 16 64 32 16 64 32 16 64 32 16 64 32 
16 64 32 16 64 32 16 64 32 16 64 32 16 64 32 
16 64 32 16 64 32 16 64 32 16 64 32 16 64 32 
16 64 32 16 64 32 16 64 32 16 64 32 16 64 32 
16 64 32 16 64 32 16 64 32 16 64 32 16 64 32 
16 64 32 16 64 32 16 64 32 16 64 32 16 64 32 
16 64 32 16 64 32 16 64 32 16 64 32 16 64 32 
16 64 32 16 64 32 16 64 32 16 64 32 16 64 32 
16 64 32 16 64 32 16 64 32 16 64 32 16 64 32 
16 64 32 16 64 32 16 64 32 16 64 32 16 64 32 
16 64 32 16 64 32 16 64 32 16 64 32 16 64 32 
16 64 32 16 64 32 16 64 32 16 64 32 16 64 32 
16 64 32 16 64 32 16 64 32 16 64 32 16 64 32 
16 64 32 16 64 32 16 64 32 16 64 32 16 64 32 
16 64 32 16 64 32 16 64 32 16 64 32 16 64 32 
16 64 32 16 64 32 16 64 32 16 64 32 16 64 32 
16 64 32 16 64 32 16 64 32 16 64 32 16 64 32 
16 64 32 16 64 32 16 64 32 16 64 32 16 64 32 
16 64 32 16 64 32 16 64 32 16 64 32 16 64 32 
16 64 32 16 64 32 16 64 32 16 64 32 16 64 32 
16 64 32 16 64 32 16 64 32 16 64 32 16 64 32 
16 64 32 16 64 32 16 64 32 16 64 32 16 64 32 
16 64 32 16 64 32 16 64 32 16 64 32 16 64 32 
16 64 32 16 64 32 16 64 32 16 64 32 16 64 32 
16 64 32 16 64 32 16 64 32 16 64 32 16 64 32 
16 64 32 16 64 32 16 64 32 16 64 32 16 64 32 
16 64 32 16 64 32 16 64 32 16 64 32 16 64 32 
16 64 32 16 64 32 16 64 32 16 64 32 16 64 32 
16 64 32 16 64 32 16 64 32 16 64 32 16 64 32 
16 64 32 16 64 32 16 64 32 16 64 32 16 64 32 
16 64 32 16 64 32 16 64 32 16 64 32 16 64 32 
16 64 32 16 64 32 16 64 32 16 64 32 16 64 32 
16 64 32 16 64 32 16 64 32 16 64 32 16 64 32 
16 64 32 16 64 32 16 64 32 16 64 32 16 64 32 
16 64 32 16 64 32 16 64 32 16 64 32 16 64 32 
16 64 32 16 64 32 16 64 32 16 64 32 16 64 32 
16 64 32 16 64 32 16 64 32 16 64 32 16 64 32 
16 64 32 16 64 32 16 64 32 16 64 32 16 64 32 
16 64 32 16 64 32 16 64 32 16 64 32 16 64 32 
16 64 32 16 64 32 16 64 32 16 64 32 16 64 32 
16 64 32 16 64 32 16 64 32 16 64 32 16 64 32 
16 64 32 16 64 32 16 64 32 16 64 32 16 64 32 
16 64 32 16 64 32 16 64 32 16 64 32 16 64 32 
16 64 32 16 64 32 16 64 32 16 64 32 16 64 32 
16 64 32 16 64 32 16 64 32 16 64 32 16 64 32 
16 64 32 16 64 32 16 64 32 16 64 32 16 64 32 
16 64 32 16 64 32 16 64 32 16 64 32 16 64 32 
16 64 32 16 64 32 16 64 32 16 64 32 16 64 32 
16 64 32 16 64 32 16 64 32 16 64 32 16 64 32 
16 64 32 16 64 32 16 64 32 16 64 32 16 64 32 
16 64 32 16 64 32 16 64 32 16 64 32 16 64 32 
16 64 32 16 64 32 16 64 32 16 64 32 16 64 32 
16 64 32 16 64 32 16 64 32 16 64 32 16 64 32 
16 64 32 16 64 32 16 64 32 16 64 32 16 64 32 
16 64 32 16 64 32 16 64 32 16 64 32 16 64 32 
16 64 32 16 64 32 16 64 32 16 64 32 16 64 32 
16 64 32 16 64 32 16 64 32 16 64 32 16 64 32 
16 64 32 16 64 32 16 64 32 16 64 32 16 64 32 
16 64 32 16 64 32 16 64 32 16 64 32 16 64 32 
16 64 32 16 64 32 16 64 32 16 64 32 16 64 32 
16 64 32 16 64 32 16 64 32 16 64 32 16 64 32 
16 64 32 16 64 32 16 64 32 16 64 32 16 64 32 
16 64 32 16 64 32 16 64 32 16 64 32 16 64 32 
16 64 32 16 64 32 16 64 32 16 64 32 16 64 32 
16 64 32 16 64 32 16 64 32 16 64 32 16 64 32 
16 64 32 16 64 32 16 64 32 16 64 32 16 64 32 
16 64 32 16 64 32 16 64 32 16 64 32 16 64 32 
16 64 32 16 64 32 16 64 32 16 64 32 16 64 32 
16 64 32 16 64 32 16 64 32 16 64 32 16 64 32 
16 64 32 16 64 32 16 64 32 16 64 32 16 64 32 
16 64 32 16 64 32 16 64 32 16 64 32 16 64 32 
16 64 32 16 64 32 16 64 32 16 64 32 16 64 32 
16 64 32 16 64 32 16 64 32 16 64 32 16 64 32 
16 64 32 16 64 32 16 64 32 16 64 32 16 64 32 
16 64 32 16 64 32 16 64 32 16 64 32 16 64 32 
16 64 32 16 64 32 16 64 32 16 64 32 16 64 32 
16 64 32 16 64 32 16 64 32 16 64 32 16 64 32 
16 64 32 16 64 32 16 64 32 16 64 32 16 64 32 
16 64 32 16 64 32 16 64 32 16 64 32 16 64 32 
16 64 32 16 64 32 16 64 32 16 64 32 16 64 32 
16 64 32 16 64 32 16 64 32 16 64 32 16 64 32 
16 64 32 16 64 32 16 64 32 16 64 32 16 64 32 
16 64 32 16 64 32 16 64 32 16 64 32 16 64 32 
16 64 32 16 64 32 16 64 32 16 64 32 16 64 32 
16 64 32 16 64 32 16 64 32 16 64 32 16 64 32 
16 64 32 16 64 32 16 64 32 16 64 32 16 64 32 
16 64 32 16 64 32 16 64 32 16 64 32 16 64 32 
16 64 32 16 64 32 16 64 32 16 64 32 16 64 32 
16 64 32 16 64 32 16 64 32 16 64 32 16 64 32 
16 64 32 16 64 32 16 64 32 16 64 32 16 64 32 
16 64 32 16 64 32 16 64 32 16 64 32 16 64 32 
16 64 32 16 64 32 16 64 32 16 64 32 16 64 32 
16 64 32 16 64 32 16 64 32 16 64 32 16 64 32 
16 64 32 16 64 32 16 64 32 16 64 32 16 64 32 
16 64 32 16 64 32 16 64 32 16 64 32 16 64 32 
16 64 32 16 64 32 16 64 32 16 64 32 16 64 32 
16 64 32 16 64 32 16 64 32 16 64 32 16 64 32 
16 64 32 16 64 32 16 64 32 16 64 32 16 64 32 
16 64 32 16 64 32 16 64 32 16 64 32 16 64 32 
16 64 32 16 64 32 16 64 32 16 64 32 16 64 32 
16 64 32 16 64 32 16 64 32 16 64 32 16 64 32 
16 64 32 16 64 32 16 64 32 16 64 32 16 64 32 
16 64 32 16 64 32 16 64 32 16 64 32 16 64 32 
16 64 32 16 64 32 16 64 32 16 64 32 16 64 32 
16 64 32 16 64 32 16 64 32 16 64 32 16 64 32 
16 64 32 16 64 32 16 64 32 16 64 32 16 64 32 
16 64 32 16 64 32 16 64 32 16 64 32 16 64 32 
16 64 32 16 64 32 16 64 32 16 64 32 16 64 32 
16 64 32 16 64 32 16 64 32 16 64 32 16 64 32 
16 64 32 16 64 32 16 64 32 16 64 32 16 64 32 
16 64 32 16 64 32 16 64 32 16 64 32 16 64 32 
16 64 32 16 64 32 16 64 32 16 64 32 16 64 32 
16 64 32 16 64 32 16 64 32 16 64 32 16 64 32 
16 64 32 16 64 32 16 64 32 16 64 32 16 64 32 
16 64 32 16 64 32 16 64 32 16 64 32 16 64 32 
16 64 32 16 64 32 16 64 32 16 64 32 16 64 32 
16 64 32 16 64 32 16 64 32 16 64 32 16 64 32 
16 64 32 16 64 32 16 64 32 16 64 32 16 64 32 
16 64 32 16 64 32 16 64 32 16 64 32 16 64 32 
16 64 32 16 64 32 16 64 32 16 64 32 16 64 32 
16 64 32 16 64 32 16 64 32 16 64 32 16 64 32 
16 64 32 16 64 32 16 64 32 16 64 32 16 64 32 
16 64 32 16 64 32 16 64 32 16 64 32 16 64 32 
16 64 32 16 64 32 16 64 32 16 64 32 16 64 32 
16 64 32 16 64 32 16 64 32 16 64 32 16 64 32 
16 64 32 16 64 32 16 64 32 16 64 32 16 64 32 
16 64 32 16 64 32 16 64 32 16 64 32 16 64 32 
16 64 32 16 64 32 16 64 32 16 64 32 16 64 32 
16 64 32 16 64 32 16 64 32 16 64 32 16 64 32 
16 64 32 16 64 32 16 64 32 16 64 32 16 64 32 
16 64 32 16 64 32 16 64 32 16 64 32 16 64 32 
16 64 32 16 64 32 16 64 32 16 64 32 16 64 32 
16 64 32 16 64 32 16 64 32 16 64 32 16 64 32 
16 64 32 16 64 32 16 64 32 16 64 32 16 64 32 
16 64 32 16 64 32 16 64 32 16 64 32 16 64 32 
16 64 32 16 64 32 16 64 32 16 64 32 16 64 32 
16 64 32 16 64 32 16 64 32 16 64 32 16 64 32 
16 64 32 16 64 32 16 64 32 16 64 32 16 64 32 
16 64 32 16 64 32 16 64 32 16 64 32 16 64 32 
16 64 32 16 64 32 16 64 32 16 64 32 16 64 32 
16 64 32 16 64 32 16 64 32 16 64 32 16 64 32 
16 64 32 16 64 32 16 64 32 16 64 32 16 64 32 
16 64 32 16 64 32 16 64 32 16 64 32 16 64 32 
16 64 32 16 64 32 16 64 32 16 64 32 16 64 32 
16 64 32 16 64 32 16 64 32 16 64 32 16 64 32 
16 64 32 16 64 32 16 64 32 16 64 32 16 64 32 
16 64 32 16 64 32 16 64 32 16 64 32 16 64 32 
16 64 32 16 64 32 16 64 32 16 64 32 16 64 32 
16 64 32 16 64 32 16 64 32 16 64 32 16 64 32 
16 64 32 16 64 32 16 64 32 16 64 32 16 64 32 
16 64 32 16 64 32 16 64 32 16 64 32 16 64 32 
16 64 32 16 64 32 16 64 32 16 64 32 16 64 32 
16 64 32 16 64 32 16 64 32 16 64 32 16 64 32 
16 64 32 16 64 32 16 64 32 16 64 32 16 64 32 
16 64 32 16 64 32 16 64 32 16 64 32 16 64 32 
16 64 32 16 64 32 16 64 32 16 64 32 16 64 32 
16 64 32 16 64 32 16 64 32 16 64 32 16 64 32 
16 64 32 16 64 32 16 64 32 16 64 32 16 64 32 
16 64 32 16 64 32 16 64 32 16 64 32 16 64 32 
16 64 32 16 64 32 16 64 32 16 64 32 16 64 32 
16 64 32 16 64 32 16 64 32 16 64 32 16 64 32 
16 64 32 16 64 32 16 64 32 16 64 32 16 64 32 
16 64 32 16 64 32 16 64 32 16 64 32 16 64 32 
16 64 32 16 64 32 16 64 32 16 64 32 16 64 32 
16 64 32 16 64 32 16 64 32 16 64 32 16 64 32 
16 64 32 16 64 32 16 64 32 16 64 32 16 64 32 
16 64 32 16 64 32 16 64 32 16 64 32 16 64 32 
16 64 32 16 64 32 16 64 32 16 64 32 16 64 32 
16 64 32 16 64 32 16 64 32 16 64 32 16 64 32 
16 64 32 16 64 32 16 64 32 16 64 32 16 64 32 
16 64 32 16 64 32 16 64 32 16 64 32 16 64 32 
16 64 32 16 64 32 16 64 32 16 64 32 16 64 32 
16 64 32 16 64 32 16 64 32 16 64 32 16 64 32 
16 64 32 16 64 32 16 64 32 16 64 32 16 64 32 
16 64 32 16 64 32 16 64 32 16 64 32 16 64 32 
16 64 32 16 64 32 16 64 32 16 64 32 16 64 32 
16 64 32 16 64 32 16 64 32 16 64 32 16 64 32 
16 64 32 16 64 32 16 64 32 16 64 32 16 64 32 
16 64 32 16 64 32 16 64 32 16 64 32 16 64 32 
16 64 32 16 64 32 16 64 32 16 64 32 16 64 32 
16 64 32 16 64 32 16 64 32 16 64 32 16 64 32 
16 64 32 16 64 32 16 64 32 16 64 32 16 64 32 
16 64 32 16 64 32 16 64 32 16 64 32 16 64 32 
16 64 32 16 64 32 16 64 32 16 64 32 16 64 32 
16 64 32 16 64 32 16 64 32 16 64 32 16 64 32 
16 64 32 16 64 32 16 64 32 16 64 32 16 64 32 
16 64 32 16 64 32 16 64 32 16 64 32 16 64 32 
16 64 32 16 64 32 16 64 32 16 64 32 16 64 32 
16 64 32 16 64 32 16 64 32 16 64 32 16 64 32 
16 64 32 16 64 32 16 64 32 16 64 32 16 64 32 
16 64 32 16 64 32 16 64 32 16 64 32 16 64 32 
16 64 32 16 64 32 16 64 32 16 64 32 16 64 32 
16 64 32 16 64 32 16 64 32 16 64 32 16 64 32 
16 64 32 16 64 32 16 64 32 16 64 32 16 64 32 
16 64 32 16 64 32 16 64 32 16 64 32 16 64 32 
16 64 32 16 64 32 16 64 32 16 64 32 16 64 32 
16 64 32 16 64 32 16 64 32 16 64 32 16 64 32 
16 64 32 16 64 32 16 64 32 16 64 32 16 64 32 
16 64 32 16 64 32 16 64 32 16 64 32 16 64 32 
16 64 32 16 64 32 16 64 32 16 64 32 16 64 32 
16 64 32 16 64 32 16 64 32 16 64 32 16 64 32 
16 64 32 16 64 32 16 64 32 16 64 32 16 64 32 
16 64 32 16 64 32 16 64 32 16 64 32 16 64 32 
16 64 32 16 64 32 16 64 32 16 64 32 16 64 32 
16 64 32 16 64 32 16 64 32 16 64 32 16 64 32 
16 64 32 16 64 32 16 64 32 16 64 32 16 64 32 
16 64 32 16 64 32 16 64 32 16 64 32 16 64 32 
16 64 32 16 64 32 16 64 32 16 64 32 16 64 32 
16 64 32 16 64 32 16 64 32 16 64 32 16 64 32 
16 64 32 16 64 32 16 64 32 16 64 32 16 64 32 
16 64 32 16 64 32 16 64 32 16 64 32 16 64 32 
16 64 32 16 64 32 16 64 32 16 64 32 16 64 32 
16 64 32 16 64 32 16 64 32 16 64 32 16 64 32 
16 64 32 16 64 32 16 64 32 16 64 32 16 64 32 
16 64 32 16 64 32 16 64 32 16 64 32 16 64 32 
16 64 32 16 64 32 16 64 32 16 64 32 16 64 32 
16 64 32 16 64 32 16 64 32 16 64 32 16 64 32 
16 64 32 16 64 32 16 64 32 16 64 32 16 64 32 
16 64 32 16 64 32 16 64 32 16 64 32 16 64 32 
16 64 32 16 64 32 16 64 32 16 64 32 16 64 32 
16 64 32 16 64 32 16 64 32 16 64 32 16 64 32 
16 64 32 16 64 32 16 64 32 16 64 32 16 64 32 
16 64 32 16 64 32 16 64 32 16 64 32 16 64 32 
16 64 32 16 64 32 16 64 32 16 64 32 16 64 32 
16 64 32 16 64 32 16 64 32 16 64 32 16 64 32 
16 64 32 16 64 32 16 64 32 16 64 32 16 64 32 
16 64 32 16 64 32 16 64 32 16 64 32 16 64 32 
16 64 32 255 0 0 255 0 0 255 0 0 255 0 0 
255 0 0 255 0 0 255 0 0 255 0 0 255 0 0 
255 0 0 255 0 0 255 0 0 255 0 0 255 0 0 
255 0 0 255 0 0 255 0 0 255 0 0 255 0 0 
255 0 0 255 0 0 255 0 0 16 64 32 16 64 32 
16 64 32 16 64 32 16 64 32 16 64 32 16 64 32 
16 64 32 16 64 32 16 64 32 16 64 32 16 64 32 
16 64 32 16 64 32 16 64 32 16 64 32 16 64 32 
16 64 32 16 64 32 16 64 32 16 64 32 16 64 32 
16 64 32 16 64 32 16 64 32 16 64 32 16 64 32 
16 64 32 16 64 32 16 64 32 16 64 32 16 64 32 
16 64 32 16 64 32 16 64 32 16 64 32 16 64 32 
16 64 32 16 64 32 16 64 32 16 64 32 16 64 32 
16 64 32 16 64 32 16 64 32 16 64 32 16 64 32 
16 64 32 16 64 32 16 64 32 16 64 32 16 64 32 
16 64 32 16 64 32 16 64 32 16 64 32 16 64 32 
16 64 32 255 0 0 255 0 0 255 0 0 255 0 0 
255 0 0 255 0 0 255 0 0 255 0 0 255 0 0 
255 0 0 255 0 0 255 0 0 255 0 0 255 0 0 
255 0 0 255 0 0 255 0 0 255 0 0 255 0 0 
255 0 0 255 0 0 255 0 0 16 64 32 16 64 32 
16 64 32 16 64 32 16 64 32 16 64 32 16 64 32 
16 64 32 16 64 32 16 64 32 16 64 32 16 64 32 
16 64 32 16 64 32 16 64 32 16 64 32 16 64 32 
16 64 32 16 64 32 16 64 32 16 64 32 16 64 32 
16 64 32 16 64 32 16 64 32 16 64 32 16 64 32 
16 64 32 16 64 32 16 64 32 16 64 32 16 64 32 
16 64 32 16 64 32 16 64 32 16 64 32 16 64 32 
16 64 32 16 64 32 16 64 32 16 64 32 16 64 32 
16 64 32 16 64 32 16 64 32 16 64 32 16 64 32 
16 64 32 16 64 32 16 64 32 16 64 32 16 64 32 
16 64 32 16 64 32 16 64 32 16 64 32 16 64 32 
16 64 32 255 0 0 255 0 0 255 0 0 255 0 0 
255 0 0 255 0 0 255 0 0 255 0 0 255 0 0 
255 0 0 255 0 0 255 0 0 255 0 0 255 0 0 
255 0 0 255 0 0 255 0 0 255 0 0 255 0 0 
255 0 0 255 0 0 255 0 0 16 64 32 16 64 32 
16 64 32 16 64 32 16 64 32 16 64 32 16 64 32 
16 64 32 16 64 32 16 64 32 16 64 32 16 64 32 
16 64 32 16 64 32 16 64 32 16 64 32 16 64 32 
16 64 32 16 64 32 16 64 32 16 64 32 16 64 32 
16 64 32 16 64 32 16 64 32 16 64 32 16 64 32 
16 64 32 16 64 32 16 64 32 16 64 32 16 64 32 
16 64 32 16 64 32 16 64 32 16 64 32 16 64 32 
16 64 32 16 64 32 16 64 32 16 64 32 16 64 32 
16 64 32 16 64 32 16 64 32 16 64 32 16 64 32 
16 64 32 16 64 32 16 64 32 16 64 32 16 64 32 
16 64 32 16 64 32 16 64 32 16 64 32 16 64 32 
16 64 32 255 0 0 255 0 0 255 0 0 255 0 0 
255 0 0 255 0 0 255 0 0 255 0 0 255 0 0 
255 0 0 255 0 0 255 0 0 255 0 0 255 0 0 
255 0 0 255 0 0 255 0 0 255 0 0 255 0 0 
255 0 0 255 0 0 255 0 0 16 64 32 16 64 32 
16 64 32 16 64 32 16 64 32 16 64 32 16 64 32 
16 64 32 16 64 32 16 64 32 16 64 32 16 64 32 
16 64 32 16 64 32 16 64 32 16 64 32 16 64 32 
16 64 32 16 64 32 16 64 32 16 64 32 16 64 32 
16 64 32 16 64 32 16 64 32 16 64 32 16 64 32 
16 64 32 16 64 32 16 64 32 16 64 32 16 64 32 
16 64 32 16 64 32 16 64 32 16 64 32 16 64 32 
16 64 32 16 64 32 16 64 32 16 64 32 16 64 32 
16 64 32 16 64 32 16 64 32 16 64 32 16 64 32 
16 64 32 16 64 32 16 64 32 16 64 32 16 64 32 
16 64 32 16 64 32 16 64 32 16 64 32 16 64 32 
16 64 32 255 0 0 255 0 0 255 0 0 255 0 0 
255 0 0 255 0 0 255 0 0 255 0 0 255 0 0 
255 0 0 255 0 0 255 0 0 255 0 0 255 0 0 
255 0 0 255 0 0 255 0 0 255 0 0 255 0 0 
255 0 0 255 0 0 255 0 0 16 64 32 16 64 32 
16 64 32 16 64 32 16 64 32 16 64 32 16 64 32 
16 64 32 16 64 32 16 64 32 16 64 32 16 64 32 
16 64 32 16 64 32 16 64 32 16 64 32 16 64 32 
16 64 32 16 64 32 16 64 32 16 64 32 16 64 32 
16 64 32 16 64 32 16 64 32 16 64 32 16 64 32 
16 64 32 16 64 32 16 64 32 16 64 32 16 64 32 
16 64 32 16 64 32 16 64 32 16 64 32 16 64 32 
16 64 32 16 64 32 16 64 32 16 64 32 16 64 32 
16 64 32 16 64 32 16 64 32 16 64 32 16 64 32 
16 64 32 16 64 32 16 64 32 16 64 32 16 64 32 
16 64 32 16 64 32 16 64 32 16 64 32 16 64 32 
16 64 32 255 0 0 255 0 0 255 0 0 255 0 0 
255 0 0 255 0 0 255 0 0 255 0 0 255 0 0 
255 0 0 255 0 0 255 0 0 255 0 0 255 0 0 
255 0 0 255 0 0 255 0 0 255 0 0 255 0 0 
255 0 0 255 0 0 255 0 0 16 64 32 16 64 32 
16 64 32 16 64 32 16 64 32 16 64 32 16 64 32 
16 64 32 16 64 32 16 64 32 16 64 32 16 64 32 
16 64 32 16 64 32 16 64 32 16 64 32 16 64 32 
16 64 32 16 64 32 16 64 32 16 64 32 16 64 32 
16 64 32 16 64 32 16 64 32 16 64 32 16 64 32 
16 64 32 16 64 32 16 64 32 16 64 32 16 64 32 
16 64 32 16 64 32 16 64 32 16 64 32 16 64 32 
16 64 32 16 64 32 16 64 32 16 64 32 16 64 32 
16 64 32 16 64 32 16 64 32 16 64 32 16 64 32 
16 64 32 16 64 32 16 64 32 16 64 32 16 64 32 
16 64 32 16 64 32 16 64 32 16 64 32 16 64 32 
16 64 32 255 0 0 255 0 0 255 0 0 255 0 0 
255 0 0 255 0 0 255 0 0 255 0 0 255 0 0 
255 0 0 255 0 0 255 0 0 255 0 0 255 0 0 
255 0 0 255 0 0 255 0 0 255 0 0 255 0 0 
255 0 0 255 0 0 255 0 0 16 64 32 16 64 32 
16 64 32 16 64 32 16 64 32 16 64 32 16 64 32 
16 64 32 16 64 32 16 64 32 16 64 32 16 64 32 
16 64 32 16 64 32 16 64 32 16 64 32 16 64 32 
16 64 32 16 64 32 16 64 32 16 64 32 16 64 32 
16 64 32 16 64 32 16 64 32 16 64 32 16 64 32 
16 64 32 16 64 32 16 64 32 16 64 32 16 64 32 
16 64 32 16 64 32 16 64 32 16 64 32 16 64 32 
16 64 32 16 64 32 16 64 32 16 64 32 16 64 32 
16 64 32 16 64 32 16 64 32 16 64 32 16 64 32 
16 64 32 16 64 32 16 64 32 16 64 32 16 64 32 
16 64 32 16 64 32 16 64 32 16 64 32 16 64 32 
16 64 32 255 0 0 255 0 0 255 0 0 255 0 0 
255 0 0 255 0 0 255 0 0 255 0 0 255 0 0 
255 0 0 255 0 0 255 0 0 255 0 0 255 0 0 
255 0 0 255 0 0 255 0 0 255 0 0 255 0 0 
255 0 0 255 0 0 255 0 0 16 64 32 16 64 32 
16 64 32 16 64 32 16 64 32 16 64 32 16 64 32 
16 64 32 16 64 32 16 64 32 16 64 32 16 64 32 
16 64 32 16 64 32 16 64 32 16 64 32 16 64 32 
16 64 32 16 64 32 16 64 32 16 64 32 16 64 32 
16 64 32 16 64 32 16 64 32 16 64 32 16 64 32 
16 64 32 16 64 32 16 64 32 16 64 32 16 64 32 
16 64 32 16 64 32 16 64 32 16 64 32 16 64 32 
16 64 32 16 64 32 16 64 32 16 64 32 16 64 32 
16 64 32 16 64 32 16 64 32 16 64 32 16 64 32 
16 64 32 16 64 32 16 64 32 16 64 32 16 64 32 
16 64 32 16 64 32 16 64 32 16 64 32 16 64 32 
16 64 32 255 0 0 255 0 0 255 0 0 255 0 0 
255 0 0 255 0 0 255 0 0 255 0 0 255 0 0 
255 0 0 255 0 0 255 0 0 255 0 0 255 0 0 
255 0 0 255 0 0 255 0 0 255 0 0 255 0 0 
255 0 0 255 0 0 255 0 0 16 64 32 16 64 32 
16 64 32 16 64 32 16 64 32 16 64 32 16 64 32 
16 64 32 16 64 32 16 64 32 16 64 32 16 64 32 
16 64 32 16 64 32 16 64 32 16 64 32 16 64 32 
16 64 32 16 64 32 16 64 32 16 64 32 16 64 32 
16 64 32 16 64 32 16 64 32 16 64 32 16 64 32 
16 64 32 16 64 32 16 64 32 16 64 32 16 64 32 
16 64 32 16 64 32 16 64 32 16 64 32 16 64 32 
16 64 32 16 64 32 16 64 32 16 64 32 16 64 32 
16 64 32 16 64 32 16 64 32 16 64 32 16 64 32 
16 64 32 16 64 32 16 64 32 16 64 32 16 64 32 
16 64 32 16 64 32 16 64 32 16 64 32 16 64 32 
16 64 32 255 0 0 255 0 0 255 0 0 255 0 0 
255 0 0 255 0 0 255 0 0 255 0 0 255 0 0 
255 0 0 255 0 0 255 0 0 255 0 0 255 0 0 
255 0 0 255 0 0 255 0 0 255 0 0 255 0 0 
255 0 0 255 0 0 255 0 0 16 64 32 16 64 32 
16 64 32 16 64 32 16 64 32 16 64 32 16 64 32 
16 64 32 16 64 32 16 64 32 16 64 32 16 64 32 
16 64 32 16 64 32 16 64 32 16 64 32 16 64 32 
16 64 32 16 64 32 16 64 32 16 64 32 16 64 32 
16 64 32 16 64 32 16 64 32 16 64 32 16 64 32 
16 64 32 16 64 32 16 64 32 16 64 32 16 64 32 
16 64 32 16 64 32 16 64 32 16 64 32 16 64 32 
16 64 32 16 64 32 16 64 32 16 64 32 16 64 32 
16 64 32 16 64 32 16 64 32 16 64 32 16 64 32 
16 64 32 16 64 32 16 64 32 16 64 32 16 64 32 
16 64 32 16 64 32 16 64 32 16 64 32 16 64 32 
16 64 32 255 0 0 255 0 0 255 0 0 255 0 0 
255 0 0 255 0 0 255 0 0 255 0 0 255 0 0 
255 0 0 255 0 0 255 0 0 255 0 0 255 0 0 
255 0 0 255 0 0 255 0 0 255 0 0 255 0 0 
255 0 0 255 0 0 255 0 0 16 64 32 16 64 32 
16 64 32 16 64 32 16 64 32 16 64 32 16 64 32 
16 64 32 16 64 32 16 64 32 16 64 32 16 64 32 
16 64 32 16 64 32 16 64 32 16 64 32 16 64 32 
16 64 32 16 64 32 16 64 32 16 64 32 16 64 32 
16 64 32 16 64 32 16 64 32 16 64 32 16 64 32 
16 64 32 16 64 32 16 64 32 16 64 32 16 64 32 
16 64 32 16 64 32 16 64 32 16 64 32 16 64 32 
16 64 32 16 64 32 16 64 32 16 64 32 16 64 32 
16 64 32 16 64 32 16 64 32 16 64 32 16 64 32 
16 64 32 16 64 32 16 64 32 16 64 32 16 64 32 
16 64 32 16 64 32 16 64 32 16 64 32 16 64 32 
16 64 32 255 0 0 255 0 0 255 0 0 255 0 0 
255 0 0 255 0 0 255 0 0 255 0 0 255 0 0 
255 0 0 255 0 0 255 0 0 255 0 0 255 0 0 
255 0 0 255 0 0 255 0 0 255 0 0 255 0 0 
255 0 0 255 0 0 255 0 0 16 64 32 16 64 32 
16 64 32 16 64 32 16 64 32 16 64 32 16 64 32 
16 64 32 16 64 32 16 64 32 16 64 32 16 64 32 
16 64 32 16 64 32 16 64 32 16 64 32 16 64 32 
16 64 32 16 64 32 16 64 32 16 64 32 16 64 32 
16 64 32 16 64 32 16 64 32 16 64 32 16 64 32 
16 64 32 16 64 32 16 64 32 16 64 32 16 64 32 
16 64 32 16 64 32 16 64 32 16 64 32 16 64 32 
16 64 32 16 64 32 16 64 32 16 64 32 16 64 32 
16 64 32 16 64 32 16 64 32 16 64 32 16 64 32 
16 64 32 16 64 32 16 64 32 16 64 32 16 64 32 
16 64 32 16 64 32 16 64 32 16 64 32 16 64 32 
16 64 32 255 0 0 255 0 0 255 0 0 255 0 0 
255 0 0 255 0 0 255 0 0 255 0 0 255 0 0 
255 0 0 255 0 0 255 0 0 255 0 0 255 0 0 
255 0 0 255 0 0 255 0 0 255 0 0 255 0 0 
255 0 0 255 0 0 255 0 0 16 64 32 16 64 32 
16 64 32 16 64 32 16 64 32 16 64 32 16 64 32 
16 64 32 16 64 32 16 64 32 16 64 32 16 64 32 
16 64 32 16 64 32 16 64 32 16 64 32 16 64 32 
16 64 32 16 64 32 16 64 32 16 64 32 16 64 32 
16 64 32 16 64 32 16 64 32 16 64 32 16 64 32 
16 64 32 16 64 32 16 64 32 16 64 32 16 64 32 
16 64 32 16 64 32 16 64 32 16 64 32 16 64 32 
16 64 32 16 64 32 16 64 32 16 64 32 16 64 32 
16 64 32 16 64 32 16 64 32 16 64 32 16 64 32 
16 64 32 16 64 32 16 64 32 16 64 32 16 64 32 
16 64 32 16 64 32 16 64 32 16 64 32 16 64 32 
16 64 32 255 0 0 255 0 0 255 0 0 255 0 0 
255 0 0 255 0 0 255 0 0 255 0 0 255 0 0 
255 0 0 255 0 0 255 0 0 255 0 0 255 0 0 
255 0 0 255 0 0 255 0 0 255 0 0 255 0 0 
255 0 0 255 0 0 255 0 0 16 64 32 16 64 32 
16 64 32 16 64 32 16 64 32 16 64 32 16 64 32 
16 64 32 16 64 32 16 64 32 16 64 32 16 64 32 
16 64 32 16 64 32 16 64 32 16 64 32 16 64 32 
16 64 32 16 64 32 16 64 32 16 64 32 16 64 32 
16 64 32 16 64 32 16 64 32 16 64 32 16 64 32 
16 64 32 16 64 32 16 64 32 16 64 32 16 64 32 
16 64 32 16 64 32 16 64 32 16 64 32 16 64 32 
16 64 32 16 64 32 16 64 32 16 64 32 16 64 32 
16 64 32 16 64 32 16 64 32 16 64 32 16 64 32 
16 64 32 16 64 32 16 64 32 16 64 32 16 64 32 
16 64 32 16 64 32 16 64 32 16 64 32 16 64 32 
16 64 32 255 0 0 255 0 0 255 0 0 255 0 0 
255 0 0 255 0 0 255 0 0 255 0 0 255 0 0 
255 0 0 255 0 0 255 0 0 255 0 0 255 0 0 
255 0 0 255 0 0 255 0 0 255 0 0 255 0 0 
255 0 0 255 0 0 255 0 0 16 64 32 16 64 32 
16 64 32 16 64 32 16 64 32 16 64 32 16 64 32 
16 64 32 16 64 32 16 64 32 16 64 32 16 64 32 
16 64 32 16 64 32 16 64 32 16 64 32 16 64 32 
16 64 32 16 64 32 16 64 32 16 64 32 16 64 32 
16 64 32 16 64 32 16 64 32 16 64 32 16 64 32 
16 64 32 16 64 32 16 64 32 16 64 32 16 64 32 
16 64 32 16 64 32 16 64 32 16 64 32 16 64 32 
16 64 32 16 64 32 16 64 32 16 64 32 16 64 32 
16 64 32 16 64 32 16 64 32 16 64 32 16 64 32 
16 64 32 16 64 32 16 64 32 16 64 32 16 64 32 
16 64 32 16 64 32 16 64 32 16 64 32 16 64 32 
16 64 32 255 0 0 255 0 0 255 0 0 255 0 0 
255 0 0 255 0 0 255 0 0 255 0 0 255 0 0 
255 0 0 255 0 0 255 0 0 255 0 0 255 0 0 
255 0 0 255 0 0 255 0 0 255 0 0 255 0 0 
255 0 0 255 0 0 255 0 0 16 64 32 16 64 32 
16 64 32 16 64 32 16 64 32 16 64 32 16 64 32 
16 64 32 16 64 32 16 64 32 16 64 32 16 64 32 
16 64 32 16 64 32 16 64 32 16 64 32 16 64 32 
16 64 32 16 64 32 16 64 32 16 64 32 16 64 32 
16 64 32 16 64 32 16 64 32 16 64 32 16 64 32 
16 64 32 16 64 32 16 64 32 16 64 32 16 64 32 
16 64 32 16 64 32 16 64 32 16 64 32 16 64 32 
16 64 32 16 64 32 16 64 32 16 64 32 16 64 32 
16 64 32 16 64 32 16 64 32 16 64 32 16 64 32 
16 64 32 16 64 32 16 64 32 16 64 32 16 64 32 
16 64 32 16 64 32 16 64 32 16 64 32 16 64 32 
16 64 32 255 0 0 255 0 0 255 0 0 255 0 0 
255 0 0 255 0 0 255 0 0 255 0 0 255 0 0 
255 0 0 255 0 0 255 0 0 255 0 0 255 0 0 
255 0 0 255 0 0 255 0 0 255 0 0 255 0 0 
255 0 0 255 0 0 255 0 0 16 64 32 16 64 32 
16 64 32 16 64 32 16 64 32 16 64 32 16 64 32 
16 64 32 16 64 32 16 64 32 16 64 32 16 64 32 
16 64 32 16 64 32 16 64 32 16 64 32 16 64 32 
16 64 32 16 64 32 16 64 32 16 64 32 16 64 32 
16 64 32 16 64 32 16 64 32 16 64 32 16 64 32 
16 64 32 16 64 32 16 64 32 16 64 32 16 64 32 
16 64 32 16 64 32 16 64 32 16 64 32 16 64 32 
16 64 32 16 64 32 16 64 32 16 64 32 16 64 32 
16 64 32 16 64 32 16 64 32 16 64 32 16 64 32 
16 64 32 16 64 32 16 64 32 16 64 32 16 64 32 
16 64 32 16 64 32 16 64 32 16 64 32 16 64 32 
16 64 32 16 64 32 16 64 32 16 64 32 16 64 32 
16 64 32 16 64 32 16 64 32 16 64 32 16 64 32 
16 64 32 16 64 32 16 64 32 16 64 32 16 64 32 
16 64 32 16 64 32 16 64 32 16 64 32 16 64 32 
16 64 32 16 64 32 16 64 32 16 64 32 16 64 32 
16 64 32 16 64 32 16 64 32 16 64 32 16 64 32 
16 64 32 16 64 32 16 64 32 16 64 32 16 64 32 
16 64 32 16 64 32 16 64 32 16 64 32 16 64 32 
16 64 32 16 64 32 16 64 32 16 64 32 16 64 32 
16 64 32 16 64 32 16 64 32 16 64 32 16 64 32 
16 64 32 16 64 32 16 64 32 16 64 32 16 64 32 
16 64 32 16 64 32 16 64 32 16 64 32 16 64 32 
16 64 32 16 64 32 16 64 32 16 64 32 16 64 32 
16 64 32 16 64 32 16 64 32 16 64 32 16 64 32 
16 64 32 16 64 32 16 64 32 16 64 32 16 64 32 
16 64 32 16 64 32 16 64 32 16 64 32 16 64 32 
16 64 32 16 64 32 16 64 32 16 64 32 16 64 32 
16 64 32 16 64 32 16 64 32 16 64 32 16 64 32 
16 64 32 16 64 32 16 64 32 16 64 32 16 64 32 
16 64 32 16 64 32 16 64 32 16 64 32 16 64 32 
16 64 32 16 64 32 16 64 32 16 64 32 16 64 32 
16 64 32 16 64 32 16 64 32 16 64 32 16 64 32 
16 64 32 16 64 32 16 64 32 16 64 32 16 64 32 
16 64 32 16 64 32 16 64 32 16 64 32 16 64 32 
16 64 32 16 64 32 16 64 32 16 64 32 16 64 32 
16 64 32 16 64 32 16 64 32 16 64 32 16 64 32 
16 64 32 16 64 32 16 64 32 16 64 32 16 64 32 
16 64 32 16 64 32 16 64 32 16 64 32 16 64 32 
16 64 32 16 64 32 16 64 32 16 64 32 16 64 32 
16 64 32 16 64 32 16 64 32 16 64 32 16 64 32 
16 64 32 16 64 32 16 64 32 16 64 32 16 64 32 
16 64 32 16 64 32 16 64 32 16 64 32 16 64 32 
16 64 32 16 64 32 16 64 32 16 64 32 16 64 32 
16 64 32 16 64 32 16 64 32 16 64 32 16 64 32 
16 64 32 16 64 32 16 64 32 16 64 32 16 64 32 
16 64 32 16 64 32 16 64 32 16 64 32 16 64 32 
16 64 32 16 64 32 16 64 32 16 64 32 16 64 32 
16 64 32 16 64 32 16 64 32 16 64 32 16 64 32 
16 64 32 16 64 32 16 64 32 16 64 32 16 64 32 
16 64 32 16 64 32 16 64 32 16 64 32 16 64 32 
16 64 32 16 64 32 16 64 32 16 64 32 16 64 32 
16 64 32 16 64 32 16 64 32 16 64 32 16 64 32 
16 64 32 16 64 32 16 64 32 16 64 32 16 64 32 
16 64 32 16 64 32 16 64 32 16 64 32 16 64 32 
16 64 32 16 64 32 16 64 32 16 64 32 16 64 32 
16 64 32 16 64 32 16 64 32 16 64 32 16 64 32 
16 64 32 16 64 32 16 64 32 16 64 32 16 64 32 
16 64 32 16 64 32 16 64 32 16 64 32 16 64 32 
16 64 32 16 64 32 16 64 32 16 64 32 16 64 32 
16 64 32 16 64 32 16 64 32 16 64 32 16 64 32 
16 64 32 16 64 32 16 64 32 16 64 32 16 64 32 
16 64 32 16 64 32 16 64 32 16 64 32 16 64 32 
16 64 32 16 64 32 16 64 32 16 64 32 16 64 32 
16 64 32 16 64 32 16 64 32 16 64 32 16 64 32 
16 64 32 16 64 32 16 64 32 16 64 32 16 64 32 
16 64 32 16 64 32 16 64 32 16 64 32 16 64 32 
16 64 32 16 64 32 16 64 32 16 64 32 16 64 32 
16 64 32 16 64 32 16 64 32 16 64 32 16 64 32 
16 64 32 16 64 32 16 64 32 16 64 32 16 64 32 
16 64 32 16 64 32 16 64 32 16 64 32 16 64 32 
16 64 32 16 64 32 16 64 32 16 64 32 16 64 32 
16 64 32 16 64 32 16 64 32 16 64 32 16 64 32 
16 64 32 16 64 32 16 64 32 16 64 32 16 64 32 
16 64 32 16 64 32 16 64 32 16 64 32 16 64 32 
16 64 32 16 64 32 16 64 32 16 64 32 16 64 32 
16 64 32 16 64 32 16 64 32 16 64 32 16 64 32 
16 64 32 16 64 32 16 64 32 16 64 32 16 64 32 
16 64 32 16 64 32 16 64 32 16 64 32 16 64 32 
16 64 32 16 64 32 16 64 32 16 64 32 16 64 32 
16 64 32 16 64 32 16 64 32 16 64 32 16 64 32 
16 64 32 16 64 32 16 64 32 16 64 32 16 64 32 
16 64 32 16 64 32 16 64 32 16 64 32 16 64 32 
16 64 32 16 64 32 16 64 32 16 64 32 16 64 32 
16 64 32 16 64 32 16 64 32 16 64 32 16 64 32 
16 64 32 16 64 32 16 64 32 16 64 32 16 64 32 
16 64 32 16 64 32 16 64 32 16 64 32 16 64 32 
16 64 32 16 64 32 16 64 32 16 64 32 16 64 32 
16 64 32 16 64 32 16 64 32 16 64 32 16 64 32 
16 64 32 16 64 32 16 64 32 16 64 32 16 64 32 
16 64 32 16 64 32 16 64 32 16 64 32 16 64 32 
16 64 32 16 64 32 16 64 32 16 64 32 16 64 32 
16 64 32 16 64 32 16 64 32 16 64 32 16 64 32 
16 64 32 16 64 32 16 64 32 16 64 32 16 64 32 
16 64 32 16 64 32 16 64 32 16 64 32 16 64 32 
16 64 32 16 64 32 16 64 32 16 64 32 16 64 32 
16 64 32 16 64 32 16 64 32 16 64 32 16 64 32 
16 64 32 16 64 32 16 64 32 16 64 32 16 64 32 
16 64 32 16 64 32 16 64 32 16 64 32 16 64 32 
16 64 32 16 64 32 16 64 32 16 64 32 16 64 32 
16 64 32 16 64 32 16 64 32 16 64 32 16 64 32 
16 64 32 16 64 32 16 64 32 16 64 32 16 64 32 
16 64 32 16 64 32 16 64 32 16 64 32 16 64 32 
16 64 32 16 64 32 16 64 32 16 64 32 16 64 32 
16 64 32 16 64 32 16 64 32 16 64 32 16 64 32 
16 64 32 16 64 32 16 64 32 16 64 32 16 64 32 
16 64 32 16 64 32 16 64 32 16 64 32 16 64 32 
16 64 32 16 64 32 16 64 32 16 64 32 16 64 32 
16 64 32 16 64 32 16 64 32 16 64 32 16 64 32 
16 64 32 16 64 32 16 64 32 16 64 32 16 64 32 
16 64 32 16 64 32 16 64 32 16 64 32 16 64 32 
16 64 32 16 64 32 16 64 32 16 64 32 16 64 32 
16 64 32 16 64 32 16 64 32 16 64 32 16 64 32 
16 64 32 16 64 32 16 64 32 16 64 32 16 64 32 
16 64 32 16 64 32 16 64 32 16 64 32 16 64 32 
16 64 32 16 64 32 16 64 32 16 64 32 16 64 32 
16 64 32 16 64 32 16 64 32 16 64 32 16 64 32 
16 64 32 16 64 32 16 64 32 16 64 32 16 64 32 
16 64 32 16 64 32 16 64 32 16 64 32 16 64 32 
16 64 32 16 64 32 16 64 32 16 64 32 16 64 32 
16 64 32 16 64 32 16 64 32 16 64 32 16 64 32 
16 64 32 16 64 32 16 64 32 16 64 32 16 64 32 
16 64 32 16 64 32 16 64 32 16 64 32 16 64 32 
16 64 32 16 64 32 16 64 32 16 64 32 16 64 32 
16 64 32 16 64 32 16 64 32 16 64 32 16 64 32 
16 64 32 16 64 32 16 64 32 16 64 32 16 64 32 
16 64 32 16 64 32 16 64 32 16 64 32 16 64 32 
16 64 32 16 64 32 16 64 32 16 64 32 16 64 32 
16 64 32 16 64 32 16 64 32 16 64 32 16 64 32 
16 64 32 16 64 32 16 64 32 16 64 32 16 64 32 
16 64 32 16 64 32 16 64 32 16 64 32 16 64 32 
16 64 32 16 64 32 16 64 32 16 64 32 16 64 32 
16 64 32 16 64 32 16 64 32 16 64 32 16 64 32 
16 64 32 16 64 32 16 64 32 16 64 32 16 64 32 
16 64 32 16 64 32 16 64 32 16 64 32 16 64 32 
16 64 32 16 64 32 16 64 32 16 64 32 16 64 32 
16 64 32 16 64 32 16 64 32 16 64 32 16 64 32 
16 64 32 16 64 32 16 64 32 16 64 32 16 64 32 
16 64 32 16 64 32 16 64 32 16 64 32 16 64 32 
16 64 32 16 64 32 16 64 32 16 64 32 16 64 32 
16 64 32 16 64 32 16 64 32 16 64 32 16 64 32 
16 64 32 16 64 32 16 64 32 16 64 32 16 64 32 
16 64 32 16 64 32 16 64 32 16 64 32 16 64 32 
16 64 32 16 64 32 16 64 32 16 64 32 16 64 32 
16 64 32 16 64 32 16 64 32 16 64 32 16 64 32 
16 64 32 16 64 32 16 64 32 16 64 32 16 64 32 
16 64 32 16 64 32 16 64 32 16 64 32 16 64 32 
16 64 32 16 64 32 16 64 32 16 64 32 16 64 32 
16 64 32 16 64 32 16 64 32 16 64 32 16 64 32 
16 64 32 16 64 32 16 64 32 16 64 32 16 64 32 
16 64 32 16 64 32 16 64 32 16 64 32 16 64 32 
16 64 32 16 64 32 16 64 32 16 64 32 16 64 32 
16 64 32 16 64 32 16 64 32 16 64 32 16 64 32 
16 64 32 16 64 32 16 64 32 16 64 32 16 64 32 
16 64 32 16 64 32 16 64 32 16 64 32 16 64 32 
16 64 32 16 64 32 16 64 32 16 64 32 16 64 32 
16 64 32 16 64 32 16 64 32 16 64 32 16 64 32 
16 64 32 16 64 32 16 64 32 16 64 32 16 64 32 
16 64 32 16 64 32 16 64 32 16 64 32 16 64 32 
16 64 32 16 64 32 16 64 32 16 64 32 16 64 32 
16 64 32 16 64 32 16 64 32 16 64 32 16 64 32 
16 64 32 16 64 32 16 64 32 16 64 32 16 64 32 
16 64 32 16 64 32 16 64 32 16 64 32 16 64 32 
16 64 32 16 64 32 16 64 32 16 64 32 16 64 32 
16 64 32 16 64 32 16 64 32 16 64 32 16 64 32 
16 64 32 16 64 32 16 64 32 16 64 32 16 64 32 
16 64 32 16 64 32 16 64 32 16 64 32 16 64 32 
16 64 32 16 64 32 16 64 32 16 64 32 16 64 32 
16 64 32 16 64 32 16 64 32 16 64 32 16 64 32 
16 64 32 16 64 32 16 64 32 16 64 32 16 64 32 
16 64 32 16 64 32 16 64 32 16 64 32 16 64 32 
16 64 32 16 64 32 16 64 32 16 64 32 16 64 32 
16 64 32 16 64 32 16 64 32 16 64 32 16 64 32 
16 64 32 16 64 32 16 64 32 16 64 32 16 64 32 
16 64 32 16 64 32 16 64 32 16 64 32 16 64 32 
16 64 32 16 64 32 16 64 32 16 64 32 16 64 32 
16 64 32 16 64 32 16 64 32 16 64 32 16 64 32 
16 64 32 16 64 32 16 64 32 16 64 32 16 64 32 
16 64 32 16 64 32 16 64 32 16 64 32 16 64 32 
16 64 32 16 64 32 16 64 32 16 64 32 16 64 32 
16 64 32 16 64 32 16 64 32 16 64 32 16 64 32 
16 64 32 16 64 32 16 64 32 16 64 32 16 64 32 
16 64 32 16 64 32 16 64 32 16 64 32 16 64 32 
16 64 32 16 64 32 16 64 32 16 64 32 16 64 32 
16 64 32 16 64 32 16 64 32 16 64 32 16 64 32 
16 64 32 16 64 32 16 64 32 16 64 32 16 64 32 
16 64 32 16 64 32 16 64 32 16 64 32 16 64 32 
16 64 32 16 64 32 16 64 32 16 64 32 16 64 32 
16 64 32 16 64 32 16 64 32 16 64 32 16 64 32 
16 64 32 16 64 32 16 64 32 16 64 32 16 64 32 
16 64 32 16 64 32 16 64 32 16 64 32 16 64 32 
16 64 32 16 64 32 16 64 32 16 64 32 16 64 32 
16 64 32 16 64 32 16 64 32 16 64 32 16 64 32 
16 64 32 16 64 32 16 64 32 16 64 32 16 64 32 
16 64 32 16 64 32 16 64 32 16 64 32 16 64 32 
16 64 32 16 64 32 16 64 32 16 64 32 16 64 32 
16 64 32 16 64 32 16 64 32 16 64 32 16 64 32 
16 64 32 16 64 32 16 64 32 16 64 32 16 64 32 
16 64 32 16 64 32 16 64 32 16 64 32 16 64 32 
16 64 32 16 64 32 16 64 32 16 64 32 16 64 32 
16 64 32 16 64 32 16 64 32 16 64 32 16 64 32 
16 64 32 16 64 32 16 64 32 16 64 32 16 64 32 
16 64 32 16 64 32 16 64 32 16 64 32 16 64 32 
16 64 32 16 64 32 16 64 32 16 64 32 16 64 32 
16 64 32 16 64 32 16 64 32 16 64 32 16 64 32 
16 64 32 16 64 32 16 64 32 16 64 32 16 64 32 
16 64 32 16 64 32 16 64 32 16 64 32 16 64 32 
16 64 32 16 64 32 16 64 32 16 64 32 16 64 32 
16 64 32 16 64 32 16 64 32 16 64 32 16 64 32 
16 64 32 16 64 32 16 64 32 16 64 32 16 64 32 
16 64 32 16 64 32 16 64 32 16 64 32 16 64 32 
16 64 32 16 64 32 16 64 32 16 64 32 16 64 32 
16 64 32 16 64 32 16 64 32 16 64 32 16 64 32 
16 64 32 16 64 32 16 64 32 16 64 32 16 64 32 
16 64 32 16 64 32 16 64 32 16 64 32 16 64 32 
16 64 32 16 64 32 16 64 32 16 64 32 16 64 32 
16 64 32 16 64 32 16 64 32 16 64 32 16 64 32 
16 64 32 16 64 32 16 64 32 16 64 32 16 64 32 
16 64 32 16 64 32 16 64 32 16 64 32 16 64 32 
16 64 32 16 64 32 16 64 32 16 64 32 16 64 32 
16 64 32 16 64 32 16 64 32 16 64 32 16 64 32 
16 64 32 16 64 32 16 64 32 16 64 32 16 64 32 
16 64 32 16 64 32 16 64 32 16 64 32 16 64 32 
16 64 32 16 64 32 16 64 32 16 64 32 16 64 32 
16 64 32 16 64 32 16 64 32 16 64 32 16 64 32 
16 64 32 16 64 32 16 64 32 16 64 32 16 64 32 
16 64 32 16 64 32 16 64 32 16 64 32 16 64 32 
16 64 32 16 64 32 16 64 32 16 64 32 16 64 32 
16 64 32 16 64 32 16 64 32 16 64 32 16 64 32 
16 64 32 16 64 32 16 64 32 16 64 32 16 64 32 
16 64 32 16 64 32 16 64 32 16 64 32 16 64 32 
16 64 32 16 64 32 16 64 32 16 64 32 16 64 32 
16 64 32 16 64 32 16 64 32 16 64 32 16 64 32 
16 64 32 16 64 32 16 64 32 16 64 32 16 64 32 
16 64 32 16 64 32 16 64 32 16 64 32 16 64 32 
16 64 32 16 64 32 16 64 32 16 64 32 16 64 32 
16 64 32 16 64 32 16 64 32 16 64 32 16 64 32 
16 64 32 16 64 32 16 64 32 16 64 32 16 64 32 
16 64 32 16 64 32 16 64 32 16 64 32 16 64 32 
16 64 32 16 64 32 16 64 32 16 64 32 16 64 32 
16 64 32 16 64 32 16 64 32 16 64 32 16 64 32 
16 64 32 16 64 32 16 64 32 16 64 32 16 64 32 
16 64 32 16 64 32 16 64 32 16 64 32 16 64 32 
16 64 32 16 64 32 16 64 32 16 64 32 16 64 32 
16 64 32 16 64 32 16 64 32 16 64 32 16 64 32 
16 64 32 16 64 32 16 64 32 16 64 32 16 64 32 
16 64 32 16 64 32 16 64 32 16 64 32 16 64 32 
16 64 32 16 64 32 16 64 32 16 64 32 16 64 32 
16 64 32 16 64 32 16 64 32 16 64 32 16 64 32 
16 64 32 16 64 32 16 64 32 16 64 32 16 64 32 
16 64 32 16 64 32 16 64 32 16 64 32 16 64 32 
16 64 32 16 64 32 16 64 32 16 64 32 16 64 32 
16 64 32 16 64 32 16 64 32 16 64 32 16 64 32 
16 64 32 16 64 32 16 64 32 16 64 32 16 64 32 
16 64 32 16 64 32 16 64 32 16 64 32 16 64 32 
16 64 32 16 64 32 16 64 32 16 64 32 16 64 32 
16 64 32 16 64 32 16 64 32 16 64 32 16 64 32 
16 64 32 16 64 32 16 64 32 16 64 32 16 64 32 
16 64 32 16 64 32 16 64 32 16 64 32 16 64 32 
16 64 32 16 64 32 16 64 32 16 64 32 16 64 32 
16 64 32 16 64 32 16 64 32 16 64 32 16 64 32 
16 64 32 16 64 32 16 64 32 16 64 32 16 64 32 
16 64 32 16 64 32 16 64 32 16 64 32 16 64 32 
16 64 32 16 64 32 16 64 32 16 64 32 16 64 32 
16 64 32 16 64 32 16 64 32 16 64 32 16 64 32 
16 64 32 16 64 32 16 64 32 16 64 32 16 64 32 
16 64 32 16 64 32 16 64 32 16 64 32 16 64 32 
16 64 32 16 64 32 16 64 32 16 64 32 16 64 32 
16 64 32 16 64 32 16 64 32 16 64 32 16 64 32 
16 64 32 16 64 32 16 64 32 16 64 32 16 64 32 
16 64 32 16 64 32 16 64 32 16 64 32 16 64 32 
16 64 32 16 64 32 16 64 32 16 64 32 16 64 32 
16 64 32 16 64 32 16 64 32 16 64 32 16 64 32 
16 64 32 16 64 32 16 64 32 16 64 32 16 64 32 
16 64 32 16 64 32 16 64 32 16 64 32 16 64 32 
16 64 32 16 64 32 16 64 32 16 64 32 16 64 32 
16 64 32 16 64 32 16 64 32 16 64 32 16 64 32 
16 64 32 16 64 32 16 64 32 16 64 32 16 64 32 
16 64 32 16 64 32 16 64 32 16 64 32 16 64 32 
16 64 32 16 64 32 16 64 32 16 64 32 16 64 32 
16 64 32 16 64 32 16 64 32 16 64 32 16 64 32 
16 64 32 16 64 32 16 64 32 16 64 32 16 64 32 
16 64 32 16 64 32 16 64 32 16 64 32 16 64 32 
16 64 32 16 64 32 16 64 32 16 64 32 16 64 32 
16 64 32 16 64 32 16 64 32 16 64 32 16 64 32 
16 64 32 16 64 32 16 64 32 16 64 32 16 64 32 
16 64 32 16 64 32 16 64 32 16 64 32 16 64 32 
16 64 32 16 64 32 16 64 32 16 64 32 16 64 32 
16 64 32 16 64 32 16 64 32 16 64 32 16 64 32 
16 64 32 16 64 32 16 64 32 16 64 32 16 64 32 
16 64 32 16 64 32 16 64 32 16 64 32 16 64 32 
16 64 32 16 64 32 16 64 32 16 64 32 16 64 32 
16 64 32 16 64 32 16 64 32 16 64 32 16 64 32 
16 64 32 16 64 32 16 64 32 16 64 32 16 64 32 
16 64 32 16 64 32 16 64 32 16 64 32 16 64 32 
16 64 32 16 64 32 16 64 32 16 64 32 16 64 32 
16 64 32 16 64 32 16 64 32 16 64 32 16 64 32 
16 64 32 16 64 32 16 64 32 16 64 32 16 64 32 
16 64 32 16 64 32 16 64 32 16 64 32 16 64 32 
16 64 32 16 64 32 16 64 32 16 64 32 16 64 32 
16 64 32 16 64 32 16 64 32 16 64 32 16 64 32 
16 64 32 16 64 32 16 64 32 16 64 32 16 64 32 
16 64 32 16 64 32 16 64 32 16 64 32 16 64 32 
16 64 32 16 64 32 16 64 32 16 64 32 16 64 32 
16 64 32 16 64 32 16 64 32 16 64 32 16 64 32 
16 64 32 16 64 32 16 64 32 16 64 32 16 64 32 
16 64 32 16 64 32 16 64 32 16 64 32 16 64 32 
16 64 32 16 64 32 16 64 32 16 64 32 16 64 32 
16 64 32 16 64 32 16 64 32 16 64 32 16 64 32 
16 64 32 16 64 32 16 64 32 16 64 32 16 64 32 
16 64 32 16 64 32 16 64 32 16 64 32 16 64 32 
16 64 32 16 64 32 16 64 32 16 64 32 16 64 32 
16 64 32 16 64 32 16 64 32 16 64 32 16 64 32 
16 64 32 16 64 32 16 64 32 16 64 32 16 64 32 
16 64 32 16 64 32 16 64 32 16 64 32 16 64 32 
16 64 32 16 64 32 16 64 32 16 64 32 16 64 32 
16 64 32 16 64 32 16 64 32 16 64 32 16 64 32 
16 64 32 16 64 32 16 64 32 16 64 32 16 64 32 
16 64 32 16 64 32 16 64 32 16 64 32 16 64 32 
16 64 32 16 64 32 16 64 32 16 64 32 16 64 32 
16 64 32 16 64 32 16 64 32 16 64 32 16 64 32 
16 64 32 16 64 32 16 64 32 16 64 32 16 64 32 
16 64 32 16 64 32 16 64 32 16 64 32 16 64 32 
16 64 32 16 64 32 16 64 32 16 64 32 16 64 32 
16 64 32 16 64 32 16 64 32 16 64 32 16 64 32 
16 64 32 16 64 32 16 64 32 16 64 32 16 64 32 
16 64 32 16 64 32 16 64 32 16 64 32 16 64 32 
16 64 32 16 64 32 16 64 32 16 64 32 16 64 32 
16 64 32 16 64 32 16 64 32 16 64 32 16 64 32 
16 64 32 16 64 32 16 64 32 16 64 32 16 64 32 
16 64 32 16 64 32 16 64 32 16 64 32 16 64 32 
16 64 32 16 64 32 16 64 32 16 64 32 16 64 32 
16 64 32 16 64 32 16 64 32 16 64 32 16 64 32 
16 64 32 16 64 32 16 64 32 16 64 32 16 64 32 
16 64 32 16 64 32 16 64 32 16 64 32 16 64 32 
16 64 32 16 64 32 16 64 32 16 64 32 16 64 32 
16 64 32 16 64 32 16 64 32 16 64 32 16 64 32 
16 64 32 16 64 32 16 64 32 16 64 32 16 64 32 
16 64 32 16 64 32 16 64 32 16 64 32 16 64 32 
16 64 32 16 64 32 16 64 32 16 64 32 16 64 32 
16 64 32 16 64 32 16 64 32 16 64 32 16 64 32 
16 64 32 16 64 32 16 64 32 16 64 32 16 64 32 
16 64 32 16 64 32 16 64 32 16 64 32 16 64 32 
